<svg width="19" height="18" viewBox="0 0 19 18" fill="none" xmlns="http://www.w3.org/2000/svg">
<path fill-rule="evenodd" clip-rule="evenodd" d="M4.57031 1.5C3.32767 1.5 2.32031 2.50736 2.32031 3.75V14.25C2.32031 15.4926 3.32767 16.5 4.57031 16.5H15.0703C16.313 16.5 17.3203 15.4926 17.3203 14.25V3.75C17.3203 2.50736 16.313 1.5 15.0703 1.5H4.57031ZM15.6006 9.53033C15.8935 9.23744 15.8935 8.76256 15.6006 8.46967L12.6006 5.46967C12.3077 5.17678 11.8329 5.17678 11.54 5.46967C11.2471 5.76256 11.2471 6.23744 11.54 6.53033L13.2597 8.25H4.57031C4.1561 8.25 3.82031 8.58579 3.82031 9C3.82031 9.41421 4.1561 9.75 4.57031 9.75H13.2597L11.54 11.4697C11.2471 11.7626 11.2471 12.2374 11.54 12.5303C11.8329 12.8232 12.3077 12.8232 12.6006 12.5303L15.6006 9.53033Z" fill="black"/>
</svg>
