<svg width="729" height="207" viewBox="0 0 729 207" fill="none" xmlns="http://www.w3.org/2000/svg">
<g clip-path="url(#clip0_662_1988)">
<rect width="729" height="207" rx="16" fill="#F8FEE6"/>
<g opacity="0.11">
<path d="M701.376 104.057C686.498 65.4987 669.796 43.5258 620.547 14.7547L595.68 29.1113M701.376 104.057C698.2 134.717 693.714 151.89 680.39 182.374L690.072 192.055H673.68C684.126 124.499 639.491 126.665 630.02 129.491C620.55 132.317 614.55 139.544 610.376 145.882C594.371 170.186 574.767 195.055 565.756 204.546C565.749 197.719 565.739 190.395 565.724 182.374C565.683 159.591 565.678 129.888 565.686 104.057M701.376 104.057C666.922 66.9433 647.828 45.8794 595.68 29.1113M701.376 104.057H632.985M595.68 29.1113L580.702 37.7587M580.702 37.7587L565.724 46.4062C565.724 46.4062 565.696 72.3056 565.686 104.057M580.702 37.7587C609.893 59.7171 621.549 74.133 632.985 104.057M632.985 104.057H565.686M565.724 36.7977L607.549 12.6503L597.209 -22.5487L587.767 -28V-6.15768C587.202 7.97241 579.201 14.7263 565.686 14.9111M573.636 204.546C611.988 204.731 630.538 202.042 668.028 192.055C675.376 124.97 634.116 133.664 627.898 137.795C621.68 141.926 620.549 143.621 616.028 149.838C611.506 156.056 582.648 195.055 573.636 204.546Z" stroke="#719500" stroke-width="14.7487"/>
<path d="M430 104.059C444.878 65.4999 461.58 43.5266 510.828 14.7553L535.694 29.112M430 104.059C433.176 134.719 437.662 151.892 450.985 182.376L441.304 192.057H457.695C447.25 124.501 491.884 126.667 501.355 129.493C510.825 132.319 516.825 139.546 520.999 145.884C537.004 170.188 556.607 195.058 565.618 204.549C565.625 197.721 565.636 190.397 565.65 182.376C565.692 159.593 565.696 129.89 565.688 104.059M430 104.059C464.453 66.9445 483.547 45.8804 535.694 29.112M430 104.059H498.39M535.694 29.112L550.672 37.7595M550.672 37.7595L565.65 46.4071C565.65 46.4071 565.678 72.3068 565.688 104.059M550.672 37.7595C521.482 59.7182 509.826 74.1342 498.39 104.059M498.39 104.059H565.688M565.65 36.7985L523.825 12.6508L534.166 -22.5486L543.608 -28V-6.15741C544.173 7.97286 552.173 14.7268 565.688 14.9117M557.738 204.549C519.387 204.734 500.837 202.045 463.347 192.057C456 124.971 497.26 133.666 503.477 137.797C509.695 141.928 510.826 143.623 515.347 149.841C519.868 156.058 548.727 195.058 557.738 204.549Z" stroke="#719500" stroke-width="14.7487"/>
</g>
<circle opacity="0.05" cx="627" cy="139" r="218" fill="#B9F500"/>
<circle opacity="0.05" cx="694" cy="139" r="218" fill="#B9F500"/>
<path d="M61.48 75L55.24 59.92L49 75H43.56L36.72 46.6H42.88L47.2 65.48L55.24 46.12L63.28 65.48L67.6 46.6H73.76L66.92 75H61.48ZM79.3575 75H73.8775V45H79.3575V57.28C80.5842 55.4667 82.4908 54.56 85.0775 54.56C87.4775 54.56 89.3575 55.36 90.7175 56.96C92.1042 58.5333 92.7975 60.64 92.7975 63.28V75H87.3175V64.2C87.3175 62.7333 87.0108 61.6 86.3975 60.8C85.7842 59.9733 84.9175 59.56 83.7975 59.56C82.4642 59.56 81.3842 60.04 80.5575 61C79.7575 61.96 79.3575 63.3733 79.3575 65.24V75ZM102.743 75.44C100.103 75.44 97.8761 74.4133 96.0628 72.36C94.2495 70.3067 93.3428 67.8533 93.3428 65C93.3428 62.1467 94.2495 59.6933 96.0628 57.64C97.8761 55.5867 100.103 54.56 102.743 54.56C104.023 54.56 105.169 54.8267 106.183 55.36C107.196 55.8933 107.969 56.52 108.503 57.24V55H113.983V75H108.503V72.76C107.969 73.48 107.196 74.1067 106.183 74.64C105.169 75.1733 104.023 75.44 102.743 75.44ZM100.223 68.92C101.156 69.9333 102.383 70.44 103.903 70.44C105.423 70.44 106.636 69.9333 107.543 68.92C108.476 67.9067 108.943 66.6 108.943 65C108.943 63.4 108.476 62.0933 107.543 61.08C106.636 60.0667 105.423 59.56 103.903 59.56C102.383 59.56 101.156 60.0667 100.223 61.08C99.3161 62.0933 98.8628 63.4 98.8628 65C98.8628 66.6 99.3161 67.9067 100.223 68.92ZM125.79 75.24C123.55 75.24 121.71 74.6267 120.27 73.4C118.857 72.1467 118.15 70.3467 118.15 68V59.8H114.11V55H118.15V49.44H123.63V55H129.27V59.8H123.63V66.92C123.63 68.1467 123.897 69.0267 124.43 69.56C124.964 70.0667 125.83 70.32 127.03 70.32C127.884 70.32 128.63 70.2 129.27 69.96V74.8C128.31 75.0933 127.15 75.24 125.79 75.24ZM136.781 52.68L132.301 59.88H129.061L132.021 53.8C131.354 53.5333 130.781 53.0667 130.301 52.4C129.847 51.7067 129.621 50.9467 129.621 50.12C129.621 49 130.007 48.0533 130.781 47.28C131.554 46.5067 132.501 46.12 133.621 46.12C134.741 46.12 135.687 46.5067 136.461 47.28C137.234 48.0533 137.621 49 137.621 50.12C137.621 50.9733 137.341 51.8267 136.781 52.68ZM143.618 75.44C139.831 75.44 137.084 74.16 135.378 71.6L139.138 68.4C140.098 69.9467 141.591 70.72 143.618 70.72C144.231 70.72 144.751 70.6 145.178 70.36C145.604 70.12 145.818 69.76 145.818 69.28C145.818 68.8533 145.631 68.5067 145.258 68.24C144.911 67.9467 144.204 67.6533 143.138 67.36L141.658 67C139.818 66.52 138.418 65.72 137.458 64.6C136.524 63.48 136.084 62.1467 136.138 60.6C136.191 58.7867 136.911 57.3333 138.298 56.24C139.711 55.12 141.498 54.56 143.658 54.56C146.724 54.56 149.031 55.68 150.578 57.92L146.978 60.84C146.044 59.6667 144.911 59.08 143.578 59.08C143.044 59.08 142.578 59.2 142.178 59.44C141.778 59.68 141.578 60.0133 141.578 60.44C141.578 61.24 142.231 61.8133 143.538 62.16L145.418 62.72C149.284 63.76 151.218 65.8267 151.218 68.92C151.218 70.8133 150.498 72.3733 149.058 73.6C147.618 74.8267 145.804 75.44 143.618 75.44ZM183.839 75H178.839L164.279 56.48V75H158.479V46.6H163.479L178.039 65.12V46.6H183.839V75ZM195.29 75.44C192.25 75.44 189.716 74.48 187.69 72.56C185.69 70.64 184.69 68.12 184.69 65C184.69 62.0133 185.69 59.5333 187.69 57.56C189.69 55.56 192.196 54.56 195.21 54.56C197.983 54.56 200.316 55.4267 202.21 57.16C204.103 58.8667 205.05 61.28 205.05 64.4C205.05 65.28 205.023 65.9067 204.97 66.28H190.01C190.17 67.5867 190.743 68.6133 191.73 69.36C192.743 70.08 193.943 70.44 195.33 70.44C197.676 70.44 199.396 69.6 200.49 67.92L204.57 70.96C202.516 73.9467 199.423 75.44 195.29 75.44ZM190.21 62.56H199.57C199.33 61.4133 198.783 60.5467 197.93 59.96C197.103 59.3733 196.143 59.08 195.05 59.08C193.93 59.08 192.903 59.3733 191.97 59.96C191.036 60.5467 190.45 61.4133 190.21 62.56ZM222.78 75L219.02 63.64L215.3 75H209.86L203.22 55H209.06L212.86 67.8L216.9 55H221.1L225.18 67.8L228.94 55H234.82L228.22 75H222.78ZM256.33 72.44C254.277 74.44 251.797 75.44 248.89 75.44C245.983 75.44 243.503 74.44 241.45 72.44C239.397 70.4133 238.37 67.9333 238.37 65C238.37 62.0933 239.397 59.6267 241.45 57.6C243.503 55.5733 245.983 54.56 248.89 54.56C251.797 54.56 254.277 55.5733 256.33 57.6C258.383 59.6267 259.41 62.0933 259.41 65C259.41 67.9333 258.383 70.4133 256.33 72.44ZM248.89 70.32C250.303 70.32 251.477 69.8267 252.41 68.84C253.37 67.8267 253.85 66.5467 253.85 65C253.85 63.4533 253.37 62.1867 252.41 61.2C251.477 60.1867 250.303 59.68 248.89 59.68C247.45 59.68 246.25 60.1867 245.29 61.2C244.357 62.1867 243.89 63.4533 243.89 65C243.89 66.5467 244.357 67.8267 245.29 68.84C246.25 69.8267 247.45 70.32 248.89 70.32ZM260.162 75V55H265.642V57.28C266.869 55.4667 268.775 54.56 271.362 54.56C273.762 54.56 275.642 55.36 277.002 56.96C278.389 58.5333 279.082 60.64 279.082 63.28V75H273.602V64.2C273.602 62.7333 273.295 61.6 272.682 60.8C272.069 59.9733 271.202 59.56 270.082 59.56C268.749 59.56 267.669 60.04 266.842 61C266.042 61.96 265.642 63.3733 265.642 65.24V75H260.162ZM287.329 75V46.6H297.729C300.102 46.6 302.102 47.4133 303.729 49.04C305.355 50.64 306.169 52.5733 306.169 54.84C306.169 56.8933 305.422 58.5867 303.929 59.92C306.729 61.3067 308.129 63.5467 308.129 66.64C308.129 69.0133 307.289 71 305.609 72.6C303.929 74.2 301.835 75 299.329 75H287.329ZM293.129 69.68H298.929C300.022 69.68 300.889 69.3867 301.529 68.8C302.169 68.1867 302.489 67.4 302.489 66.44C302.489 65.48 302.169 64.6933 301.529 64.08C300.889 63.4667 300.022 63.16 298.929 63.16H293.129V69.68ZM293.129 58.24H297.169C298.182 58.24 298.995 57.9467 299.609 57.36C300.222 56.7467 300.529 55.9867 300.529 55.08C300.529 54.2 300.209 53.4533 299.569 52.84C298.955 52.2 298.155 51.88 297.169 51.88H293.129V58.24ZM309.48 75V46.6H315.28V75H309.48ZM318.39 75V46.6H324.19V69.48H336.35V75H318.39ZM337.221 75V46.6H346.581C350.661 46.6 354.114 47.9733 356.941 50.72C359.768 53.4667 361.181 56.8267 361.181 60.8C361.181 64.7733 359.768 68.1333 356.941 70.88C354.114 73.6267 350.661 75 346.581 75H337.221ZM343.021 69.68H346.581C349.168 69.68 351.274 68.8267 352.901 67.12C354.528 65.4133 355.341 63.3067 355.341 60.8C355.341 58.2933 354.528 56.1867 352.901 54.48C351.274 52.7733 349.168 51.92 346.581 51.92H343.021V69.68ZM358.284 75L370.524 46.6H375.684L387.964 75H381.884L379.124 68.52H367.004L364.284 75H358.284ZM373.084 54.24L369.164 63.44H376.964L373.084 54.24ZM387.93 75V46.6H398.81C401.397 46.6 403.49 47.4 405.09 49C406.717 50.6 407.53 52.6 407.53 55C407.53 58.7333 405.584 61.2 401.69 62.4L411.89 75H404.89L395.13 63.04H393.73V75H387.93ZM393.73 58.08H398.13C399.25 58.08 400.13 57.8133 400.77 57.28C401.437 56.72 401.77 55.96 401.77 55C401.77 54.04 401.437 53.2933 400.77 52.76C400.13 52.2 399.25 51.92 398.13 51.92H393.73V58.08ZM410.98 75V46.6H428.66V52.12H416.78V57.96H426.26V63.48H416.78V69.48H428.66V75H410.98ZM433.995 64.72V63.96C433.995 61.9867 435.155 60.2 437.475 58.6C437.661 58.4667 437.995 58.24 438.475 57.92C438.981 57.5733 439.328 57.3333 439.515 57.2C439.728 57.04 439.981 56.8133 440.275 56.52C440.568 56.2267 440.768 55.92 440.875 55.6C440.981 55.28 441.035 54.9333 441.035 54.56C441.035 53.6267 440.715 52.8933 440.075 52.36C439.461 51.8 438.675 51.52 437.715 51.52C436.675 51.52 435.781 51.84 435.035 52.48C434.315 53.12 433.955 54 433.955 55.12H428.475C428.475 52.64 429.368 50.52 431.155 48.76C432.941 47 435.128 46.12 437.715 46.12C440.275 46.12 442.381 46.9333 444.035 48.56C445.688 50.16 446.515 52.0533 446.515 54.24C446.515 55.76 446.235 57.0667 445.675 58.16C445.115 59.2533 444.195 60.28 442.915 61.24C442.701 61.4 442.421 61.6 442.075 61.84C441.755 62.08 441.501 62.2667 441.315 62.4C441.155 62.5067 440.955 62.6533 440.715 62.84C440.475 63.0267 440.288 63.1867 440.155 63.32C440.048 63.4267 439.928 63.56 439.795 63.72C439.688 63.88 439.608 64.0267 439.555 64.16C439.501 64.2933 439.475 64.44 439.475 64.6V64.72H433.995ZM436.715 75.32C435.595 75.32 434.648 74.9333 433.875 74.16C433.101 73.3867 432.715 72.44 432.715 71.32C432.715 70.2 433.101 69.2533 433.875 68.48C434.648 67.7067 435.595 67.32 436.715 67.32C437.808 67.32 438.741 67.72 439.515 68.52C440.315 69.2933 440.715 70.2267 440.715 71.32C440.715 72.4133 440.315 73.36 439.515 74.16C438.741 74.9333 437.808 75.32 436.715 75.32Z" fill="#719500"/>
<path d="M40.56 106.192C39.6533 106.192 38.8373 106 38.112 105.616C37.3973 105.232 36.8853 104.741 36.576 104.144L37.776 103.248C38.448 104.283 39.3867 104.8 40.592 104.8C41.2 104.8 41.7013 104.651 42.096 104.352C42.4907 104.043 42.688 103.627 42.688 103.104C42.688 102.229 42.144 101.589 41.056 101.184L39.552 100.608C38.656 100.277 38 99.8667 37.584 99.376C37.1787 98.8747 36.976 98.24 36.976 97.472C36.976 96.5547 37.3067 95.824 37.968 95.28C38.64 94.7253 39.4933 94.448 40.528 94.448C41.2213 94.448 41.856 94.592 42.432 94.88C43.008 95.1573 43.4773 95.5307 43.84 96L42.752 96.96C42.1227 96.2133 41.3707 95.84 40.496 95.84C39.92 95.84 39.4347 95.9893 39.04 96.288C38.6453 96.576 38.448 96.9493 38.448 97.408C38.448 97.8667 38.5813 98.2293 38.848 98.496C39.1147 98.7627 39.552 99.008 40.16 99.232L41.536 99.76C42.4107 100.091 43.0667 100.517 43.504 101.04C43.952 101.563 44.176 102.229 44.176 103.04C44.176 103.989 43.8347 104.752 43.152 105.328C42.48 105.904 41.616 106.192 40.56 106.192ZM48.3694 106.08C47.6334 106.08 47.0414 105.872 46.5934 105.456C46.1454 105.04 45.9214 104.432 45.9214 103.632V99.264H44.2254V98H45.9214V95.776H47.2974V98H49.6014V99.264H47.2974V103.456C47.2974 103.957 47.404 104.309 47.6174 104.512C47.8307 104.715 48.1667 104.816 48.6254 104.816C49.0307 104.816 49.356 104.763 49.6014 104.656V105.888C49.2174 106.016 48.8067 106.08 48.3694 106.08ZM53.9058 106.16C52.7964 106.16 51.8631 105.755 51.1058 104.944C50.3591 104.133 49.9858 103.152 49.9858 102C49.9858 100.848 50.3591 99.8667 51.1058 99.056C51.8631 98.2453 52.7964 97.84 53.9058 97.84C54.4924 97.84 55.0364 97.9733 55.5378 98.24C56.0498 98.496 56.4444 98.8267 56.7218 99.232V98H58.0978V106H56.7218V104.768C56.4444 105.173 56.0498 105.509 55.5378 105.776C55.0364 106.032 54.4924 106.16 53.9058 106.16ZM54.1138 104.896C54.9031 104.896 55.5538 104.619 56.0658 104.064C56.5778 103.509 56.8338 102.821 56.8338 102C56.8338 101.179 56.5778 100.491 56.0658 99.936C55.5538 99.3813 54.9031 99.104 54.1138 99.104C53.3138 99.104 52.6578 99.3813 52.1458 99.936C51.6338 100.491 51.3778 101.179 51.3778 102C51.3778 102.821 51.6338 103.509 52.1458 104.064C52.6578 104.619 53.3138 104.896 54.1138 104.896ZM62.1759 109.344H60.6399L62.3839 105.584L58.8799 98H60.3999L63.1519 104.08L65.8879 98H67.4239L62.1759 109.344ZM74.3139 106.16C73.2045 106.16 72.2712 105.755 71.5139 104.944C70.7672 104.133 70.3939 103.152 70.3939 102C70.3939 100.848 70.7672 99.8667 71.5139 99.056C72.2712 98.2453 73.2045 97.84 74.3139 97.84C74.9005 97.84 75.4445 97.9733 75.9459 98.24C76.4579 98.496 76.8525 98.8267 77.1299 99.232V98H78.5059V106H77.1299V104.768C76.8525 105.173 76.4579 105.509 75.9459 105.776C75.4445 106.032 74.9005 106.16 74.3139 106.16ZM74.5219 104.896C75.3112 104.896 75.9619 104.619 76.4739 104.064C76.9859 103.509 77.2419 102.821 77.2419 102C77.2419 101.179 76.9859 100.491 76.4739 99.936C75.9619 99.3813 75.3112 99.104 74.5219 99.104C73.7219 99.104 73.0659 99.3813 72.5539 99.936C72.0419 100.491 71.7859 101.179 71.7859 102C71.7859 102.821 72.0419 103.509 72.5539 104.064C73.0659 104.619 73.7219 104.896 74.5219 104.896ZM81.832 106H80.456V94H81.832V99.232C82.376 98.304 83.224 97.84 84.376 97.84C85.2827 97.84 86.0133 98.1333 86.568 98.72C87.1227 99.3067 87.4 100.091 87.4 101.072V106H86.04V101.28C86.04 100.608 85.8693 100.08 85.528 99.696C85.1867 99.3013 84.728 99.104 84.152 99.104C83.4907 99.104 82.936 99.3653 82.488 99.888C82.0507 100.411 81.832 101.125 81.832 102.032V106ZM92.7579 106.16C91.5312 106.16 90.5339 105.765 89.7659 104.976C88.9979 104.187 88.6139 103.195 88.6139 102C88.6139 100.816 89.0032 99.8293 89.7819 99.04C90.5605 98.24 91.5579 97.84 92.7739 97.84C93.8512 97.84 94.7525 98.2027 95.4779 98.928C96.2139 99.6427 96.5819 100.619 96.5819 101.856C96.5819 102.016 96.5765 102.155 96.5659 102.272H90.0059C90.0272 103.019 90.2939 103.643 90.8059 104.144C91.3285 104.645 91.9845 104.896 92.7739 104.896C93.8939 104.896 94.7259 104.432 95.2699 103.504L96.3579 104.256C95.5792 105.525 94.3792 106.16 92.7579 106.16ZM90.1019 101.152H95.1739C95.0672 100.512 94.7845 100.005 94.3259 99.632C93.8779 99.248 93.3445 99.056 92.7259 99.056C92.0965 99.056 91.5312 99.248 91.0299 99.632C90.5392 100.005 90.2299 100.512 90.1019 101.152ZM101.191 106.16C100.081 106.16 99.1481 105.755 98.3908 104.944C97.6441 104.133 97.2708 103.152 97.2708 102C97.2708 100.848 97.6441 99.8667 98.3908 99.056C99.1481 98.2453 100.081 97.84 101.191 97.84C101.777 97.84 102.321 97.9733 102.823 98.24C103.335 98.496 103.729 98.8267 104.007 99.232V98H105.383V106H104.007V104.768C103.729 105.173 103.335 105.509 102.823 105.776C102.321 106.032 101.777 106.16 101.191 106.16ZM101.399 104.896C102.188 104.896 102.839 104.619 103.351 104.064C103.863 103.509 104.119 102.821 104.119 102C104.119 101.179 103.863 100.491 103.351 99.936C102.839 99.3813 102.188 99.104 101.399 99.104C100.599 99.104 99.9428 99.3813 99.4308 99.936C98.9188 100.491 98.6628 101.179 98.6628 102C98.6628 102.821 98.9188 103.509 99.4308 104.064C99.9428 104.619 100.599 104.896 101.399 104.896ZM110.629 106.16C109.52 106.16 108.586 105.755 107.829 104.944C107.082 104.133 106.709 103.152 106.709 102C106.709 100.848 107.082 99.8667 107.829 99.056C108.586 98.2453 109.52 97.84 110.629 97.84C111.216 97.84 111.76 97.9733 112.261 98.24C112.773 98.496 113.168 98.8267 113.445 99.232V94H114.821V106H113.445V104.768C113.168 105.173 112.773 105.509 112.261 105.776C111.76 106.032 111.216 106.16 110.629 106.16ZM110.837 104.896C111.626 104.896 112.277 104.619 112.789 104.064C113.301 103.509 113.557 102.821 113.557 102C113.557 101.179 113.301 100.491 112.789 99.936C112.277 99.3813 111.626 99.104 110.837 99.104C110.037 99.104 109.381 99.3813 108.869 99.936C108.357 100.491 108.101 101.179 108.101 102C108.101 102.821 108.357 103.509 108.869 104.064C109.381 104.619 110.037 104.896 110.837 104.896ZM123.542 106.16C122.337 106.16 121.334 105.76 120.534 104.96C119.745 104.149 119.35 103.163 119.35 102C119.35 100.837 119.745 99.856 120.534 99.056C121.334 98.2453 122.337 97.84 123.542 97.84C124.737 97.84 125.729 98.2453 126.518 99.056C127.318 99.856 127.718 100.837 127.718 102C127.718 103.163 127.318 104.149 126.518 104.96C125.729 105.76 124.737 106.16 123.542 106.16ZM121.526 104.048C122.049 104.603 122.721 104.88 123.542 104.88C124.364 104.88 125.03 104.603 125.542 104.048C126.054 103.493 126.31 102.811 126.31 102C126.31 101.189 126.054 100.507 125.542 99.952C125.03 99.3973 124.364 99.12 123.542 99.12C122.721 99.12 122.049 99.3973 121.526 99.952C121.014 100.507 120.758 101.189 120.758 102C120.758 102.811 121.014 103.493 121.526 104.048ZM129.6 106V99.264H127.904V98H129.6V96.384C129.6 95.584 129.824 94.9707 130.272 94.544C130.72 94.1173 131.312 93.904 132.049 93.904C132.486 93.904 132.902 93.9733 133.296 94.112V95.328C133.051 95.2213 132.721 95.168 132.305 95.168C131.846 95.168 131.51 95.2693 131.296 95.472C131.083 95.6747 130.976 96.0267 130.976 96.528V98H133.296V99.264H130.976V106H129.6ZM138.714 109.344H137.178L138.922 105.584L135.418 98H136.938L139.69 104.08L142.426 98H143.962L138.714 109.344ZM148.076 106.16C146.871 106.16 145.868 105.76 145.068 104.96C144.279 104.149 143.884 103.163 143.884 102C143.884 100.837 144.279 99.856 145.068 99.056C145.868 98.2453 146.871 97.84 148.076 97.84C149.271 97.84 150.263 98.2453 151.052 99.056C151.852 99.856 152.252 100.837 152.252 102C152.252 103.163 151.852 104.149 151.052 104.96C150.263 105.76 149.271 106.16 148.076 106.16ZM146.06 104.048C146.583 104.603 147.255 104.88 148.076 104.88C148.897 104.88 149.564 104.603 150.076 104.048C150.588 103.493 150.844 102.811 150.844 102C150.844 101.189 150.588 100.507 150.076 99.952C149.564 99.3973 148.897 99.12 148.076 99.12C147.255 99.12 146.583 99.3973 146.06 99.952C145.548 100.507 145.292 101.189 145.292 102C145.292 102.811 145.548 103.493 146.06 104.048ZM156.419 106.16C155.545 106.16 154.835 105.867 154.291 105.28C153.747 104.683 153.475 103.893 153.475 102.912V98H154.851V102.704C154.851 103.376 155.011 103.909 155.331 104.304C155.662 104.699 156.105 104.896 156.659 104.896C157.299 104.896 157.827 104.635 158.243 104.112C158.67 103.579 158.883 102.864 158.883 101.968V98H160.259V106H158.883V104.768C158.361 105.696 157.539 106.16 156.419 106.16ZM162.213 106V98H163.589V99.552C163.738 99.0613 164.026 98.6667 164.453 98.368C164.89 98.0693 165.349 97.92 165.829 97.92C166.064 97.92 166.272 97.9413 166.453 97.984V99.408C166.261 99.3227 166.01 99.28 165.701 99.28C165.146 99.28 164.656 99.52 164.229 100C163.802 100.48 163.589 101.157 163.589 102.032V106H162.213ZM173.084 106.08C172.348 106.08 171.756 105.872 171.308 105.456C170.86 105.04 170.636 104.432 170.636 103.632V99.264H168.94V98H170.636V95.776H172.012V98H174.316V99.264H172.012V103.456C172.012 103.957 172.118 104.309 172.332 104.512C172.545 104.715 172.881 104.816 173.34 104.816C173.745 104.816 174.07 104.763 174.316 104.656V105.888C173.932 106.016 173.521 106.08 173.084 106.08ZM176.825 95.584C176.644 95.7653 176.415 95.856 176.137 95.856C175.86 95.856 175.625 95.7653 175.433 95.584C175.241 95.392 175.145 95.1573 175.145 94.88C175.145 94.6133 175.241 94.384 175.433 94.192C175.625 94 175.86 93.904 176.137 93.904C176.415 93.904 176.644 94 176.825 94.192C177.007 94.384 177.097 94.6133 177.097 94.88C177.097 95.1573 177.007 95.392 176.825 95.584ZM175.433 106V98H176.809V106H175.433ZM189.082 106V101.296C189.082 100.635 188.943 100.107 188.666 99.712C188.399 99.3067 188.01 99.104 187.498 99.104C186.858 99.104 186.335 99.3547 185.93 99.856C185.535 100.357 185.327 101.04 185.306 101.904V106H183.93V101.296C183.93 100.624 183.791 100.091 183.514 99.696C183.247 99.3013 182.863 99.104 182.362 99.104C181.701 99.104 181.167 99.3707 180.762 99.904C180.357 100.427 180.154 101.136 180.154 102.032V106H178.778V98H180.154V99.232C180.666 98.304 181.471 97.84 182.57 97.84C183.786 97.84 184.607 98.4107 185.034 99.552C185.247 99.0293 185.589 98.6133 186.058 98.304C186.527 97.9947 187.061 97.84 187.658 97.84C188.522 97.84 189.205 98.1333 189.706 98.72C190.207 99.3067 190.458 100.096 190.458 101.088V106H189.082ZM195.814 106.16C194.587 106.16 193.59 105.765 192.822 104.976C192.054 104.187 191.67 103.195 191.67 102C191.67 100.816 192.059 99.8293 192.838 99.04C193.617 98.24 194.614 97.84 195.83 97.84C196.907 97.84 197.809 98.2027 198.534 98.928C199.27 99.6427 199.638 100.619 199.638 101.856C199.638 102.016 199.633 102.155 199.622 102.272H193.062C193.083 103.019 193.35 103.643 193.862 104.144C194.385 104.645 195.041 104.896 195.83 104.896C196.95 104.896 197.782 104.432 198.326 103.504L199.414 104.256C198.635 105.525 197.435 106.16 195.814 106.16ZM193.158 101.152H198.23C198.123 100.512 197.841 100.005 197.382 99.632C196.934 99.248 196.401 99.056 195.782 99.056C195.153 99.056 194.587 99.248 194.086 99.632C193.595 100.005 193.286 100.512 193.158 101.152ZM200.951 106V94H202.327V106H200.951ZM205.687 95.584C205.506 95.7653 205.277 95.856 204.999 95.856C204.722 95.856 204.487 95.7653 204.295 95.584C204.103 95.392 204.007 95.1573 204.007 94.88C204.007 94.6133 204.103 94.384 204.295 94.192C204.487 94 204.722 93.904 204.999 93.904C205.277 93.904 205.506 94 205.687 94.192C205.869 94.384 205.959 94.6133 205.959 94.88C205.959 95.1573 205.869 95.392 205.687 95.584ZM204.295 106V98H205.671V106H204.295ZM207.64 106V98H209.016V99.232C209.56 98.304 210.408 97.84 211.56 97.84C212.466 97.84 213.197 98.1333 213.752 98.72C214.306 99.3067 214.584 100.091 214.584 101.072V106H213.224V101.28C213.224 100.608 213.053 100.08 212.712 99.696C212.37 99.3013 211.912 99.104 211.336 99.104C210.674 99.104 210.12 99.3653 209.672 99.888C209.234 100.411 209.016 101.125 209.016 102.032V106H207.64ZM219.942 106.16C218.715 106.16 217.718 105.765 216.95 104.976C216.182 104.187 215.798 103.195 215.798 102C215.798 100.816 216.187 99.8293 216.966 99.04C217.744 98.24 218.742 97.84 219.958 97.84C221.035 97.84 221.936 98.2027 222.662 98.928C223.398 99.6427 223.766 100.619 223.766 101.856C223.766 102.016 223.76 102.155 223.75 102.272H217.19C217.211 103.019 217.478 103.643 217.99 104.144C218.512 104.645 219.168 104.896 219.958 104.896C221.078 104.896 221.91 104.432 222.454 103.504L223.542 104.256C222.763 105.525 221.563 106.16 219.942 106.16ZM217.286 101.152H222.358C222.251 100.512 221.968 100.005 221.51 99.632C221.062 99.248 220.528 99.056 219.91 99.056C219.28 99.056 218.715 99.248 218.214 99.632C217.723 100.005 217.414 100.512 217.286 101.152ZM226.791 105.648L225.143 108.288H224.231L225.303 106C224.865 105.787 224.647 105.429 224.647 104.928C224.647 104.608 224.764 104.331 224.999 104.096C225.233 103.851 225.511 103.728 225.831 103.728C226.151 103.728 226.428 103.851 226.663 104.096C226.897 104.331 227.015 104.608 227.015 104.928C227.015 105.163 226.94 105.403 226.791 105.648ZM233.684 106.192C232.713 106.192 231.908 105.909 231.268 105.344C230.628 104.768 230.308 103.973 230.308 102.96H231.78C231.78 103.536 231.961 103.989 232.324 104.32C232.697 104.651 233.145 104.816 233.668 104.816C234.212 104.816 234.66 104.645 235.012 104.304C235.364 103.963 235.54 103.429 235.54 102.704V94.64H237.012V102.864C237.012 103.984 236.697 104.821 236.068 105.376C235.438 105.92 234.644 106.192 233.684 106.192ZM241.772 106.16C240.897 106.16 240.188 105.867 239.644 105.28C239.1 104.683 238.828 103.893 238.828 102.912V98H240.204V102.704C240.204 103.376 240.364 103.909 240.684 104.304C241.014 104.699 241.457 104.896 242.012 104.896C242.652 104.896 243.18 104.635 243.596 104.112C244.022 103.579 244.236 102.864 244.236 101.968V98H245.612V106H244.236V104.768C243.713 105.696 242.892 106.16 241.772 106.16ZM249.981 106.16C249.245 106.16 248.6 106.005 248.045 105.696C247.491 105.376 247.091 104.912 246.845 104.304L247.965 103.68C248.115 104.075 248.376 104.384 248.749 104.608C249.123 104.832 249.539 104.944 249.997 104.944C250.392 104.944 250.723 104.848 250.989 104.656C251.256 104.464 251.389 104.203 251.389 103.872C251.389 103.584 251.283 103.344 251.069 103.152C250.867 102.96 250.509 102.784 249.997 102.624L249.197 102.368C247.864 101.984 247.197 101.205 247.197 100.032C247.197 99.3707 247.459 98.8427 247.981 98.448C248.515 98.0427 249.171 97.84 249.949 97.84C251.165 97.84 252.045 98.304 252.589 99.232L251.565 99.936C251.128 99.328 250.573 99.024 249.901 99.024C249.539 99.024 249.224 99.1147 248.957 99.296C248.701 99.4667 248.573 99.696 248.573 99.984C248.573 100.251 248.653 100.48 248.813 100.672C248.984 100.853 249.283 101.008 249.709 101.136L250.589 101.408C252.04 101.856 252.765 102.64 252.765 103.76C252.765 104.507 252.504 105.093 251.981 105.52C251.469 105.947 250.803 106.16 249.981 106.16ZM257.154 106.08C256.418 106.08 255.826 105.872 255.378 105.456C254.93 105.04 254.706 104.432 254.706 103.632V99.264H253.01V98H254.706V95.776H256.082V98H258.386V99.264H256.082V103.456C256.082 103.957 256.189 104.309 256.402 104.512C256.616 104.715 256.952 104.816 257.41 104.816C257.816 104.816 258.141 104.763 258.386 104.656V105.888C258.002 106.016 257.592 106.08 257.154 106.08ZM262.932 106V94.64H266.66C267.684 94.64 268.505 94.9333 269.124 95.52C269.742 96.1067 270.052 96.816 270.052 97.648C270.052 98.6933 269.646 99.4667 268.836 99.968C270.148 100.448 270.804 101.355 270.804 102.688C270.804 103.648 270.452 104.443 269.748 105.072C269.054 105.691 268.137 106 266.996 106H262.932ZM264.42 104.656H267.06C267.806 104.656 268.372 104.485 268.756 104.144C269.15 103.792 269.348 103.323 269.348 102.736C269.348 102.16 269.15 101.696 268.756 101.344C268.372 100.981 267.812 100.8 267.076 100.8H264.42V104.656ZM264.42 99.52H266.66C267.257 99.52 267.726 99.36 268.068 99.04C268.42 98.7093 268.596 98.2827 268.596 97.76C268.596 97.2587 268.42 96.8373 268.068 96.496C267.716 96.1547 267.246 95.984 266.66 95.984H264.42V99.52ZM274.962 106.16C274.088 106.16 273.378 105.867 272.834 105.28C272.29 104.683 272.018 103.893 272.018 102.912V98H273.394V102.704C273.394 103.376 273.554 103.909 273.874 104.304C274.205 104.699 274.648 104.896 275.202 104.896C275.842 104.896 276.37 104.635 276.786 104.112C277.213 103.579 277.426 102.864 277.426 101.968V98H278.802V106H277.426V104.768C276.904 105.696 276.082 106.16 274.962 106.16ZM282.148 95.584C281.967 95.7653 281.737 95.856 281.46 95.856C281.183 95.856 280.948 95.7653 280.756 95.584C280.564 95.392 280.468 95.1573 280.468 94.88C280.468 94.6133 280.564 94.384 280.756 94.192C280.948 94 281.183 93.904 281.46 93.904C281.737 93.904 281.967 94 282.148 94.192C282.329 94.384 282.42 94.6133 282.42 94.88C282.42 95.1573 282.329 95.392 282.148 95.584ZM280.756 106V98H282.132V106H280.756ZM284.1 106V94H285.476V106H284.1ZM290.741 106.16C289.631 106.16 288.698 105.755 287.941 104.944C287.194 104.133 286.821 103.152 286.821 102C286.821 100.848 287.194 99.8667 287.941 99.056C288.698 98.2453 289.631 97.84 290.741 97.84C291.327 97.84 291.871 97.9733 292.373 98.24C292.885 98.496 293.279 98.8267 293.557 99.232V94H294.933V106H293.557V104.768C293.279 105.173 292.885 105.509 292.373 105.776C291.871 106.032 291.327 106.16 290.741 106.16ZM290.949 104.896C291.738 104.896 292.389 104.619 292.901 104.064C293.413 103.509 293.669 102.821 293.669 102C293.669 101.179 293.413 100.491 292.901 99.936C292.389 99.3813 291.738 99.104 290.949 99.104C290.149 99.104 289.493 99.3813 288.981 99.936C288.469 100.491 288.213 101.179 288.213 102C288.213 102.821 288.469 103.509 288.981 104.064C289.493 104.619 290.149 104.896 290.949 104.896ZM301.494 95.584C301.313 95.7653 301.084 95.856 300.806 95.856C300.529 95.856 300.294 95.7653 300.102 95.584C299.91 95.392 299.814 95.1573 299.814 94.88C299.814 94.6133 299.91 94.384 300.102 94.192C300.294 94 300.529 93.904 300.806 93.904C301.084 93.904 301.313 94 301.494 94.192C301.676 94.384 301.766 94.6133 301.766 94.88C301.766 95.1573 301.676 95.392 301.494 95.584ZM300.102 106V98H301.478V106H300.102ZM306.551 106.08C305.815 106.08 305.223 105.872 304.775 105.456C304.327 105.04 304.103 104.432 304.103 103.632V99.264H302.407V98H304.103V95.776H305.479V98H307.783V99.264H305.479V103.456C305.479 103.957 305.585 104.309 305.799 104.512C306.012 104.715 306.348 104.816 306.807 104.816C307.212 104.816 307.537 104.763 307.783 104.656V105.888C307.399 106.016 306.988 106.08 306.551 106.08ZM309.348 102.448L309.076 99.184V94.64H310.468V99.184L310.196 102.448H309.348ZM310.596 105.776C310.372 106.011 310.095 106.128 309.764 106.128C309.434 106.128 309.151 106.011 308.916 105.776C308.692 105.541 308.58 105.259 308.58 104.928C308.58 104.608 308.698 104.331 308.932 104.096C309.167 103.851 309.444 103.728 309.764 103.728C310.084 103.728 310.362 103.851 310.596 104.096C310.831 104.331 310.948 104.608 310.948 104.928C310.948 105.259 310.831 105.541 310.596 105.776Z" fill="black"/>
<rect x="36" y="129" width="164" height="42" rx="16" fill="#B9F500"/>
<path d="M58.612 146.9C58.4516 146.419 58.0741 146.041 57.593 145.881C57.1034 145.717 57.1034 145.025 57.593 144.862C58.0741 144.701 58.4516 144.324 58.612 143.843C58.7752 143.353 59.4677 143.353 59.6309 143.843C59.7913 144.324 60.1688 144.701 60.6499 144.862C61.1395 145.025 61.1395 145.717 60.6499 145.881C60.1688 146.041 59.7913 146.419 59.6309 146.9C59.4677 147.389 58.7752 147.389 58.612 146.9Z" fill="black"/>
<path d="M58.7236 156.549C58.4029 155.587 57.6479 154.832 56.6857 154.511C55.7065 154.185 55.7065 152.8 56.6857 152.474C57.6479 152.153 58.4029 151.398 58.7236 150.436C59.05 149.456 60.4351 149.456 60.7615 150.436C61.0822 151.398 61.8372 152.153 62.7994 152.474C63.7786 152.8 63.7786 154.185 62.7994 154.511C61.8372 154.832 61.0822 155.587 60.7615 156.549C60.4351 157.529 59.05 157.529 58.7236 156.549Z" fill="black"/>
<path d="M64.6394 149.446C65.361 149.687 65.9273 150.253 66.1678 150.975C66.4126 151.709 67.4514 151.709 67.6962 150.975C67.9368 150.253 68.503 149.687 69.2246 149.446C69.9591 149.201 69.9591 148.162 69.2246 147.918C68.503 147.677 67.9368 147.111 67.6962 146.389C67.4514 145.655 66.4126 145.655 66.1678 146.389C65.9273 147.111 65.361 147.677 64.6394 147.918C63.905 148.162 63.905 149.201 64.6394 149.446Z" fill="black"/>
<path d="M86.004 155.168C85.22 155.168 84.506 155.014 83.862 154.706C83.2273 154.389 82.7327 153.95 82.378 153.39L83.932 152.088C84.1747 152.452 84.4873 152.741 84.87 152.956C85.262 153.161 85.668 153.264 86.088 153.264C86.4893 153.264 86.8113 153.175 87.054 152.998C87.2967 152.821 87.418 152.587 87.418 152.298C87.418 152.018 87.3107 151.775 87.096 151.57C86.8813 151.365 86.5267 151.178 86.032 151.01L85.192 150.716C83.5587 150.147 82.742 149.199 82.742 147.874C82.742 146.959 83.0547 146.236 83.68 145.704C84.3053 145.163 85.1127 144.892 86.102 144.892C87.3713 144.892 88.4167 145.349 89.238 146.264L87.894 147.65C87.418 147.081 86.8253 146.796 86.116 146.796C85.752 146.796 85.4393 146.875 85.178 147.034C84.9167 147.183 84.786 147.398 84.786 147.678C84.786 147.967 84.898 148.196 85.122 148.364C85.3553 148.532 85.7567 148.719 86.326 148.924L87.124 149.218C88.7013 149.806 89.49 150.791 89.49 152.172C89.49 153.059 89.1633 153.782 88.51 154.342C87.866 154.893 87.0307 155.168 86.004 155.168ZM93.624 155.154C92.56 155.154 91.6734 154.818 90.964 154.146C90.264 153.474 89.914 152.592 89.914 151.5C89.914 150.455 90.264 149.587 90.964 148.896C91.664 148.196 92.5414 147.846 93.596 147.846C94.5667 147.846 95.3834 148.149 96.046 148.756C96.7087 149.353 97.04 150.198 97.04 151.29C97.04 151.598 97.0307 151.817 97.012 151.948H91.776C91.832 152.405 92.0327 152.765 92.378 153.026C92.7327 153.278 93.1527 153.404 93.638 153.404C94.4594 153.404 95.0614 153.11 95.444 152.522L96.872 153.586C96.1534 154.631 95.0707 155.154 93.624 155.154ZM91.846 150.646H95.122C95.038 150.245 94.8467 149.941 94.548 149.736C94.2587 149.531 93.9227 149.428 93.54 149.428C93.148 149.428 92.7887 149.531 92.462 149.736C92.1354 149.941 91.93 150.245 91.846 150.646ZM101.158 155.154C100.094 155.154 99.2071 154.818 98.4978 154.146C97.7978 153.474 97.4478 152.592 97.4478 151.5C97.4478 150.455 97.7978 149.587 98.4978 148.896C99.1978 148.196 100.075 147.846 101.13 147.846C102.1 147.846 102.917 148.149 103.58 148.756C104.242 149.353 104.574 150.198 104.574 151.29C104.574 151.598 104.564 151.817 104.546 151.948H99.3098C99.3658 152.405 99.5665 152.765 99.9118 153.026C100.266 153.278 100.686 153.404 101.172 153.404C101.993 153.404 102.595 153.11 102.978 152.522L104.406 153.586C103.687 154.631 102.604 155.154 101.158 155.154ZM99.3798 150.646H102.656C102.572 150.245 102.38 149.941 102.082 149.736C101.792 149.531 101.456 149.428 101.074 149.428C100.682 149.428 100.322 149.531 99.9958 149.736C99.6691 149.941 99.4638 150.245 99.3798 150.646ZM115.789 155L113.605 149.722L111.421 155H109.517L107.123 145.06H109.279L110.791 151.668L113.605 144.892L116.419 151.668L117.931 145.06H120.087L117.693 155H115.789ZM122.606 155H120.688V144.5H122.606V148.798C123.036 148.163 123.703 147.846 124.608 147.846C125.448 147.846 126.106 148.126 126.582 148.686C127.068 149.237 127.31 149.974 127.31 150.898V155H125.392V151.22C125.392 150.707 125.285 150.31 125.07 150.03C124.856 149.741 124.552 149.596 124.16 149.596C123.694 149.596 123.316 149.764 123.026 150.1C122.746 150.436 122.606 150.931 122.606 151.584V155ZM131.351 155.154C130.427 155.154 129.648 154.795 129.013 154.076C128.379 153.357 128.061 152.499 128.061 151.5C128.061 150.501 128.379 149.643 129.013 148.924C129.648 148.205 130.427 147.846 131.351 147.846C131.799 147.846 132.201 147.939 132.555 148.126C132.91 148.313 133.181 148.532 133.367 148.784V148H135.285V155H133.367V154.216C133.181 154.468 132.91 154.687 132.555 154.874C132.201 155.061 131.799 155.154 131.351 155.154ZM130.469 152.872C130.796 153.227 131.225 153.404 131.757 153.404C132.289 153.404 132.714 153.227 133.031 152.872C133.358 152.517 133.521 152.06 133.521 151.5C133.521 150.94 133.358 150.483 133.031 150.128C132.714 149.773 132.289 149.596 131.757 149.596C131.225 149.596 130.796 149.773 130.469 150.128C130.152 150.483 129.993 150.94 129.993 151.5C129.993 152.06 130.152 152.517 130.469 152.872ZM139.978 155.084C139.194 155.084 138.55 154.869 138.046 154.44C137.551 154.001 137.304 153.371 137.304 152.55V149.68H135.89V148H137.304V146.054H139.222V148H141.196V149.68H139.222V152.172C139.222 152.601 139.315 152.909 139.502 153.096C139.689 153.273 139.992 153.362 140.412 153.362C140.711 153.362 140.972 153.32 141.196 153.236V154.93C140.86 155.033 140.454 155.084 139.978 155.084ZM144.385 147.188L142.817 149.708H141.683L142.719 147.58C142.485 147.487 142.285 147.323 142.117 147.09C141.958 146.847 141.879 146.581 141.879 146.292C141.879 145.9 142.014 145.569 142.285 145.298C142.555 145.027 142.887 144.892 143.279 144.892C143.671 144.892 144.002 145.027 144.273 145.298C144.543 145.569 144.679 145.9 144.679 146.292C144.679 146.591 144.581 146.889 144.385 147.188ZM147.338 155.154C146.012 155.154 145.051 154.706 144.454 153.81L145.77 152.69C146.106 153.231 146.628 153.502 147.338 153.502C147.552 153.502 147.734 153.46 147.884 153.376C148.033 153.292 148.108 153.166 148.108 152.998C148.108 152.849 148.042 152.727 147.912 152.634C147.79 152.531 147.543 152.429 147.17 152.326L146.652 152.2C146.008 152.032 145.518 151.752 145.182 151.36C144.855 150.968 144.701 150.501 144.72 149.96C144.738 149.325 144.99 148.817 145.476 148.434C145.97 148.042 146.596 147.846 147.352 147.846C148.425 147.846 149.232 148.238 149.774 149.022L148.514 150.044C148.187 149.633 147.79 149.428 147.324 149.428C147.137 149.428 146.974 149.47 146.834 149.554C146.694 149.638 146.624 149.755 146.624 149.904C146.624 150.184 146.852 150.385 147.31 150.506L147.968 150.702C149.321 151.066 149.998 151.789 149.998 152.872C149.998 153.535 149.746 154.081 149.242 154.51C148.738 154.939 148.103 155.154 147.338 155.154ZM162.535 155H160.785L155.689 148.518V155H153.659V145.06H155.409L160.505 151.542V145.06H162.535V155ZM167.103 155.154C166.039 155.154 165.152 154.818 164.443 154.146C163.743 153.474 163.393 152.592 163.393 151.5C163.393 150.455 163.743 149.587 164.443 148.896C165.143 148.196 166.02 147.846 167.075 147.846C168.045 147.846 168.862 148.149 169.525 148.756C170.187 149.353 170.519 150.198 170.519 151.29C170.519 151.598 170.509 151.817 170.491 151.948H165.255C165.311 152.405 165.511 152.765 165.857 153.026C166.211 153.278 166.631 153.404 167.117 153.404C167.938 153.404 168.54 153.11 168.923 152.522L170.351 153.586C169.632 154.631 168.549 155.154 167.103 155.154ZM165.325 150.646H168.601C168.517 150.245 168.325 149.941 168.027 149.736C167.737 149.531 167.401 149.428 167.019 149.428C166.627 149.428 166.267 149.531 165.941 149.736C165.614 149.941 165.409 150.245 165.325 150.646ZM177.284 155L175.968 151.024L174.666 155H172.762L170.438 148H172.482L173.812 152.48L175.226 148H176.696L178.124 152.48L179.44 148H181.498L179.188 155H177.284Z" fill="black"/>
<g clip-path="url(#clip1_662_1988)">
<path d="M674.874 94.3898C674.768 89.4695 674.596 84.572 674.351 79.6963C674.017 72.9253 673.557 66.2093 672.957 59.5773L669.817 55.518L669.672 55.4838C641.996 48.8663 609.03 46 578.292 46C544.012 46.001 512.511 49.5634 494.188 55.4869L494.058 55.5294L494.045 55.6663C493.039 66.8462 492.405 78.2699 492.144 89.7766L492.139 90.0266C492.047 94.0755 492 98.1358 492 102.201C492 124.44 493.381 146.809 496.135 168.24L496.153 168.379L499.674 172.104V172.105C541.751 183.08 618.026 189.801 670.868 172.105C671.596 166.435 672.229 160.697 672.757 154.916C674.19 139.506 674.935 123.766 674.996 108.073C675.012 103.508 674.974 98.9439 674.874 94.3908V94.3898Z" fill="#1C1D19"/>
<path d="M671.337 90.6759C641.077 85.6187 610.396 83.0864 579.715 83.0864C575.882 83.0864 572.048 83.1258 568.216 83.2057C548.055 83.6217 527.917 85.1311 507.922 87.737C502.79 88.4061 497.667 89.1468 492.557 89.9601C492.463 94.0319 492.417 98.114 492.417 102.201C492.417 124.374 493.79 146.677 496.53 168.047C519.914 174.13 553.834 178.9 588.405 178.9C615.975 178.9 643.96 175.867 667.346 168.057C668.061 162.47 668.684 156.82 669.213 151.123C670.649 135.655 671.398 119.855 671.456 104.106C671.458 103.452 671.459 102.8 671.459 102.146C671.459 98.3173 671.417 94.4925 671.337 90.677V90.6759ZM509.941 127.751L510.056 127.616C512.964 124.208 516.272 120.516 519.785 116.777C528.229 107.778 537.832 98.4916 545.75 92.148L545.829 92.0847L545.927 92.1075C547.635 92.5059 549.756 93.6366 551.634 95.369C553.511 97.1025 555.144 99.4408 555.838 102.257L555.866 102.369H555.865L556.191 104.53C549.554 111.33 540.454 120.527 532.102 129C540.347 137.354 549.259 146.359 555.785 153.054L555.866 153.137L555.838 153.249C555.721 153.721 555.578 154.179 555.413 154.624C555.676 154.894 555.935 155.16 556.191 155.422C555.69 157.459 554.686 159.246 553.45 160.729C551.331 163.275 548.535 164.929 546.435 165.413C538.53 159.08 528.931 149.796 520.492 140.804C516.981 137.067 513.675 133.377 510.77 129.973L510.429 129.06L509.941 127.75V127.749V127.751ZM562.413 164.653C562.083 164.396 561.763 164.125 561.453 163.837L560.656 161.675H560.658L560.699 161.549C568.794 136.833 578.823 112.751 590.661 89.596L590.707 89.5058L590.805 89.486C591.825 89.2817 592.868 89.1748 593.899 89.1748C595.907 89.1748 597.876 89.5773 599.557 90.4487C601.214 91.3067 602.592 92.6262 603.433 94.4541C603.446 94.4821 603.459 94.5091 603.472 94.5371L603.509 94.6211L603.838 96.8463C593.863 120.04 583.493 144.571 574.96 168.333C570.459 168.457 565.922 167.391 562.412 164.653H562.413ZM609.121 156.52C608.999 156.169 608.892 155.811 608.801 155.445C608.486 154.751 608.228 154.019 608.038 153.252L608.01 153.14L608.091 153.057C614.668 146.309 623.668 137.215 631.968 128.806C632.089 128.684 632.209 128.561 632.329 128.439C624.131 120.123 615.286 111.182 608.795 104.532L608.734 104.363L608.009 102.372H608.01L608.038 102.26C608.73 99.4449 610.364 97.1056 612.242 95.3722C614.121 93.6387 616.241 92.5079 617.949 92.1106L618.048 92.0878L618.126 92.1511C626.044 98.4947 635.648 107.782 644.092 116.78C647.605 120.519 650.913 124.211 653.821 127.619L653.936 127.754L654.219 129.978C654.201 129.999 654.182 130.021 654.165 130.042C651.273 133.428 647.987 137.096 644.497 140.81C636.059 149.802 626.459 159.085 618.554 165.418C615.456 164.704 610.837 161.442 609.123 156.522L609.121 156.52Z" fill="#C5F72B"/>
<path d="M671.261 87.5223C671.002 77.9006 670.481 68.3473 669.699 58.9527C669.613 57.9174 669.522 56.8842 669.43 55.853C641.829 49.2729 608.95 46.417 578.292 46.417C544.126 46.417 512.71 49.9659 494.447 55.8416C494.154 59.1104 493.893 62.401 493.664 65.7082C493.578 66.9458 493.496 68.1854 493.419 69.4272C493.376 70.1357 493.333 70.8453 493.292 71.5559C493.271 71.9107 493.251 72.2665 493.232 72.6213C493.192 73.3319 493.154 74.0436 493.117 74.7562C493.081 75.4689 493.046 76.1816 493.012 76.8943C492.991 77.3352 492.97 77.7771 492.951 78.218C492.872 79.9836 492.801 81.7534 492.74 83.5252C492.695 84.8541 492.653 86.1851 492.618 87.5161C492.599 88.1893 492.583 88.8626 492.567 89.5358C521.375 84.9558 550.545 82.6694 579.715 82.6694C610.393 82.6694 641.071 85.1996 671.327 90.2516C671.308 89.3419 671.286 88.431 671.261 87.5223ZM513.169 78.8083C510.644 78.8083 508.346 77.8331 506.631 76.2376C504.744 74.4824 503.564 71.9771 503.564 69.1948C503.564 66.0837 505.041 63.318 507.331 61.5607C508.949 60.319 510.973 59.5814 513.169 59.5814C513.601 59.5814 514.027 59.6104 514.445 59.6654C517.411 60.0596 519.949 61.8066 521.419 64.2673C522.281 65.7082 522.775 67.3929 522.775 69.1938C522.775 74.5031 518.474 78.8062 513.169 78.8072V78.8083ZM541.842 75.7355C539.879 75.7355 538.052 75.1463 536.531 74.1338C533.943 72.4118 532.237 69.4666 532.237 66.1231C532.237 60.8138 536.537 56.5107 541.842 56.5107C544.845 56.5107 547.527 57.8905 549.288 60.0503C550.638 61.706 551.447 63.8201 551.447 66.1231C551.447 71.4325 547.148 75.7355 541.842 75.7355ZM570.516 75.2065C568.97 75.2065 567.509 74.8403 566.215 74.1909C563.069 72.612 560.911 69.3546 560.911 65.593C560.911 60.2837 565.212 55.9806 570.517 55.9806C573.183 55.9806 575.595 57.0678 577.335 58.822C579.058 60.5596 580.123 62.9519 580.123 65.593C580.123 70.9024 575.822 75.2054 570.517 75.2065H570.516Z" fill="#E2FB96"/>
<path d="M555.405 102.245C554.721 99.5758 553.157 97.3412 551.352 95.6762C549.561 94.0216 547.531 92.9324 545.931 92.5371C538.053 98.8589 528.493 108.105 520.088 117.062C516.626 120.748 513.364 124.387 510.489 127.751C513.364 131.114 516.626 134.754 520.088 138.44C521.916 140.387 523.799 142.349 525.706 144.291C532.572 151.28 539.766 158.018 545.931 162.965C547.53 162.573 549.561 161.484 551.351 159.829C553.156 158.164 554.72 155.93 555.404 153.262C553.313 151.118 550.981 148.738 548.504 146.222C542.831 140.453 536.407 133.96 530.432 127.904L530.288 127.757L530.432 127.611C539.009 118.907 548.517 109.3 555.404 102.246L555.405 102.245Z" fill="#2E2E2E"/>
<path d="M599.367 90.819C597.757 89.9839 595.852 89.5918 593.9 89.5918C592.93 89.5918 591.949 89.6893 590.987 89.875C581.879 107.697 573.845 126.069 566.94 144.857C564.908 150.387 562.973 155.952 561.138 161.55C564.528 164.627 569.101 165.91 573.713 165.91C573.895 165.91 574.076 165.908 574.258 165.904C577.184 157.762 580.324 149.532 583.59 141.296C589.83 125.559 596.527 109.806 603.055 94.6252C602.253 92.8886 600.953 91.6417 599.368 90.819H599.367Z" fill="#2E2E2E"/>
<path d="M643.787 117.062C641.711 114.849 639.564 112.619 637.389 110.418C630.761 103.715 623.877 97.2966 617.945 92.5371C616.346 92.9324 614.315 94.0206 612.523 95.6762C610.719 97.3412 609.154 99.5758 608.47 102.245C613.409 107.303 619.694 113.674 626.018 120.083C628.514 122.612 631.016 125.147 633.443 127.61L633.587 127.756L633.443 127.903C624.859 136.602 615.351 146.203 608.47 153.262C609.154 155.93 610.719 158.163 612.523 159.829C614.315 161.484 616.344 162.573 617.945 162.965C625.822 156.644 635.382 147.397 643.787 138.44C647.249 134.754 650.512 131.115 653.386 127.751C650.512 124.387 647.249 120.748 643.787 117.062Z" fill="#1C1C1C"/>
<path d="M519.667 62.6926C518.003 61.0286 515.707 59.9995 513.169 59.9995C510.631 59.9995 508.335 61.0286 506.671 62.6926C506.151 63.2133 505.694 63.7953 505.309 64.4281C504.465 65.8182 503.979 67.45 503.979 69.1959C503.979 71.7365 505.008 74.0332 506.67 75.6982C508.334 77.3632 510.63 78.3913 513.168 78.3913C515.707 78.3913 518.002 77.3622 519.666 75.6982C520.59 74.7729 521.318 73.6525 521.782 72.4035C522.153 71.4045 522.357 70.3236 522.357 69.1949C522.357 66.6543 521.328 64.3576 519.666 62.6926H519.667Z" fill="#7FC5A6"/>
<path d="M548.341 59.6208C546.677 57.9568 544.381 56.9277 541.843 56.9277C539.304 56.9277 537.009 57.9568 535.346 59.6208C534.886 60.0803 534.475 60.5887 534.121 61.1374C533.193 62.5742 532.654 64.2849 532.654 66.1231C532.654 68.6637 533.683 70.9604 535.346 72.6254C537.009 74.2894 539.305 75.3185 541.843 75.3185C544.382 75.3185 546.677 74.2894 548.341 72.6254C549.137 71.8287 549.788 70.8857 550.25 69.8411C550.753 68.7041 551.033 67.4468 551.033 66.1221C551.033 63.5815 550.004 61.2847 548.342 59.6197L548.341 59.6208Z" fill="#F08065"/>
<path d="M579.705 65.5619C579.697 63.0348 578.669 60.7495 577.014 59.0917C575.35 57.4278 573.054 56.3987 570.516 56.3987C567.978 56.3987 565.681 57.4278 564.019 59.0917C563.011 60.1011 562.236 61.3418 561.782 62.7288C561.486 63.6303 561.327 64.593 561.327 65.5941C561.327 68.1346 562.355 70.4314 564.018 72.0964C565.681 73.7614 567.978 74.7894 570.515 74.7894C573.053 74.7894 575.349 73.7603 577.013 72.0964C578.676 70.4314 579.704 68.1336 579.704 65.5941C579.704 65.5837 579.704 65.5723 579.704 65.5619H579.705Z" fill="#F7CE57"/>
<path d="M671.459 102.145C671.459 98.3163 671.417 94.4914 671.337 90.6759C641.077 85.6187 610.396 83.0864 579.715 83.0864C575.882 83.0864 572.048 83.1258 568.216 83.2057C603.412 84.9682 638.345 92.0318 671.456 104.105C671.458 103.451 671.459 102.799 671.459 102.145Z" fill="#82AC00"/>
<path d="M588.405 178.9C615.975 178.9 643.96 175.867 667.346 168.058C668.061 162.47 668.684 156.82 669.213 151.123C658.615 156.086 647.521 160 636.197 162.916C630.708 164.328 625.167 165.509 619.588 166.475C627.469 160.029 636.821 150.95 645.086 142.143C648.679 138.318 652.062 134.542 655.036 131.057C654.748 130.721 654.457 130.381 654.163 130.04C651.271 133.426 647.984 137.094 644.495 140.808C636.057 149.8 626.457 159.083 618.551 165.416C615.454 164.702 610.835 161.44 609.121 156.52C608.931 156.716 608.741 156.91 608.554 157.102C609.769 162.038 613.873 165.545 617.158 166.881C603.56 169.079 589.753 170.017 575.954 169.927C584.645 145.732 595.202 120.758 605.358 97.1442C604.88 96.0788 604.224 95.1866 603.434 94.4553C603.447 94.4833 603.46 94.5103 603.473 94.5383L603.51 94.6223L603.839 96.8475C593.864 120.041 583.494 144.572 574.961 168.335C570.46 168.458 565.923 167.393 562.413 164.654C562.329 164.909 562.245 165.165 562.161 165.421C565.068 168.107 568.828 169.49 572.747 169.889C568.32 169.809 563.894 169.624 559.478 169.344C549.201 168.694 538.84 167.499 529.135 164.046C519.424 160.6 510.33 154.712 504.541 146.183C497.736 136.165 496.075 123.218 498.38 111.326C500.002 102.944 503.453 95.0435 507.922 87.7393C502.79 88.4084 497.667 89.1491 492.557 89.9624C492.463 94.0341 492.417 98.1162 492.417 102.203C492.417 124.377 493.79 146.679 496.53 168.049C519.914 174.133 553.834 178.902 588.405 178.902V178.9Z" fill="#82AC00"/>
<path d="M671.327 90.2517C671.308 89.3419 671.286 88.4311 671.261 87.5223C612.287 77.4348 551.592 77.4078 492.618 87.5161C492.599 88.1894 492.583 88.8626 492.567 89.5359C521.375 84.9559 550.545 82.6695 579.715 82.6695C610.393 82.6695 641.071 85.1996 671.327 90.2517Z" fill="#82AC00"/>
<path d="M513.169 59.5824C513.601 59.5824 514.027 59.6115 514.445 59.6665C565.1 46.8029 618.953 46.4294 669.699 58.9527C669.613 57.9174 669.522 56.8842 669.43 55.853C641.829 49.2729 608.95 46.417 578.292 46.417C544.126 46.417 512.71 49.9659 494.447 55.8416C494.154 59.1104 493.893 62.401 493.664 65.7082C498.188 64.2226 502.745 62.8408 507.331 61.5618C508.949 60.32 510.973 59.5824 513.169 59.5824Z" fill="#82AC00"/>
<path d="M608.796 104.531L608.735 104.362C608.668 104.578 608.608 104.797 608.554 105.019C615.021 111.643 623.769 120.489 631.969 128.805C632.09 128.682 632.21 128.56 632.33 128.438C624.132 120.122 615.287 111.181 608.796 104.531Z" fill="#82AC00"/>
<path d="M518.748 141.948C527.348 151.113 537.132 160.573 545.189 167.028C547.722 166.444 551.252 164.19 553.45 160.732C551.331 163.278 548.535 164.932 546.435 165.416C538.53 159.083 528.931 149.799 520.492 140.807C516.981 137.07 513.675 133.38 510.77 129.976L510.429 129.063C509.888 129.687 509.357 130.302 508.839 130.909C511.801 134.379 515.169 138.139 518.747 141.949L518.748 141.948Z" fill="#82AC00"/>
<path d="M513.169 78.8083C510.644 78.8083 508.346 77.8331 506.631 76.2376C508.357 78.6755 511.198 80.2679 514.412 80.2679C519.675 80.2679 523.942 75.998 523.942 70.7312C523.942 68.2373 522.985 65.9675 521.419 64.2683C522.281 65.7092 522.775 67.3939 522.775 69.1948C522.775 74.5042 518.474 78.8072 513.169 78.8083Z" fill="#82AC00"/>
<path d="M549.288 60.0494C550.638 61.705 551.447 63.8192 551.447 66.1222C551.447 71.4316 547.148 75.7346 541.842 75.7346C539.879 75.7346 538.052 75.1454 536.531 74.1329C538.27 75.9898 540.743 77.1506 543.487 77.1506C548.75 77.1506 553.017 72.8808 553.017 67.614C553.017 64.5319 551.555 61.7911 549.289 60.0483L549.288 60.0494Z" fill="#82AC00"/>
<path d="M577.334 58.823C579.057 60.5606 580.122 62.9528 580.122 65.594C580.122 70.9033 575.821 75.2064 570.516 75.2074C568.97 75.2074 567.509 74.8412 566.215 74.1918C567.901 75.6992 570.125 76.6162 572.564 76.6162C577.827 76.6162 582.093 72.3463 582.093 67.0795C582.093 63.5524 580.18 60.4724 577.335 58.823H577.334Z" fill="#82AC00"/>
<path d="M525.706 144.291C532.572 151.28 539.766 158.018 545.931 162.965C547.53 162.573 549.561 161.484 551.351 159.829C553.156 158.164 554.72 155.929 555.404 153.262C553.313 151.118 550.981 148.738 548.504 146.222C540.869 146.253 533.226 145.612 525.705 144.292L525.706 144.291Z" fill="#1C1D19"/>
<path d="M561.137 161.55C564.527 164.627 569.1 165.91 573.712 165.91C573.894 165.91 574.075 165.908 574.257 165.904C577.183 157.763 580.323 149.532 583.589 141.296C578.126 142.85 572.559 144.037 566.94 144.857C564.908 150.387 562.973 155.952 561.138 161.55H561.137Z" fill="#1C1D19"/>
<path d="M612.523 159.829C614.315 161.484 616.344 162.573 617.945 162.965C625.822 156.644 635.382 147.397 643.787 138.44C647.249 134.754 650.512 131.115 653.386 127.751C650.512 124.387 647.249 120.748 643.787 117.062C641.711 114.849 639.564 112.619 637.389 110.418C633.79 113.852 629.992 117.08 626.019 120.082C628.516 122.611 631.017 125.146 633.444 127.609L633.588 127.755L633.444 127.901C624.86 136.601 615.352 146.202 608.471 153.261C609.155 155.928 610.72 158.162 612.525 159.828L612.523 159.829Z" fill="#1C1D19"/>
<path d="M512.257 72.4636C508.881 71.0268 506.316 67.9416 505.309 64.428C504.465 65.8181 503.979 67.4499 503.979 69.1958C503.979 71.7363 505.008 74.0331 506.67 75.6981C508.334 77.3631 510.63 78.3912 513.168 78.3912C515.707 78.3912 518.002 77.3621 519.666 75.6981C520.59 74.7728 521.318 73.6524 521.782 72.4034C518.773 73.6534 515.263 73.7437 512.256 72.4636H512.257Z" fill="#65BA94"/>
<path d="M548.341 72.6255C549.137 71.8288 549.788 70.8858 550.25 69.8412C547.353 70.9086 544.052 70.9304 541.207 69.7167C537.662 68.2083 535.007 64.87 534.12 61.1365C533.192 62.5733 532.653 64.2839 532.653 66.1221C532.653 68.6627 533.682 70.9595 535.344 72.6245C537.008 74.2884 539.304 75.3175 541.842 75.3175C544.381 75.3175 546.676 74.2884 548.34 72.6245L548.341 72.6255Z" fill="#ED694A"/>
<path d="M577.014 72.0965C578.677 70.4315 579.705 68.1337 579.705 65.5942C579.705 65.5838 579.705 65.5724 579.705 65.562C576.275 68.3381 571.273 69.1265 567.194 67.3889C564.965 66.4397 563.089 64.7674 561.782 62.73C561.486 63.6315 561.327 64.5942 561.327 65.5952C561.327 68.1358 562.355 70.4326 564.018 72.0976C565.681 73.7626 567.978 74.7906 570.515 74.7906C573.053 74.7906 575.349 73.7615 577.013 72.0976L577.014 72.0965Z" fill="#F7C334"/>
</g>
</g>
<defs>
<clipPath id="clip0_662_1988">
<rect width="729" height="207" rx="16" fill="white"/>
</clipPath>
<clipPath id="clip1_662_1988">
<rect width="183" height="137" fill="white" transform="translate(492 46)"/>
</clipPath>
</defs>
</svg>
