<svg width="228" height="229" viewBox="0 0 228 229" fill="none" xmlns="http://www.w3.org/2000/svg">
<rect x="0.265625" y="0.945312" width="227.109" height="227.109" rx="44.4344" fill="#B9F500"/>
<path d="M182.955 122.539C175.375 102.893 166.864 91.6976 141.772 77.0384L129.102 84.3532M182.955 122.539C181.337 138.16 179.051 146.91 172.263 162.442L177.195 167.375H168.844C174.166 132.954 151.424 134.058 146.598 135.498C141.773 136.938 138.716 140.62 136.589 143.849C128.435 156.232 118.446 168.903 113.855 173.739C113.851 170.261 113.846 166.529 113.839 162.442C113.818 150.834 113.816 135.7 113.82 122.539M182.955 122.539C165.4 103.629 155.672 92.8968 129.102 84.3532M182.955 122.539H148.109M129.102 84.3532L121.47 88.7592M121.47 88.7592L113.839 93.1652C113.839 93.1652 113.824 106.361 113.82 122.539M121.47 88.7592C136.343 99.9473 142.282 107.292 148.109 122.539M148.109 122.539H113.82M113.839 88.2695L135.149 75.9662L129.881 58.0319L125.07 55.2544V66.3833C124.782 73.5827 120.706 77.0239 113.82 77.1181M117.87 173.739C137.411 173.833 146.862 172.464 165.964 167.375C169.708 133.194 148.685 137.624 145.517 139.729C142.349 141.833 141.773 142.697 139.469 145.865C137.165 149.033 122.462 168.903 117.87 173.739Z" stroke="black" stroke-width="7.51461"/>
<path d="M44.6857 122.54C52.266 102.894 60.776 91.698 85.8683 77.0387L98.5381 84.3536M44.6857 122.54C46.304 138.161 48.5893 146.912 55.3778 162.444L50.4453 167.376H58.7967C53.4747 132.955 76.2165 134.059 81.0417 135.499C85.8669 136.939 88.9239 140.621 91.0506 143.85C99.2054 156.234 109.193 168.905 113.785 173.741C113.788 170.262 113.794 166.53 113.801 162.444C113.822 150.835 113.824 135.701 113.82 122.54M44.6857 122.54C62.24 103.63 71.9684 92.8973 98.5381 84.3536M44.6857 122.54H79.5313M98.5381 84.3536L106.17 88.7596M106.17 88.7596L113.801 93.1657C113.801 93.1657 113.815 106.362 113.82 122.54M106.17 88.7596C91.2966 99.9478 85.3579 107.293 79.5313 122.54M79.5313 122.54H113.82M113.801 88.27L92.4907 75.9665L97.7592 58.0319L102.57 55.2544V66.3834C102.858 73.583 106.934 77.0242 113.82 77.1184M109.77 173.741C90.2294 173.835 80.7777 172.465 61.6765 167.376C57.9329 133.195 78.9552 137.625 82.1232 139.73C85.2912 141.835 85.8674 142.698 88.171 145.866C90.4746 149.034 105.178 168.905 109.77 173.741Z" stroke="black" stroke-width="7.51462"/>
</svg>
