<svg width="46" height="47" viewBox="0 0 46 47" fill="none" xmlns="http://www.w3.org/2000/svg">
<rect y="0.210083" width="46" height="46" rx="9" fill="#B9F500"/>
<path d="M37.0032 24.8383C35.4678 20.8591 33.7441 18.5915 28.6617 15.6224L26.0955 17.104M37.0032 24.8383C36.6754 28.0024 36.2125 29.7747 34.8375 32.9205L35.8366 33.9196H34.145C35.223 26.9479 30.6167 27.1715 29.6393 27.4631C28.662 27.7547 28.0428 28.5005 27.612 29.1546C25.9603 31.6627 23.9372 34.2292 23.0073 35.2087C23.0065 34.5041 23.0055 33.7483 23.004 32.9205C22.9997 30.5694 22.9993 27.504 23.0001 24.8383M37.0032 24.8383C33.4476 21.0082 31.4771 18.8344 26.0955 17.104M37.0032 24.8383H29.9453M26.0955 17.104L24.5497 17.9964M24.5497 17.9964L23.004 18.8888C23.004 18.8888 23.0011 21.5616 23.0001 24.8383M24.5497 17.9964C27.5622 20.2625 28.7651 21.7502 29.9453 24.8383M29.9453 24.8383H23.0001M23.004 17.8972L27.3204 15.4052L26.2532 11.7727L25.2788 11.2102V13.4643C25.2205 14.9225 24.3948 15.6195 23.0001 15.6385M23.8205 35.2087C27.7784 35.2278 29.6928 34.9503 33.5617 33.9196C34.32 26.9965 30.062 27.8938 29.4203 28.32C28.7786 28.7463 28.6619 28.9213 28.1953 29.5629C27.7287 30.2045 24.7505 34.2292 23.8205 35.2087Z" stroke="black" stroke-width="1.52205"/>
<path d="M8.99738 24.8385C10.5327 20.8593 12.2564 18.5917 17.3387 15.6225L19.905 17.1041M8.99738 24.8385C9.32516 28.0026 9.78805 29.7749 11.163 32.9208L10.164 33.9199H11.8555C10.7776 26.9481 15.3838 27.1717 16.3611 27.4633C17.3385 27.755 17.9576 28.5008 18.3884 29.1549C20.0401 31.663 22.0631 34.2295 22.9931 35.2091C22.9938 34.5044 22.9949 33.7486 22.9964 32.9208C23.0006 30.5697 23.0011 27.5042 23.0003 24.8385M8.99738 24.8385C12.5529 21.0084 14.5234 18.8346 19.905 17.1041M8.99738 24.8385H16.0552M19.905 17.1041L21.4507 17.9965M21.4507 17.9965L22.9964 18.8889C22.9964 18.8889 22.9993 21.5618 23.0003 24.8385M21.4507 17.9965C18.4382 20.2626 17.2354 21.7503 16.0552 24.8385M16.0552 24.8385H23.0003M22.9964 17.8973L18.6801 15.4053L19.7472 11.7727L20.7216 11.2102V13.4643C20.7799 14.9225 21.6056 15.6195 23.0003 15.6386M22.1798 35.2091C18.2221 35.2281 16.3077 34.9507 12.4388 33.9199C11.6806 26.9967 15.9385 27.894 16.5802 28.3203C17.2218 28.7466 17.3385 28.9216 17.8051 29.5632C18.2717 30.2048 21.2499 34.2295 22.1798 35.2091Z" stroke="black" stroke-width="1.52205"/>
</svg>
