<svg width="916" height="334" viewBox="0 0 916 334" fill="none" xmlns="http://www.w3.org/2000/svg">
<rect width="916" height="334" rx="30" fill="#F8F8F8"/>
<path d="M325.122 168.807H293.516V121.644H323.503C333.71 121.644 338.778 125.657 338.778 133.048C338.778 139.101 335.61 143.395 327.023 143.747V144.451C336.455 144.803 340.96 149.167 340.96 155.714C340.96 163.668 336.385 168.807 325.122 168.807ZM306.679 133.541V139.524H322.095C324.77 139.524 325.544 138.75 325.544 136.567C325.544 134.385 324.488 133.541 321.743 133.541H306.679ZM306.679 150.364V156.91H323.433C326.6 156.91 327.586 156.277 327.586 153.602C327.586 150.998 326.671 150.364 323.433 150.364H306.679ZM357 168.807H343.766V121.644H357V168.807ZM401.702 168.807H361.227V121.644H374.46V156.91H401.702V168.807ZM429.858 168.807H405.996V121.644H429.858C445.415 121.644 455.27 130.303 455.27 145.226C455.27 160.148 445.415 168.807 429.858 168.807ZM429.858 133.541H419.229V156.91H429.858C438.235 156.91 441.121 155.855 441.121 145.226C441.121 134.596 438.235 133.541 429.858 133.541ZM470.808 168.807H455.955L476.299 121.644H495.234L515.647 168.807H500.443L496.853 160.078H474.468L470.808 168.807ZM482.211 141.565L479.466 148.182H491.996L489.251 141.565L486.153 133.611H485.238L482.211 141.565ZM530.298 168.807H517.064V121.644H544.587C557.046 121.644 563.593 126.853 563.593 136.075C563.593 143.536 559.862 147.971 550.852 149.097V149.801C555.709 151.068 557.258 153.391 559.017 156.981L564.86 168.807H549.585L543.954 157.262C542.264 153.743 540.856 152.757 535.718 152.757H530.298V168.807ZM530.298 133.541V142.903H544.446C548.318 142.903 549.726 142.199 549.726 138.186C549.726 134.456 548.318 133.541 544.446 133.541H530.298ZM608.853 168.807H566.97V121.644H608.853V133.541H580.204V139.172H607.797V150.998H580.204V156.91H608.853V168.807ZM280.84 237.807H236.845V229.5C236.845 221.476 240.576 217.323 250.712 214.085L263.523 210.002C266.55 209.017 267.747 208.101 267.747 205.919C267.747 203.526 266.832 201.977 259.652 201.977C251.768 201.977 250.008 203.948 250.008 208.242V209.157H237.056V208.101C237.056 198.599 243.532 189.94 260.145 189.94C275.068 189.94 280.981 196.487 280.981 206.131C280.981 215 275.068 219.153 266.621 221.265L256.062 223.869C252.965 224.643 250.783 225.136 250.783 227.529L264.016 225.91H280.84V237.807ZM308.233 238.511C292.184 238.511 283.807 228.726 283.807 214.226C283.807 199.795 292.184 189.94 308.233 189.94C324.212 189.94 332.588 199.795 332.588 214.226C332.588 228.726 324.212 238.511 308.233 238.511ZM308.233 225.629C316.258 225.629 318.369 222.954 318.369 214.226C318.369 205.497 316.258 202.822 308.233 202.822C300.138 202.822 298.026 205.497 298.026 214.226C298.026 222.954 300.138 225.629 308.233 225.629ZM378.934 237.807H334.939V229.5C334.939 221.476 338.67 217.323 348.807 214.085L361.618 210.002C364.645 209.017 365.841 208.101 365.841 205.919C365.841 203.526 364.926 201.977 357.746 201.977C349.862 201.977 348.103 203.948 348.103 208.242V209.157H335.151V208.101C335.151 198.599 341.627 189.94 358.239 189.94C373.162 189.94 379.075 196.487 379.075 206.131C379.075 215 373.162 219.153 364.715 221.265L354.156 223.869C351.059 224.643 348.877 225.136 348.877 227.529L362.111 225.91H378.934V237.807ZM406.187 238.511C390.56 238.511 382.605 233.865 382.605 222.743V222.321H396.261V222.743C396.261 225.488 397.81 226.474 406.398 226.474C414.07 226.474 415.337 225.066 415.337 221.194C415.337 217.182 414.07 215.774 406.398 215.774C400.274 215.774 397.176 216.267 396.261 218.731H382.817L385.632 190.644H426.6V202.541H397.388L396.121 212.184H396.824C397.88 209.369 402.385 205.427 412.099 205.427C424.277 205.427 429.416 211.269 429.416 221.053C429.416 231.542 422.658 238.511 406.187 238.511ZM456.675 237.807H443.442V190.644H457.52L470.613 208.313L477.511 219.153H478.426L477.793 208.876V190.644H491.026V237.807H476.948L463.011 219.646L457.027 210.354H456.112L456.675 219.364V237.807ZM537.156 237.807H495.273V190.644H537.156V202.541H508.506V208.172H536.1V219.998H508.506V225.91H537.156V237.807ZM568.933 237.807H549.294L539.439 190.644H554.221L558.163 214.648L559.43 225.277H560.345L562.246 214.648L568.581 190.644H588.502L594.274 214.648L595.963 225.277H596.879L598.286 214.648L602.721 190.644H617.222L606.452 237.807H586.813L581.885 217.604L578.788 202.822H577.873L574.564 217.604L568.933 237.807ZM642.847 238.511C628.417 238.511 619.618 233.372 619.618 221.405V220.983H632.852V222.461C632.852 225.629 633.978 226.474 642.847 226.474C650.872 226.474 651.717 225.84 651.717 223.728C651.717 222.039 650.802 221.335 646.93 220.842L632.148 218.871C623.349 217.675 618.914 212.958 618.914 205.356C618.914 197.824 624.757 189.94 641.792 189.94C656.785 189.94 663.965 196.487 663.965 207.046V207.468H650.731V206.412C650.731 203.033 649.253 201.907 640.384 201.907C633.626 201.907 632.148 202.822 632.148 204.863C632.148 206.342 632.993 207.046 635.527 207.398L650.309 209.58C661.853 211.269 664.95 217.182 664.95 223.236C664.95 231.331 658.756 238.511 642.847 238.511Z" fill="#2D2D2D"/>
<rect x="609.001" y="137.209" width="129.317" height="35.3887" rx="15.5931" transform="rotate(13.5553 609.001 137.209)" fill="#E9FFEA"/>
<rect x="609.001" y="137.209" width="129.317" height="35.3887" rx="15.5931" transform="rotate(13.5553 609.001 137.209)" stroke="black" stroke-width="0.645956"/>
<path d="M622.718 163.346L614.909 161.464L617.331 151.421L618.949 151.812L616.879 160.4L623.069 161.892L622.718 163.346ZM624.814 163.852L623.016 163.418L629.918 154.456L632.197 155.005L634.257 166.128L632.428 165.687L631.903 162.801L626.597 161.522L624.814 163.852ZM629.693 157.495L627.592 160.223L631.609 161.192L630.982 157.805L630.741 156.24L630.621 156.212L629.693 157.495ZM639.617 167.579C636.619 166.856 635.293 164.856 635.951 162.128L637.368 156.252L638.971 156.639L637.58 162.409C637.092 164.433 637.789 165.489 639.993 166.02C642.196 166.551 643.298 165.929 643.785 163.905L645.177 158.135L646.795 158.525L645.379 164.401C644.721 167.129 642.629 168.305 639.617 167.579ZM647.427 169.304L645.809 168.913L648.23 158.871L649.969 159.29L653.049 166.25L653.901 168.438L654.021 168.467L654.383 166.635L655.814 160.7L657.433 161.09L655.012 171.132L653.273 170.713L650.159 163.761L649.327 161.689L649.207 161.66L648.848 163.413L647.427 169.304ZM661.359 172.821C658.241 172.069 656.664 169.532 657.419 166.4C658.175 163.267 660.735 161.727 663.852 162.479C666.685 163.162 668.302 165.138 667.724 167.536L667.673 167.746L665.89 167.316L665.94 167.106C666.309 165.577 665.533 164.518 663.495 164.026C661.142 163.459 659.732 164.309 659.128 166.812C658.525 169.315 659.396 170.698 661.749 171.266C663.788 171.757 664.957 171.183 665.33 169.639L665.377 169.444L667.16 169.874L667.113 170.069C666.531 172.482 664.206 173.508 661.359 172.821ZM669.017 174.509L667.399 174.119L669.82 164.076L671.439 164.467L670.412 168.723L676.318 170.147L677.344 165.89L678.948 166.277L676.527 176.319L674.923 175.933L675.967 171.601L670.062 170.177L669.017 174.509ZM688.77 179.271L680.362 177.244L680.618 176.18C681.066 174.321 682.025 173.569 684.263 173.363L686.86 173.117C688.164 172.972 688.681 172.668 688.894 171.784C689.151 170.72 688.592 170.014 686.793 169.58C684.784 169.096 683.865 169.62 683.547 170.939L683.504 171.118L681.915 170.735L681.951 170.586C682.399 168.727 684.078 167.355 687.211 168.111C690.058 168.797 690.932 170.435 690.506 172.204C690.108 173.853 688.835 174.465 686.936 174.579L684.667 174.714C683.206 174.853 682.626 175.221 682.351 176.36L684.819 176.78L689.121 177.817L688.77 179.271ZM694.489 180.809C691.461 180.079 690.14 177.667 690.909 174.474C691.676 171.296 693.955 169.737 696.982 170.467C700.01 171.197 701.328 173.624 700.562 176.801C699.792 179.994 697.517 181.539 694.489 180.809ZM694.865 179.25C697.008 179.767 698.235 178.889 698.838 176.386C699.442 173.883 698.75 172.542 696.607 172.025C694.463 171.509 693.222 172.383 692.618 174.886C692.015 177.389 692.721 178.733 694.865 179.25ZM708.721 184.081L700.312 182.054L700.569 180.99C701.017 179.131 701.975 178.379 704.214 178.173L706.811 177.927C708.114 177.782 708.632 177.478 708.845 176.594C709.101 175.53 708.542 174.824 706.743 174.39C704.735 173.906 703.816 174.43 703.498 175.749L703.454 175.929L701.866 175.545L701.902 175.396C702.35 173.537 704.029 172.165 707.161 172.921C710.009 173.607 710.883 175.245 710.456 177.014C710.059 178.663 708.785 179.276 706.886 179.389L704.618 179.524C703.157 179.663 702.576 180.031 702.302 181.17L704.77 181.59L709.071 182.628L708.721 184.081ZM714.215 185.565C711.277 184.856 709.966 183.319 710.454 181.296L710.494 181.131L712.143 181.528L712.103 181.693C711.818 182.877 712.59 183.619 714.599 184.103C716.397 184.537 717.352 184.196 717.692 182.787C718.024 181.408 717.356 180.692 715.528 180.251C714.089 179.904 713.192 179.941 712.499 180.314L712.401 180.258L712.394 180.288L710.921 179.822L712.79 174.436L720.539 176.305L720.189 177.759L713.848 176.23L712.697 179.426L712.814 179.47C713.457 179.038 714.774 178.705 716.438 179.106C718.776 179.67 719.884 181.127 719.385 183.195C718.883 185.279 717.048 186.248 714.215 185.565Z" fill="#2D2D2D"/>
<rect x="270.9" y="148.984" width="85.6506" height="51.9728" rx="23.2465" transform="rotate(-8.32033 270.9 148.984)" fill="#C7C5FF"/>
<rect x="270.9" y="148.984" width="85.6506" height="51.9728" rx="23.2465" transform="rotate(-8.32033 270.9 148.984)" stroke="black" stroke-width="0.963003"/>
<path d="M294.556 178.861L291.826 179.26L296.398 163.028L299.855 162.522L308.884 176.766L306.109 177.172L303.779 173.47L295.728 174.648L294.556 178.861ZM297.775 167.356L296.383 172.299L302.479 171.407L299.73 167.07L298.527 165.039L298.346 165.066L297.775 167.356ZM313.043 180.107L310.587 180.466L308.368 165.296L310.62 164.967L311.079 168.105L311.283 168.075C311.432 165.916 312.838 164.41 315.499 164.021C319.002 163.509 321.329 165.607 321.842 169.11C322.354 172.612 320.767 175.26 317.241 175.776C314.694 176.148 312.86 175.046 312.103 173.043L312.012 173.056L313.043 180.107ZM311.679 170.782C312.018 173.102 313.663 174.023 316.074 173.67C318.507 173.314 319.781 172.175 319.385 169.469C318.986 166.74 317.42 166.04 315.055 166.385C312.53 166.755 311.293 168.144 311.649 170.577L311.679 170.782ZM326.825 174.142L324.369 174.501L322.716 163.198L324.968 162.868L325.413 165.916L325.573 165.893C325.648 164.023 326.663 162.388 328.983 162.049C331.553 161.673 332.937 163.352 333.249 165.49L333.465 166.968L331.032 167.324L330.886 166.324C330.649 164.709 329.857 164.058 328.174 164.304C326.241 164.587 325.601 165.772 325.897 167.796L326.825 174.142ZM336.507 159.833L334.05 160.193L333.668 157.577L336.124 157.218L336.507 159.833ZM338.353 172.456L335.896 172.815L334.243 161.512L336.7 161.153L338.353 172.456ZM343.084 171.764L340.627 172.123L338.399 156.885L340.855 156.526L343.084 171.764Z" fill="#2D2D2D"/>
<rect x="412" y="31.21" width="46" height="46" rx="9" fill="#B9F500"/>
<path d="M449.003 55.8381C447.468 51.8589 445.744 49.5914 440.662 46.6222L438.095 48.1038M449.003 55.8381C448.675 59.0022 448.213 60.7745 446.838 63.9203L447.837 64.9194H446.145C447.223 57.9477 442.617 58.1713 441.639 58.4629C440.662 58.7545 440.043 59.5003 439.612 60.1544C437.96 62.6625 435.937 65.229 435.007 66.2085C435.007 65.5039 435.005 64.7481 435.004 63.9203C435 61.5692 434.999 58.5038 435 55.8381M449.003 55.8381C445.448 52.008 443.477 49.8342 438.095 48.1038M449.003 55.8381H441.945M438.095 48.1038L436.55 48.9962M436.55 48.9962L435.004 49.8886C435.004 49.8886 435.001 52.5614 435 55.8381M436.55 48.9962C439.562 51.2623 440.765 52.75 441.945 55.8381M441.945 55.8381H435M435.004 48.897L439.32 46.405L438.253 42.7725L437.279 42.21V44.4641C437.22 45.9223 436.395 46.6193 435 46.6384M435.821 66.2085C439.778 66.2276 441.693 65.9501 445.562 64.9194C446.32 57.9963 442.062 58.8936 441.42 59.3198C440.779 59.7461 440.662 59.9211 440.195 60.5627C439.729 61.2043 436.751 65.229 435.821 66.2085Z" stroke="black" stroke-width="1.52205"/>
<path d="M420.997 55.8383C422.533 51.8591 424.256 49.5915 429.339 46.6223L431.905 48.1039M420.997 55.8383C421.325 59.0024 421.788 60.7747 423.163 63.9206L422.164 64.9197H423.855C422.778 57.9479 427.384 58.1715 428.361 58.4631C429.338 58.7548 429.958 59.5006 430.388 60.1547C432.04 62.6629 434.063 65.2293 434.993 66.2089C434.994 65.5042 434.995 64.7484 434.996 63.9206C435.001 61.5695 435.001 58.504 435 55.8383M420.997 55.8383C424.553 52.0082 426.523 49.8344 431.905 48.1039M420.997 55.8383H428.055M431.905 48.1039L433.451 48.9963M433.451 48.9963L434.996 49.8887C434.996 49.8887 434.999 52.5616 435 55.8383M433.451 48.9963C430.438 51.2624 429.235 52.7501 428.055 55.8383M428.055 55.8383H435M434.996 48.8971L430.68 46.4051L431.747 42.7725L432.722 42.21V44.4641C432.78 45.9223 433.606 46.6193 435 46.6384M434.18 66.2089C430.222 66.2279 428.308 65.9505 424.439 64.9197C423.681 57.9965 427.939 58.8938 428.58 59.3201C429.222 59.7464 429.339 59.9214 429.805 60.563C430.272 61.2046 433.25 65.2293 434.18 66.2089Z" stroke="black" stroke-width="1.52205"/>
<path d="M466 66.9006V48.8545H473.751C475.012 48.8545 476.075 49.0521 476.939 49.4474C477.803 49.8255 478.46 50.3669 478.909 51.0716C479.376 51.759 479.609 52.5754 479.609 53.5207C479.609 54.4316 479.41 55.1964 479.013 55.8151C478.615 56.4338 478.088 56.9065 477.431 57.233C476.792 57.5596 476.084 57.7572 475.306 57.826L475.721 57.5166C476.567 57.551 477.31 57.7744 477.95 58.1869C478.589 58.5994 479.09 59.1408 479.453 59.811C479.833 60.4641 480.024 61.186 480.024 61.9766C480.024 62.9562 479.79 63.8156 479.324 64.5546C478.857 65.2936 478.175 65.8694 477.276 66.2819C476.377 66.6944 475.289 66.9006 474.01 66.9006H466ZM469.888 63.7554H473.362C474.226 63.7554 474.891 63.5664 475.358 63.1883C475.842 62.793 476.084 62.2258 476.084 61.4868C476.084 60.7477 475.833 60.172 475.332 59.7595C474.848 59.347 474.174 59.1408 473.31 59.1408H469.888V63.7554ZM469.888 56.2792H473.077C473.906 56.2792 474.537 56.0901 474.969 55.712C475.418 55.3339 475.643 54.8011 475.643 54.1136C475.643 53.4262 475.418 52.8934 474.969 52.5153C474.537 52.12 473.897 51.9223 473.051 51.9223H469.888V56.2792Z" fill="#1C1D19"/>
<path d="M481.253 66.9006V53.9074H485.141V66.9006H481.253ZM483.197 52.4121C482.506 52.4121 481.944 52.2145 481.512 51.8192C481.08 51.4239 480.864 50.9255 480.864 50.3239C480.864 49.7052 481.08 49.1982 481.512 48.8029C481.944 48.4076 482.506 48.21 483.197 48.21C483.906 48.21 484.476 48.4076 484.908 48.8029C485.357 49.1982 485.582 49.7052 485.582 50.3239C485.582 50.9255 485.357 51.4239 484.908 51.8192C484.476 52.2145 483.906 52.4121 483.197 52.4121Z" fill="#1C1D19"/>
<path d="M487.012 66.9006V48.3389H490.901V66.9006H487.012Z" fill="#1C1D19"/>
<path d="M498.529 67.21C497.371 67.21 496.317 66.9178 495.366 66.3334C494.433 65.7491 493.69 64.9499 493.137 63.9359C492.601 62.9047 492.334 61.736 492.334 60.4298C492.334 59.1064 492.61 57.9377 493.163 56.9237C493.716 55.8925 494.468 55.0847 495.418 54.5003C496.386 53.8988 497.457 53.598 498.632 53.598C499.531 53.598 500.317 53.7613 500.991 54.0878C501.665 54.3972 502.218 54.8527 502.65 55.4542V48.3389H506.539V66.9006H503.091L502.65 65.2249C502.391 65.5858 502.071 65.9209 501.691 66.2303C501.328 66.5225 500.888 66.7545 500.369 66.9264C499.851 67.1154 499.237 67.21 498.529 67.21ZM499.54 63.8328C500.179 63.8328 500.741 63.6867 501.225 63.3945C501.726 63.1023 502.106 62.6984 502.365 62.1828C502.642 61.6672 502.78 61.0743 502.78 60.404C502.78 59.7337 502.642 59.1408 502.365 58.6252C502.106 58.1096 501.726 57.7057 501.225 57.4135C500.741 57.1213 500.179 56.9752 499.54 56.9752C498.918 56.9752 498.356 57.1213 497.855 57.4135C497.371 57.7057 496.991 58.1096 496.714 58.6252C496.438 59.1408 496.3 59.7251 496.3 60.3782C496.3 61.0485 496.438 61.65 496.714 62.1828C496.991 62.6984 497.371 63.1023 497.855 63.3945C498.356 63.6867 498.918 63.8328 499.54 63.8328Z" fill="#1C1D19"/>
<path d="M512.814 67.21C511.725 67.21 510.818 67.0381 510.092 66.6944C509.384 66.3506 508.856 65.8866 508.511 65.3022C508.182 64.7007 508.018 64.039 508.018 63.3172C508.018 62.5437 508.208 61.8649 508.589 61.2805C508.986 60.679 509.6 60.2063 510.429 59.8626C511.259 59.5017 512.304 59.3212 513.566 59.3212H516.728C516.728 58.7369 516.65 58.2556 516.495 57.8775C516.356 57.4994 516.123 57.2158 515.795 57.0268C515.466 56.8377 515.017 56.7432 514.447 56.7432C513.842 56.7432 513.332 56.8635 512.917 57.1041C512.503 57.3447 512.244 57.7229 512.14 58.2385H508.407C508.494 57.3104 508.796 56.5026 509.314 55.8151C509.85 55.1276 510.559 54.5863 511.44 54.191C512.321 53.7957 513.332 53.598 514.473 53.598C515.717 53.598 516.797 53.8043 517.713 54.2167C518.629 54.612 519.337 55.1964 519.839 55.9698C520.357 56.7432 520.616 57.7057 520.616 58.8572V66.9006H517.376L516.909 65.0186C516.719 65.3452 516.495 65.646 516.235 65.921C515.976 66.1788 515.674 66.4108 515.328 66.617C514.983 66.8061 514.602 66.9522 514.188 67.0553C513.773 67.1584 513.315 67.21 512.814 67.21ZM513.773 64.271C514.188 64.271 514.551 64.2023 514.862 64.0648C515.173 63.9273 515.441 63.7382 515.665 63.4976C515.89 63.257 516.071 62.982 516.21 62.6726C516.365 62.3461 516.477 61.9938 516.547 61.6157V61.5899H514.032C513.6 61.5899 513.237 61.65 512.943 61.7703C512.667 61.8735 512.46 62.0281 512.321 62.2344C512.183 62.4406 512.114 62.6812 512.114 62.9562C512.114 63.2484 512.183 63.4976 512.321 63.7039C512.477 63.8929 512.676 64.039 512.917 64.1421C513.177 64.2281 513.462 64.271 513.773 64.271Z" fill="#1C1D19"/>
<path d="M522.292 66.9006V53.9074H525.74L526.103 56.2792C526.448 55.7292 526.854 55.2565 527.321 54.8612C527.788 54.466 528.323 54.1566 528.928 53.9332C529.55 53.7097 530.216 53.598 530.924 53.598V57.6971H529.628C529.11 57.6971 528.634 57.7572 528.202 57.8775C527.788 57.9807 527.425 58.1611 527.114 58.4189C526.82 58.6767 526.587 59.029 526.414 59.4759C526.258 59.9056 526.18 60.447 526.18 61.1001V66.9006H522.292Z" fill="#1C1D19"/>
<path d="M537.949 67.21C536.601 67.21 535.418 66.935 534.398 66.385C533.378 65.8178 532.575 65.0358 531.987 64.039C531.417 63.025 531.132 61.8649 531.132 60.5587C531.132 59.2181 531.417 58.0236 531.987 56.9752C532.558 55.9268 533.352 55.1019 534.372 54.5003C535.392 53.8988 536.575 53.598 537.923 53.598C539.237 53.598 540.386 53.8816 541.371 54.4488C542.356 55.0159 543.125 55.7893 543.678 56.769C544.248 57.7314 544.533 58.8486 544.533 60.1204C544.533 60.2923 544.525 60.4899 544.507 60.7134C544.507 60.9196 544.49 61.1344 544.456 61.3579H533.905V59.115H540.567C540.533 58.3931 540.265 57.8174 539.764 57.3877C539.28 56.9409 538.675 56.7174 537.949 56.7174C537.396 56.7174 536.895 56.8463 536.446 57.1041C535.996 57.3619 535.634 57.7486 535.357 58.2642C535.098 58.7798 534.968 59.4329 534.968 60.2235V60.9969C534.968 61.5985 535.081 62.1313 535.305 62.5953C535.547 63.0594 535.884 63.4203 536.316 63.6781C536.766 63.9359 537.293 64.0648 537.897 64.0648C538.468 64.0648 538.934 63.9531 539.297 63.7296C539.677 63.489 539.971 63.1883 540.179 62.8273H544.145C543.903 63.6523 543.488 64.3999 542.9 65.0702C542.313 65.7233 541.596 66.2475 540.749 66.6428C539.902 67.0209 538.969 67.21 537.949 67.21Z" fill="#1C1D19"/>
<path d="M631.519 285.427C628.003 289.194 622.276 299.003 620.254 303.625L619.387 294.093L627.619 265.931C633.858 271.823 644.083 276.185 648.416 277.629C644.228 278.784 637.584 278.929 631.519 285.427Z" fill="black"/>
<path d="M620.399 252.26C620.801 253.366 621.403 254.905 622.205 256.642C623.805 260.106 626.217 264.391 629.449 267.574C632.675 270.752 636.845 273.162 640.188 274.773C641.808 275.554 643.242 276.15 644.291 276.559C643.245 276.744 641.84 277.042 640.259 277.518C636.898 278.527 632.699 280.337 629.449 283.538C626.213 286.726 623.8 291.186 622.201 294.819C621.4 296.641 620.799 298.265 620.397 299.435C620.357 299.553 620.319 299.667 620.282 299.776C620.251 299.672 620.219 299.562 620.184 299.449C619.824 298.279 619.277 296.653 618.529 294.83C617.038 291.195 614.733 286.73 611.493 283.538C608.226 280.32 603.246 278.515 599.143 277.512C597.209 277.039 595.452 276.74 594.132 276.556C595.457 276.148 597.24 275.559 599.205 274.788C603.299 273.181 608.249 270.769 611.493 267.574C614.729 264.387 617.033 260.097 618.525 256.63C619.273 254.892 619.821 253.352 620.182 252.245C620.218 252.136 620.25 252.029 620.282 251.929C620.319 252.034 620.357 252.145 620.399 252.26Z" fill="#FDDA3B" stroke="black" stroke-width="0.961991"/>
</svg>
