<svg width="18" height="18" viewBox="0 0 18 18" fill="none" xmlns="http://www.w3.org/2000/svg">
<path d="M4.61198 5.89973C4.45162 5.41864 4.07412 5.04114 3.59304 4.88078C3.10343 4.71758 3.10343 4.02504 3.59304 3.86183C4.07412 3.70147 4.45162 3.32397 4.61198 2.84289C4.77519 2.35327 5.46773 2.35327 5.63093 2.84289C5.79129 3.32397 6.1688 3.70147 6.64988 3.86183C7.13949 4.02504 7.13949 4.71758 6.64988 4.88078C6.1688 5.04114 5.79129 5.41864 5.63093 5.89973C5.46773 6.38934 4.77519 6.38934 4.61198 5.89973Z" fill="black"/>
<path d="M4.7236 15.5495C4.40288 14.5873 3.64787 13.8323 2.68571 13.5116C1.70649 13.1852 1.70649 11.8001 2.68571 11.4737C3.64787 11.153 4.40288 10.3979 4.7236 9.43578C5.05001 8.45656 6.43509 8.45656 6.7615 9.43578C7.08222 10.3979 7.83723 11.153 8.79939 11.4737C9.77861 11.8001 9.77861 13.1852 8.79939 13.5116C7.83723 13.8323 7.08222 14.5873 6.7615 15.5495C6.43509 16.5287 5.05001 16.5287 4.7236 15.5495Z" fill="black"/>
<path d="M10.6394 8.44618C11.361 8.68672 11.9273 9.25297 12.1678 9.9746C12.4126 10.709 13.4514 10.709 13.6962 9.9746C13.9368 9.25297 14.503 8.68672 15.2246 8.44618C15.9591 8.20137 15.9591 7.16256 15.2246 6.91776C14.503 6.67722 13.9368 6.11096 13.6962 5.38933C13.4514 4.65492 12.4126 4.65492 12.1678 5.38933C11.9273 6.11096 11.361 6.67722 10.6394 6.91776C9.90496 7.16256 9.90496 8.20137 10.6394 8.44618Z" fill="black"/>
</svg>
