<svg width="18" height="18" viewBox="0 0 18 18" fill="none" xmlns="http://www.w3.org/2000/svg">
<path fill-rule="evenodd" clip-rule="evenodd" d="M3.75 1.5C2.50736 1.5 1.5 2.50736 1.5 3.75V14.25C1.5 15.4926 2.50736 16.5 3.75 16.5H14.25C15.4926 16.5 16.5 15.4926 16.5 14.25V3.75C16.5 2.50736 15.4926 1.5 14.25 1.5H3.75ZM6.22392 8.02381C5.74244 8.58555 5.74244 9.41445 6.22392 9.97619L10.3056 14.7381C10.5751 15.0526 11.0486 15.089 11.3631 14.8194C11.6776 14.5499 11.714 14.0764 11.4444 13.7619L7.36281 9L11.4444 4.23809C11.714 3.9236 11.6776 3.45012 11.3631 3.18056C11.0486 2.91099 10.5751 2.94741 10.3056 3.26191L6.22392 8.02381Z" fill="#B9F500"/>
</svg>
