<svg width="781" height="213" viewBox="0 0 781 213" fill="none" xmlns="http://www.w3.org/2000/svg">
<g clip-path="url(#clip0_972_5831)">
<rect width="781" height="213" rx="16" fill="url(#paint0_linear_972_5831)"/>
<path d="M74.48 106L68.24 90.92L62 106H56.56L49.72 77.6H55.88L60.2 96.48L68.24 77.12L76.28 96.48L80.6 77.6H86.76L79.92 106H74.48ZM94.5569 106.44C91.5169 106.44 88.9835 105.48 86.9569 103.56C84.9569 101.64 83.9569 99.12 83.9569 96C83.9569 93.0133 84.9569 90.5333 86.9569 88.56C88.9569 86.56 91.4635 85.56 94.4769 85.56C97.2502 85.56 99.5835 86.4267 101.477 88.16C103.37 89.8667 104.317 92.28 104.317 95.4C104.317 96.28 104.29 96.9067 104.237 97.28H89.2769C89.4369 98.5867 90.0102 99.6133 90.9969 100.36C92.0102 101.08 93.2102 101.44 94.5969 101.44C96.9435 101.44 98.6635 100.6 99.7569 98.92L103.837 101.96C101.784 104.947 98.6902 106.44 94.5569 106.44ZM89.4769 93.56H98.8369C98.5969 92.4133 98.0502 91.5467 97.1969 90.96C96.3702 90.3733 95.4102 90.08 94.3169 90.08C93.1969 90.08 92.1702 90.3733 91.2369 90.96C90.3035 91.5467 89.7169 92.4133 89.4769 93.56ZM119.183 106.44C116.543 106.44 114.317 105.413 112.503 103.36C110.69 101.307 109.783 98.8533 109.783 96C109.783 93.1467 110.69 90.6933 112.503 88.64C114.317 86.5867 116.543 85.56 119.183 85.56C120.463 85.56 121.61 85.8267 122.623 86.36C123.637 86.8933 124.41 87.52 124.943 88.24V86H130.423V106H124.943V103.76C124.41 104.48 123.637 105.107 122.623 105.64C121.61 106.173 120.463 106.44 119.183 106.44ZM116.663 99.92C117.597 100.933 118.823 101.44 120.343 101.44C121.863 101.44 123.077 100.933 123.983 99.92C124.917 98.9067 125.383 97.6 125.383 96C125.383 94.4 124.917 93.0933 123.983 92.08C123.077 91.0667 121.863 90.56 120.343 90.56C118.823 90.56 117.597 91.0667 116.663 92.08C115.757 93.0933 115.303 94.4 115.303 96C115.303 97.6 115.757 98.9067 116.663 99.92ZM132.551 106V86H138.031V89.2C138.378 88.2133 139.004 87.4 139.911 86.76C140.844 86.0933 141.871 85.76 142.991 85.76C143.684 85.76 144.298 85.84 144.831 86V91.56C143.951 91.2667 143.124 91.12 142.351 91.12C141.044 91.12 139.991 91.6 139.191 92.56C138.418 93.4933 138.031 94.7867 138.031 96.44V106H132.551ZM153.749 106.44C150.709 106.44 148.176 105.48 146.149 103.56C144.149 101.64 143.149 99.12 143.149 96C143.149 93.0133 144.149 90.5333 146.149 88.56C148.149 86.56 150.656 85.56 153.669 85.56C156.442 85.56 158.776 86.4267 160.669 88.16C162.562 89.8667 163.509 92.28 163.509 95.4C163.509 96.28 163.482 96.9067 163.429 97.28H148.469C148.629 98.5867 149.202 99.6133 150.189 100.36C151.202 101.08 152.402 101.44 153.789 101.44C156.136 101.44 157.856 100.6 158.949 98.92L163.029 101.96C160.976 104.947 157.882 106.44 153.749 106.44ZM148.669 93.56H158.029C157.789 92.4133 157.242 91.5467 156.389 90.96C155.562 90.3733 154.602 90.08 153.509 90.08C152.389 90.08 151.362 90.3733 150.429 90.96C149.496 91.5467 148.909 92.4133 148.669 93.56ZM175.736 106H170.256V76H175.736V88.28C176.962 86.4667 178.869 85.56 181.456 85.56C183.856 85.56 185.736 86.36 187.096 87.96C188.482 89.5333 189.176 91.64 189.176 94.28V106H183.696V95.2C183.696 93.7333 183.389 92.6 182.776 91.8C182.162 90.9733 181.296 90.56 180.176 90.56C178.842 90.56 177.762 91.04 176.936 92C176.136 92.96 175.736 94.3733 175.736 96.24V106ZM200.321 106.44C197.281 106.44 194.748 105.48 192.721 103.56C190.721 101.64 189.721 99.12 189.721 96C189.721 93.0133 190.721 90.5333 192.721 88.56C194.721 86.56 197.228 85.56 200.241 85.56C203.014 85.56 205.348 86.4267 207.241 88.16C209.134 89.8667 210.081 92.28 210.081 95.4C210.081 96.28 210.054 96.9067 210.001 97.28H195.041C195.201 98.5867 195.774 99.6133 196.761 100.36C197.774 101.08 198.974 101.44 200.361 101.44C202.708 101.44 204.428 100.6 205.521 98.92L209.601 101.96C207.548 104.947 204.454 106.44 200.321 106.44ZM195.241 93.56H204.601C204.361 92.4133 203.814 91.5467 202.961 90.96C202.134 90.3733 201.174 90.08 200.081 90.08C198.961 90.08 197.934 90.3733 197.001 90.96C196.068 91.5467 195.481 92.4133 195.241 93.56ZM210.926 106V86H216.406V89.2C216.753 88.2133 217.379 87.4 218.286 86.76C219.219 86.0933 220.246 85.76 221.366 85.76C222.059 85.76 222.673 85.84 223.206 86V91.56C222.326 91.2667 221.499 91.12 220.726 91.12C219.419 91.12 218.366 91.6 217.566 92.56C216.793 93.4933 216.406 94.7867 216.406 96.44V106H210.926ZM232.124 106.44C229.084 106.44 226.551 105.48 224.524 103.56C222.524 101.64 221.524 99.12 221.524 96C221.524 93.0133 222.524 90.5333 224.524 88.56C226.524 86.56 229.031 85.56 232.044 85.56C234.817 85.56 237.151 86.4267 239.044 88.16C240.937 89.8667 241.884 92.28 241.884 95.4C241.884 96.28 241.857 96.9067 241.804 97.28H226.844C227.004 98.5867 227.577 99.6133 228.564 100.36C229.577 101.08 230.777 101.44 232.164 101.44C234.511 101.44 236.231 100.6 237.324 98.92L241.404 101.96C239.351 104.947 236.257 106.44 232.124 106.44ZM227.044 93.56H236.404C236.164 92.4133 235.617 91.5467 234.764 90.96C233.937 90.3733 232.977 90.08 231.884 90.08C230.764 90.08 229.737 90.3733 228.804 90.96C227.871 91.5467 227.284 92.4133 227.044 93.56ZM250.633 106V90.8H246.593V86H250.633V83.4C250.633 81.0267 251.353 79.16 252.793 77.8C254.233 76.44 256.06 75.76 258.273 75.76C259.633 75.76 260.793 75.9067 261.753 76.2V81.04C261.113 80.8 260.367 80.68 259.513 80.68C258.313 80.68 257.447 80.9467 256.913 81.48C256.38 81.9867 256.113 82.8533 256.113 84.08V86H261.753V90.8H256.113V106H250.633ZM277.891 103.44C275.838 105.44 273.358 106.44 270.451 106.44C267.544 106.44 265.064 105.44 263.011 103.44C260.958 101.413 259.931 98.9333 259.931 96C259.931 93.0933 260.958 90.6267 263.011 88.6C265.064 86.5733 267.544 85.56 270.451 85.56C273.358 85.56 275.838 86.5733 277.891 88.6C279.944 90.6267 280.971 93.0933 280.971 96C280.971 98.9333 279.944 101.413 277.891 103.44ZM270.451 101.32C271.864 101.32 273.038 100.827 273.971 99.84C274.931 98.8267 275.411 97.5467 275.411 96C275.411 94.4533 274.931 93.1867 273.971 92.2C273.038 91.1867 271.864 90.68 270.451 90.68C269.011 90.68 267.811 91.1867 266.851 92.2C265.918 93.1867 265.451 94.4533 265.451 96C265.451 97.5467 265.918 98.8267 266.851 99.84C267.811 100.827 269.011 101.32 270.451 101.32ZM281.723 106V86H287.203V89.2C287.549 88.2133 288.176 87.4 289.083 86.76C290.016 86.0933 291.043 85.76 292.163 85.76C292.856 85.76 293.469 85.84 294.003 86V91.56C293.123 91.2667 292.296 91.12 291.523 91.12C290.216 91.12 289.163 91.6 288.363 92.56C287.589 93.4933 287.203 94.7867 287.203 96.44V106H281.723ZM305.97 114.36H300.01L304.21 104.88L295.81 86H301.81L307.17 98.96L312.49 86H318.53L305.97 114.36ZM333.997 103.44C331.944 105.44 329.464 106.44 326.557 106.44C323.651 106.44 321.171 105.44 319.117 103.44C317.064 101.413 316.037 98.9333 316.037 96C316.037 93.0933 317.064 90.6267 319.117 88.6C321.171 86.5733 323.651 85.56 326.557 85.56C329.464 85.56 331.944 86.5733 333.997 88.6C336.051 90.6267 337.077 93.0933 337.077 96C337.077 98.9333 336.051 101.413 333.997 103.44ZM326.557 101.32C327.971 101.32 329.144 100.827 330.077 99.84C331.037 98.8267 331.517 97.5467 331.517 96C331.517 94.4533 331.037 93.1867 330.077 92.2C329.144 91.1867 327.971 90.68 326.557 90.68C325.117 90.68 323.917 91.1867 322.957 92.2C322.024 93.1867 321.557 94.4533 321.557 96C321.557 97.5467 322.024 98.8267 322.957 99.84C323.917 100.827 325.117 101.32 326.557 101.32ZM345.109 106.44C342.736 106.44 340.882 105.64 339.549 104.04C338.242 102.44 337.589 100.293 337.589 97.6V86H343.069V96.68C343.069 99.8533 344.202 101.44 346.469 101.44C347.749 101.44 348.749 100.96 349.469 100C350.216 99.04 350.589 97.6267 350.589 95.76V86H356.069V106H350.589V103.72C349.362 105.533 347.536 106.44 345.109 106.44ZM359.545 95.76L358.505 88.24V77.6H364.025V88.24L362.945 95.76H359.545ZM361.225 106.32C360.105 106.32 359.158 105.933 358.385 105.16C357.611 104.387 357.225 103.44 357.225 102.32C357.225 101.2 357.611 100.253 358.385 99.48C359.158 98.7067 360.105 98.32 361.225 98.32C362.318 98.32 363.251 98.72 364.025 99.52C364.825 100.293 365.225 101.227 365.225 102.32C365.225 103.413 364.825 104.36 364.025 105.16C363.251 105.933 362.318 106.32 361.225 106.32Z" fill="black"/>
<path d="M60.1953 140H58.9152L52.0032 131.152V140H50.5152V128.64H51.8112L58.7233 137.488V128.64H60.1953V140ZM65.7497 140.16C64.5231 140.16 63.5257 139.765 62.7577 138.976C61.9897 138.187 61.6057 137.195 61.6057 136C61.6057 134.816 61.9951 133.829 62.7737 133.04C63.5524 132.24 64.5497 131.84 65.7657 131.84C66.8431 131.84 67.7444 132.203 68.4697 132.928C69.2057 133.643 69.5737 134.619 69.5737 135.856C69.5737 136.016 69.5684 136.155 69.5577 136.272H62.9977C63.0191 137.019 63.2857 137.643 63.7977 138.144C64.3204 138.645 64.9764 138.896 65.7657 138.896C66.8857 138.896 67.7177 138.432 68.2617 137.504L69.3497 138.256C68.5711 139.525 67.3711 140.16 65.7497 140.16ZM63.0937 135.152H68.1657C68.0591 134.512 67.7764 134.005 67.3177 133.632C66.8697 133.248 66.3364 133.056 65.7177 133.056C65.0884 133.056 64.5231 133.248 64.0217 133.632C63.5311 134.005 63.2217 134.512 63.0937 135.152ZM74.4066 140.16C73.18 140.16 72.1826 139.765 71.4146 138.976C70.6466 138.187 70.2626 137.195 70.2626 136C70.2626 134.816 70.652 133.829 71.4306 133.04C72.2093 132.24 73.2066 131.84 74.4226 131.84C75.5 131.84 76.4013 132.203 77.1266 132.928C77.8626 133.643 78.2306 134.619 78.2306 135.856C78.2306 136.016 78.2253 136.155 78.2146 136.272H71.6546C71.676 137.019 71.9426 137.643 72.4546 138.144C72.9773 138.645 73.6333 138.896 74.4226 138.896C75.5426 138.896 76.3746 138.432 76.9186 137.504L78.0066 138.256C77.228 139.525 76.028 140.16 74.4066 140.16ZM71.7506 135.152H76.8226C76.716 134.512 76.4333 134.005 75.9746 133.632C75.5266 133.248 74.9933 133.056 74.3746 133.056C73.7453 133.056 73.18 133.248 72.6786 133.632C72.188 134.005 71.8786 134.512 71.7506 135.152ZM82.8395 140.16C81.7302 140.16 80.7968 139.755 80.0395 138.944C79.2928 138.133 78.9195 137.152 78.9195 136C78.9195 134.848 79.2928 133.867 80.0395 133.056C80.7968 132.245 81.7302 131.84 82.8395 131.84C83.4262 131.84 83.9702 131.973 84.4715 132.24C84.9835 132.496 85.3782 132.827 85.6555 133.232V128H87.0315V140H85.6555V138.768C85.3782 139.173 84.9835 139.509 84.4715 139.776C83.9702 140.032 83.4262 140.16 82.8395 140.16ZM83.0475 138.896C83.8368 138.896 84.4875 138.619 84.9995 138.064C85.5115 137.509 85.7675 136.821 85.7675 136C85.7675 135.179 85.5115 134.491 84.9995 133.936C84.4875 133.381 83.8368 133.104 83.0475 133.104C82.2475 133.104 81.5915 133.381 81.0795 133.936C80.5675 134.491 80.3115 135.179 80.3115 136C80.3115 136.821 80.5675 137.509 81.0795 138.064C81.5915 138.619 82.2475 138.896 83.0475 138.896ZM94.617 140.16C93.881 140.16 93.2357 140.005 92.681 139.696C92.1263 139.376 91.7263 138.912 91.481 138.304L92.601 137.68C92.7503 138.075 93.0117 138.384 93.385 138.608C93.7583 138.832 94.1743 138.944 94.633 138.944C95.0277 138.944 95.3583 138.848 95.625 138.656C95.8917 138.464 96.025 138.203 96.025 137.872C96.025 137.584 95.9183 137.344 95.705 137.152C95.5023 136.96 95.145 136.784 94.633 136.624L93.833 136.368C92.4997 135.984 91.833 135.205 91.833 134.032C91.833 133.371 92.0943 132.843 92.617 132.448C93.1503 132.043 93.8063 131.84 94.585 131.84C95.801 131.84 96.681 132.304 97.225 133.232L96.201 133.936C95.7637 133.328 95.209 133.024 94.537 133.024C94.1743 133.024 93.8597 133.115 93.593 133.296C93.337 133.467 93.209 133.696 93.209 133.984C93.209 134.251 93.289 134.48 93.449 134.672C93.6197 134.853 93.9183 135.008 94.345 135.136L95.225 135.408C96.6757 135.856 97.401 136.64 97.401 137.76C97.401 138.507 97.1397 139.093 96.617 139.52C96.105 139.947 95.4383 140.16 94.617 140.16ZM102.316 140.16C101.111 140.16 100.108 139.76 99.3081 138.96C98.5188 138.149 98.1241 137.163 98.1241 136C98.1241 134.837 98.5188 133.856 99.3081 133.056C100.108 132.245 101.111 131.84 102.316 131.84C103.511 131.84 104.503 132.245 105.292 133.056C106.092 133.856 106.492 134.837 106.492 136C106.492 137.163 106.092 138.149 105.292 138.96C104.503 139.76 103.511 140.16 102.316 140.16ZM100.3 138.048C100.823 138.603 101.495 138.88 102.316 138.88C103.137 138.88 103.804 138.603 104.316 138.048C104.828 137.493 105.084 136.811 105.084 136C105.084 135.189 104.828 134.507 104.316 133.952C103.804 133.397 103.137 133.12 102.316 133.12C101.495 133.12 100.823 133.397 100.3 133.952C99.7881 134.507 99.5321 135.189 99.5321 136C99.5321 136.811 99.7881 137.493 100.3 138.048ZM118.131 140V135.296C118.131 134.635 117.993 134.107 117.715 133.712C117.449 133.307 117.059 133.104 116.547 133.104C115.907 133.104 115.385 133.355 114.979 133.856C114.585 134.357 114.377 135.04 114.355 135.904V140H112.979V135.296C112.979 134.624 112.841 134.091 112.563 133.696C112.297 133.301 111.913 133.104 111.411 133.104C110.75 133.104 110.217 133.371 109.811 133.904C109.406 134.427 109.203 135.136 109.203 136.032V140H107.827V132H109.203V133.232C109.715 132.304 110.521 131.84 111.619 131.84C112.835 131.84 113.657 132.411 114.083 133.552C114.297 133.029 114.638 132.613 115.107 132.304C115.577 131.995 116.11 131.84 116.707 131.84C117.571 131.84 118.254 132.133 118.755 132.72C119.257 133.307 119.507 134.096 119.507 135.088V140H118.131ZM124.864 140.16C123.637 140.16 122.64 139.765 121.872 138.976C121.104 138.187 120.72 137.195 120.72 136C120.72 134.816 121.109 133.829 121.888 133.04C122.666 132.24 123.664 131.84 124.88 131.84C125.957 131.84 126.858 132.203 127.584 132.928C128.32 133.643 128.688 134.619 128.688 135.856C128.688 136.016 128.682 136.155 128.672 136.272H122.112C122.133 137.019 122.4 137.643 122.912 138.144C123.434 138.645 124.09 138.896 124.88 138.896C126 138.896 126.832 138.432 127.376 137.504L128.464 138.256C127.685 139.525 126.485 140.16 124.864 140.16ZM122.208 135.152H127.28C127.173 134.512 126.89 134.005 126.432 133.632C125.984 133.248 125.45 133.056 124.832 133.056C124.202 133.056 123.637 133.248 123.136 133.632C122.645 134.005 122.336 134.512 122.208 135.152ZM134.596 140H133.22V128H134.596V133.232C135.14 132.304 135.988 131.84 137.14 131.84C138.046 131.84 138.777 132.133 139.332 132.72C139.886 133.307 140.164 134.091 140.164 135.072V140H138.804V135.28C138.804 134.608 138.633 134.08 138.292 133.696C137.95 133.301 137.492 133.104 136.916 133.104C136.254 133.104 135.7 133.365 135.252 133.888C134.814 134.411 134.596 135.125 134.596 136.032V140ZM145.522 140.16C144.295 140.16 143.298 139.765 142.53 138.976C141.762 138.187 141.378 137.195 141.378 136C141.378 134.816 141.767 133.829 142.546 133.04C143.324 132.24 144.322 131.84 145.538 131.84C146.615 131.84 147.516 132.203 148.242 132.928C148.978 133.643 149.346 134.619 149.346 135.856C149.346 136.016 149.34 136.155 149.33 136.272H142.77C142.791 137.019 143.058 137.643 143.57 138.144C144.092 138.645 144.748 138.896 145.538 138.896C146.658 138.896 147.49 138.432 148.034 137.504L149.122 138.256C148.343 139.525 147.143 140.16 145.522 140.16ZM142.866 135.152H147.938C147.831 134.512 147.548 134.005 147.09 133.632C146.642 133.248 146.108 133.056 145.49 133.056C144.86 133.056 144.295 133.248 143.794 133.632C143.303 134.005 142.994 134.512 142.866 135.152ZM150.659 140V128H152.035V140H150.659ZM155.379 143.344H154.003V132H155.379V133.232C155.656 132.827 156.046 132.496 156.547 132.24C157.059 131.973 157.608 131.84 158.195 131.84C159.304 131.84 160.232 132.245 160.979 133.056C161.736 133.867 162.115 134.848 162.115 136C162.115 137.152 161.736 138.133 160.979 138.944C160.232 139.755 159.304 140.16 158.195 140.16C157.608 140.16 157.059 140.032 156.547 139.776C156.046 139.509 155.656 139.173 155.379 138.768V143.344ZM156.035 138.064C156.547 138.619 157.198 138.896 157.987 138.896C158.776 138.896 159.427 138.619 159.939 138.064C160.451 137.509 160.707 136.821 160.707 136C160.707 135.179 160.451 134.491 159.939 133.936C159.427 133.381 158.776 133.104 157.987 133.104C157.198 133.104 156.547 133.381 156.035 133.936C155.523 134.491 155.267 135.179 155.267 136C155.267 136.821 155.523 137.509 156.035 138.064ZM164.935 136.224V135.904C164.935 135.221 165.42 134.528 166.391 133.824C166.914 133.44 167.292 133.104 167.527 132.816C167.762 132.528 167.879 132.171 167.879 131.744C167.879 131.189 167.698 130.725 167.335 130.352C166.983 129.979 166.524 129.792 165.959 129.792C165.319 129.792 164.796 129.989 164.391 130.384C163.996 130.768 163.799 131.28 163.799 131.92H162.423C162.423 130.949 162.759 130.128 163.431 129.456C164.103 128.784 164.946 128.448 165.959 128.448C166.93 128.448 167.719 128.768 168.327 129.408C168.946 130.048 169.255 130.816 169.255 131.712C169.255 132.352 169.1 132.896 168.791 133.344C168.482 133.792 168.076 134.208 167.575 134.592C167.532 134.624 167.447 134.688 167.319 134.784C167.202 134.88 167.116 134.949 167.063 134.992C167.01 135.035 166.93 135.099 166.823 135.184C166.727 135.269 166.658 135.344 166.615 135.408C166.572 135.461 166.519 135.531 166.455 135.616C166.402 135.691 166.364 135.771 166.343 135.856C166.322 135.931 166.311 136.011 166.311 136.096V136.224H164.935ZM166.439 139.776C166.215 140.011 165.938 140.128 165.607 140.128C165.276 140.128 164.994 140.011 164.759 139.776C164.535 139.541 164.423 139.259 164.423 138.928C164.423 138.608 164.54 138.331 164.775 138.096C165.01 137.851 165.287 137.728 165.607 137.728C165.927 137.728 166.204 137.851 166.439 138.096C166.674 138.331 166.791 138.608 166.791 138.928C166.791 139.259 166.674 139.541 166.439 139.776Z" fill="black"/>
<circle opacity="0.08" cx="942" cy="140" r="242" fill="#2E2E2E"/>
<circle opacity="0.08" cx="879" cy="140" r="242" fill="#2E2E2E"/>
<path d="M590.484 40.9819C588.438 34.2528 585.19 28.3223 580.739 23.1684C576.279 18.016 570.384 14.1611 563.054 11.5947C555.724 9.02822 546.587 8.73324 535.642 10.7097C526.911 12.2866 518.104 15.42 509.22 20.1102C500.328 24.8128 492.715 30.5914 486.376 37.46L496.898 66.8166L492.531 72.5485L499.438 73.9025C505.836 68.1749 511.717 63.7932 517.076 60.7577C522.428 57.7347 528.183 55.6661 534.349 54.5526C540.514 53.4392 545.283 54.5231 548.677 57.8004C552.071 61.0885 553.926 65.4372 554.248 70.8797C554.637 77.4491 553.353 83.5729 550.414 89.2571C547.458 94.9443 544.171 100.746 540.544 106.666C538.026 110.777 535.591 114.994 533.253 119.306C530.918 123.629 528.889 128.165 527.188 132.944C525.478 137.713 524.181 142.754 523.288 148.068C522.388 153.384 522.134 159.209 522.509 165.547C522.631 167.592 522.808 170.019 523.068 172.835C523.115 173.355 523.166 173.859 523.219 174.358L516.834 175.511L524.164 180.361L558.044 174.242C557.788 172.914 557.61 171.346 557.503 169.534L557.261 165.453C557.033 161.604 557.409 157.703 558.382 153.748C559.355 149.794 560.648 145.961 562.243 142.231C563.838 138.511 565.653 134.919 567.702 131.465C569.743 127.999 571.711 124.726 573.605 121.635C576.122 117.524 578.718 113.167 581.384 108.559C584.05 103.954 586.368 99.1969 588.322 94.261C590.276 89.3251 591.822 84.0716 592.96 78.4787C594.099 72.8967 594.488 66.9343 594.112 60.5856C593.736 54.237 592.522 47.716 590.484 40.9855L590.484 40.9819Z" fill="#82AC00"/>
<path d="M527.186 53.2812C521.096 54.381 515.41 56.4018 510.121 59.3466C504.825 62.3038 499.014 66.5634 492.687 72.1294L479.832 36.9209C486.1 30.2527 493.625 24.633 502.412 20.0514C511.192 15.4823 519.893 12.4182 528.517 10.8608C539.327 8.90841 548.351 9.16055 555.587 11.6159C562.822 14.0712 568.639 17.7784 573.038 22.7467C577.428 27.7164 580.627 33.4421 582.639 39.9449C584.643 46.4492 585.835 52.764 586.198 58.8941C586.561 65.0241 586.17 70.8045 585.04 76.2085C583.909 81.6235 582.375 86.713 580.44 91.495C578.505 96.277 576.209 100.887 573.572 105.353C570.934 109.82 568.364 114.046 565.873 118.031C563.999 121.03 562.051 124.203 560.032 127.564C558.004 130.914 556.209 134.395 554.628 138.001C553.049 141.616 551.767 145.329 550.802 149.157C549.836 152.986 549.459 156.763 549.68 160.485L549.914 164.433C550.018 166.188 550.191 167.703 550.442 168.987L516.977 175.031C516.5 172.901 516.149 170.478 515.903 167.754C515.65 165.032 515.477 162.684 515.36 160.705C514.996 154.575 515.254 148.939 516.15 143.791C517.037 138.647 518.325 133.764 520.019 129.144C521.705 124.515 523.713 120.12 526.025 115.928C528.338 111.748 530.749 107.657 533.24 103.672C536.828 97.9315 540.081 92.3048 543.008 86.792C545.917 81.2823 547.192 75.3533 546.816 68.9991C546.504 63.735 544.679 59.5352 541.33 56.3671C537.981 53.2099 533.266 52.1795 527.184 53.2778L527.186 53.2812Z" fill="#C5F72B"/>
<path d="M565.086 219.791C565.554 227.662 563.947 234.09 560.264 239.085C556.584 244.088 552.262 247.029 547.295 247.925C542.328 248.822 537.746 247.488 533.556 243.905C529.371 240.33 527.043 234.612 526.575 226.741C526.108 218.87 527.715 212.451 531.39 207.449C537.056 199.736 545.932 196.644 553.301 200.01C559.84 202.996 564.541 210.61 565.086 219.791Z" fill="#82AC00"/>
<path d="M558.634 220.681C559.101 228.553 557.494 234.982 553.811 239.978C550.131 244.982 545.808 247.923 540.84 248.82C535.872 249.716 531.29 248.382 527.099 244.799C522.915 241.223 520.586 235.504 520.118 227.632C519.651 219.76 521.259 213.339 524.934 208.336C528.615 203.341 532.937 200.391 537.911 199.493C542.884 198.596 547.454 199.941 551.646 203.515C555.837 207.099 558.167 212.818 558.634 220.681Z" fill="#C5F72B"/>
<path d="M706.742 63.2338C705.651 55.9061 703.275 48.8619 699.615 42.0798C695.947 35.2957 690.699 29.1827 683.871 23.7318C677.043 18.2808 668.139 14.2905 657.157 11.7607C648.396 9.7424 639.35 9.19658 630.017 10.1229C620.676 11.058 612.441 13.5511 605.305 17.613L611.628 50.2288L606.576 53.9927L613.154 58.1013C620.194 55.1652 626.544 53.3186 632.201 52.5608C637.85 51.8119 643.764 52.1483 649.951 53.5735C656.137 54.9986 660.659 57.9792 663.537 62.5203C666.415 67.0722 667.641 72.0235 667.219 77.41C666.71 83.9116 664.623 89.3044 660.976 93.6015C657.312 97.8948 653.308 102.164 648.955 106.41C645.934 109.359 642.978 112.443 640.106 115.659C637.233 118.887 634.633 122.444 632.321 126.369C630.001 130.281 628.047 134.622 626.454 139.393C624.852 144.161 623.814 149.682 623.323 155.955C623.165 157.98 623.01 160.395 622.883 163.22C622.858 163.74 622.84 164.248 622.825 164.751L616.418 163.276L622.937 170.931L656.932 178.763C656.86 177.376 656.899 175.79 657.039 173.997L657.356 169.958C657.654 166.149 658.551 162.534 660.039 159.11C661.527 155.686 663.312 152.509 665.379 149.553C667.444 146.608 669.707 143.875 672.181 141.37C674.648 138.852 677.018 136.489 679.291 134.272C682.313 131.323 685.444 128.168 688.678 124.8C691.912 121.434 694.826 117.781 697.407 113.807C699.989 109.833 702.214 105.387 704.086 100.447C705.957 95.5186 707.146 89.919 707.638 83.6358C708.129 77.3525 707.824 70.5631 706.742 63.2373L706.742 63.2338Z" fill="#82AC00"/>
<path d="M643.236 50.0914C637.126 48.6838 631.287 48.3293 625.712 49.0281C620.127 49.7357 613.862 51.4922 606.915 54.3008L599.102 15.0925C606.141 11.196 614.268 8.82123 623.49 7.96076C632.702 7.1091 641.634 7.67883 650.286 9.67205C661.132 12.1707 669.931 16.0735 676.68 21.3781C683.43 26.6827 688.621 32.621 692.253 39.2018C695.878 45.7806 698.233 52.6063 699.322 59.701C700.402 66.7937 700.713 73.3742 700.238 79.4403C699.763 85.5065 698.596 90.9289 696.758 95.6884C694.918 100.458 692.727 104.751 690.185 108.583C687.643 112.416 684.771 115.936 681.584 119.179C678.398 122.422 675.31 125.461 672.331 128.298C670.09 130.434 667.754 132.707 665.323 135.134C662.883 137.546 660.654 140.179 658.619 143.02C656.584 145.871 654.826 148.935 653.362 152.24C651.898 155.545 651.018 159.039 650.73 162.723L650.424 166.63C650.288 168.367 650.252 169.899 650.323 171.242L616.748 163.507C616.57 161.257 616.555 158.775 616.683 156.045C616.804 153.314 616.953 150.977 617.106 149.018C617.581 142.952 618.597 137.615 620.171 133.008C621.737 128.4 623.659 124.208 625.943 120.435C628.221 116.649 630.781 113.219 633.613 110.109C636.443 107.011 639.356 104.038 642.335 101.2C646.624 97.1131 650.571 92.9996 654.183 88.8633C657.777 84.7233 659.828 79.5156 660.321 73.2276C660.728 68.0184 659.511 63.2233 656.662 58.8063C653.812 54.4 649.337 51.4931 643.235 50.0875L643.236 50.0914Z" fill="#C5F72B"/>
<path d="M653.412 226.314C652.802 234.094 650.359 239.643 646.08 242.97C641.803 246.306 637.178 247.392 632.199 246.246C627.221 245.1 622.922 241.959 619.31 236.808C615.704 231.666 614.202 225.209 614.813 217.429C615.423 209.649 617.866 204.109 622.138 200.772C628.724 195.626 637.822 196.237 644.571 202.466C650.561 207.993 654.124 217.239 653.412 226.314Z" fill="#82AC00"/>
<path d="M646.989 225.149C646.378 232.93 643.935 238.481 639.656 241.808C635.378 245.144 630.752 246.231 625.773 245.085C620.793 243.939 616.494 240.797 612.882 235.644C609.275 230.502 607.773 224.043 608.384 216.262C608.994 208.48 611.437 202.939 615.709 199.601C619.987 196.273 624.613 195.178 629.598 196.325C634.583 197.473 638.87 200.62 642.484 205.764C646.096 210.917 647.598 217.376 646.989 225.149Z" fill="#C5F72B"/>
</g>
<defs>
<linearGradient id="paint0_linear_972_5831" x1="0" y1="106.5" x2="781" y2="106.5" gradientUnits="userSpaceOnUse">
<stop stop-color="#D6F96B"/>
<stop offset="1" stop-color="#719500"/>
</linearGradient>
<clipPath id="clip0_972_5831">
<rect width="781" height="213" rx="16" fill="white"/>
</clipPath>
</defs>
</svg>
