<svg width="14" height="15" viewBox="0 0 14 15" fill="none" xmlns="http://www.w3.org/2000/svg">
<path d="M2.05086 1.15373C1.66033 0.763209 1.02717 0.763209 0.636643 1.15373C0.246119 1.54426 0.246119 2.17742 0.636643 2.56795L5.58639 7.51769L0.636643 12.4674C0.246119 12.858 0.246119 13.4911 0.636643 13.8817C1.02717 14.2722 1.66033 14.2722 2.05086 13.8817L7.0006 8.93191L11.9504 13.8817C12.3409 14.2722 12.974 14.2722 13.3646 13.8817C13.7551 13.4911 13.7551 12.858 13.3646 12.4674L8.41482 7.51769L13.3646 2.56795C13.7551 2.17742 13.7551 1.54426 13.3646 1.15373C12.974 0.763209 12.3409 0.763209 11.9504 1.15373L7.0006 6.10348L2.05086 1.15373Z" fill="white"/>
</svg>
