<svg width="531" height="335" viewBox="0 0 531 335" fill="none" xmlns="http://www.w3.org/2000/svg">
<path d="M0.689331 43.1719L43.5333 322.484L375.689 281.618L342.086 0.517578L0.689331 43.1719Z" fill="#383838"/>
<path d="M18.1682 80.8669L52.1236 309.341L366.042 273.245L337.533 40.9226L18.1682 80.8669Z" fill="#222220"/>
<path d="M310.651 26.7502C310.434 31.7907 306.179 35.7201 301.112 35.5033C296.044 35.2865 292.142 31.0319 292.359 25.9643C292.575 20.8967 296.83 16.9945 301.898 17.2112C306.938 17.428 310.867 21.6826 310.651 26.7502Z" fill="#EF8A62"/>
<path d="M333.902 24.4193C333.685 29.4598 329.43 33.3892 324.363 33.1724C319.322 32.9556 315.393 28.701 315.61 23.6334C315.827 18.593 320.081 14.6636 325.149 14.8804C330.216 15.0972 334.119 19.3518 333.902 24.4193Z" fill="#F4CA60"/>
<path d="M286.532 28.8632C286.315 33.9037 282.061 37.8331 276.993 37.6163C271.953 37.3995 268.023 33.1449 268.24 28.0773C268.457 23.0098 272.712 19.1075 277.779 19.3243C282.847 19.5411 286.749 23.7957 286.532 28.8632Z" fill="#CCED98"/>
<path d="M94.1257 133.12L66.9121 136.515L67.7238 143.023L94.9374 139.628L94.1257 133.12Z" fill="#CCED98"/>
<path d="M116.095 130.378L98.1316 132.619L98.9433 139.126L116.906 136.886L116.095 130.378Z" fill="#F4CA60"/>
<path d="M147.841 137.456L79.7798 145.946L80.5915 152.453L148.652 143.964L147.841 137.456Z" fill="white"/>
<path d="M202.836 130.582L151.152 137.029L151.963 143.537L203.648 137.09L202.836 130.582Z" fill="white"/>
<path d="M214.349 129.155L205.986 130.198L206.797 136.705L215.16 135.662L214.349 129.155Z" fill="#CCED98"/>
<path d="M96.8403 154.825L81.136 156.784L81.9477 163.291L97.652 161.332L96.8403 154.825Z" fill="#CCED98"/>
<path d="M91.0744 166.557L75.3701 168.515L76.1818 175.023L91.8861 173.064L91.0744 166.557Z" fill="#EF8A62"/>
<path d="M94.3969 193.177L78.6926 195.136L79.5043 201.644L95.2086 199.685L94.3969 193.177Z" fill="#EF8A62"/>
<path d="M150.172 170.227L89.4789 177.798L90.2906 184.305L150.983 176.735L150.172 170.227Z" fill="white"/>
<path d="M263.62 156.099L251.492 157.611L252.304 164.119L264.431 162.606L263.62 156.099Z" fill="#CCED98"/>
<path d="M249.561 157.823L151.893 170.005L152.705 176.513L250.372 164.33L249.561 157.823Z" fill="white"/>
<path d="M153.926 200.369L93.2336 207.939L94.0454 214.447L154.738 206.876L153.926 200.369Z" fill="white"/>
<path d="M267.348 186.243L255.22 187.755L256.032 194.263L268.16 192.75L267.348 186.243Z" fill="#F4CA60"/>
<path d="M253.343 187.963L155.675 200.146L156.487 206.653L254.154 194.471L253.343 187.963Z" fill="white"/>
<path d="M134.664 214.622L103.471 218.513L104.282 225.02L135.476 221.129L134.664 214.622Z" fill="#EF8A62"/>
<path d="M277.602 196.79L265.474 198.303L266.285 204.81L278.413 203.298L277.602 196.79Z" fill="#CCED98"/>
<path d="M252.072 211.839L239.944 213.352L240.756 219.86L252.884 218.347L252.072 211.839Z" fill="#CCED98"/>
<path d="M300.369 241.375L288.241 242.888L289.053 249.396L301.18 247.883L300.369 241.375Z" fill="#F4CA60"/>
<path d="M263.586 198.561L135.935 214.484L136.747 220.991L264.398 205.069L263.586 198.561Z" fill="white"/>
<path d="M152.361 224.281L121.168 228.172L121.979 234.68L153.173 230.789L152.361 224.281Z" fill="#EF8A62"/>
<path d="M237.436 213.677L153.644 224.128L154.456 230.636L238.248 220.184L237.436 213.677Z" fill="white"/>
<path d="M170.058 233.914L138.865 237.804L139.676 244.312L170.87 240.421L170.058 233.914Z" fill="#EF8A62"/>
<path d="M298.98 217.852L171.329 233.774L172.141 240.282L299.792 224.36L298.98 217.852Z" fill="white"/>
<path d="M187.728 243.576L156.535 247.467L157.346 253.974L188.54 250.083L187.728 243.576Z" fill="#EF8A62"/>
<path d="M316.677 227.512L189.026 243.434L189.837 249.942L317.489 234.019L316.677 227.512Z" fill="white"/>
<path d="M189.19 255.256L157.996 259.146L158.808 265.654L190.001 261.763L189.19 255.256Z" fill="#EF8A62"/>
<path d="M285.631 243.214L190.464 255.085L191.275 261.593L286.442 249.722L285.631 243.214Z" fill="white"/>
<path d="M204.185 141.42L100.817 154.314L101.628 160.822L204.997 147.928L204.185 141.42Z" fill="white"/>
<path d="M215.711 140.014L207.348 141.057L208.159 147.565L216.522 146.521L215.711 140.014Z" fill="#CCED98"/>
<path d="M57.787 91.8424C57.787 91.8424 61.066 125.744 62.0145 125.717C63.8843 125.689 112.175 118.888 112.175 118.888L106.999 84.6069L57.787 91.8424Z" fill="#EF8A62"/>
<path d="M74.0193 93.1699L66.8922 108.617L80.9567 119.944L83.477 117.18L71.3636 107.722L78.1655 94.7688L74.0193 93.1699Z" fill="white"/>
<path d="M83.8835 93.8208L98.3546 102.52L91.1191 116.964L93.4496 118.888L102.69 101.138L84.8591 90.8398L83.8835 93.8208Z" fill="white"/>
<path d="M530.311 119.354L482.272 319.388C482.272 319.388 342.814 290.532 340.567 289.267C338.321 288.003 378.796 87.1487 378.796 87.1487L530.311 119.354Z" fill="#383838"/>
<path d="M383.95 109.458L350.658 282.487L477.23 309.391L517.232 137.788L383.95 109.458Z" fill="#222220"/>
<path d="M415.384 150.02L408.546 148.566L407.802 152.068L414.639 153.521L415.384 150.02Z" fill="#A3D2F4"/>
<path d="M397.728 146.267L390.891 144.813L390.146 148.315L396.984 149.769L397.728 146.267Z" fill="white"/>
<path d="M396.185 153.525L389.348 152.071L388.604 155.573L395.441 157.026L396.185 153.525Z" fill="white"/>
<path d="M394.643 160.782L387.805 159.329L387.061 162.831L393.898 164.284L394.643 160.782Z" fill="white"/>
<path d="M393.11 168.042L386.272 166.589L385.528 170.091L392.365 171.544L393.11 168.042Z" fill="white"/>
<path d="M391.565 175.31L384.728 173.857L383.983 177.358L390.82 178.812L391.565 175.31Z" fill="white"/>
<path d="M390.022 182.568L383.185 181.115L382.44 184.616L389.278 186.07L390.022 182.568Z" fill="white"/>
<path d="M388.479 189.826L381.642 188.373L380.898 191.874L387.735 193.328L388.479 189.826Z" fill="white"/>
<path d="M386.937 197.084L380.1 195.63L379.355 199.132L386.193 200.585L386.937 197.084Z" fill="white"/>
<path d="M385.394 204.341L378.557 202.888L377.812 206.39L384.65 207.843L385.394 204.341Z" fill="white"/>
<path d="M383.861 211.601L377.024 210.148L376.28 213.65L383.117 215.103L383.861 211.601Z" fill="white"/>
<path d="M382.318 218.859L375.481 217.406L374.737 220.908L381.574 222.361L382.318 218.859Z" fill="white"/>
<path d="M380.776 226.117L373.938 224.664L373.194 228.166L380.031 229.619L380.776 226.117Z" fill="white"/>
<path d="M379.233 233.375L372.396 231.922L371.651 235.423L378.489 236.877L379.233 233.375Z" fill="white"/>
<path d="M377.688 240.643L370.851 239.189L370.107 242.691L376.944 244.145L377.688 240.643Z" fill="white"/>
<path d="M376.145 247.901L369.308 246.447L368.564 249.949L375.401 251.402L376.145 247.901Z" fill="white"/>
<path d="M374.603 255.158L367.766 253.705L367.021 257.207L373.859 258.66L374.603 255.158Z" fill="white"/>
<path d="M424.206 151.895L417.369 150.442L416.625 153.943L423.462 155.397L424.206 151.895Z" fill="#EF8A62"/>
<path d="M473.84 162.435L463.481 160.233L462.737 163.735L473.095 165.936L473.84 162.435Z" fill="#A3D2F4"/>
<path d="M461.495 159.811L426.194 152.307L425.45 155.809L460.751 163.312L461.495 159.811Z" fill="white"/>
<path d="M413.841 157.278L407.004 155.824L406.259 159.326L413.097 160.779L413.841 157.278Z" fill="#A3D2F4"/>
<path d="M466.477 168.455L431.792 161.083L431.048 164.585L465.733 171.957L466.477 168.455Z" fill="white"/>
<path d="M408.481 162.916L401.644 161.463L400.9 164.965L407.737 166.418L408.481 162.916Z" fill="#EF8A62"/>
<path d="M413.639 170.78L406.802 169.327L406.057 172.829L412.895 174.282L413.639 170.78Z" fill="#EF8A62"/>
<path d="M436.489 175.637L415.067 171.084L414.323 174.586L435.744 179.139L436.489 175.637Z" fill="white"/>
<path d="M459.34 180.484L437.919 175.931L437.174 179.433L458.596 183.986L459.34 180.484Z" fill="white"/>
<path d="M470.168 182.786L460.778 180.79L460.034 184.292L469.424 186.288L470.168 182.786Z" fill="#F4CA60"/>
<path d="M415.674 177.991L408.837 176.538L408.093 180.04L414.93 181.493L415.674 177.991Z" fill="#EF8A62"/>
<path d="M436.247 182.354L417.104 178.285L416.36 181.787L435.503 185.856L436.247 182.354Z" fill="#A3D2F4"/>
<path d="M456.817 186.726L437.675 182.657L436.93 186.159L456.073 190.228L456.817 186.726Z" fill="white"/>
<path d="M421.488 200.083L404.605 196.494L403.861 199.996L420.744 203.585L421.488 200.083Z" fill="#EF8A62"/>
<path d="M439.75 203.965L422.867 200.376L422.123 203.878L439.006 207.466L439.75 203.965Z" fill="white"/>
<path d="M458.012 207.846L441.129 204.258L440.385 207.76L457.268 211.348L458.012 207.846Z" fill="#F4CA60"/>
<path d="M436.318 218.141L416.98 214.03L416.236 217.532L435.574 221.642L436.318 218.141Z" fill="white"/>
<path d="M422.551 221.441L415.714 219.987L414.969 223.489L421.807 224.942L422.551 221.441Z" fill="#EF8A62"/>
<path d="M448.296 226.913L424.302 221.813L423.557 225.314L447.551 230.415L448.296 226.913Z" fill="#A3D2F4"/>
<path d="M454.458 228.222L449.43 227.154L448.686 230.656L453.714 231.724L454.458 228.222Z" fill="#F4CA60"/>
<path d="M438.182 233.708L431.344 232.255L430.6 235.757L437.437 237.21L438.182 233.708Z" fill="#A3D2F4"/>
<path d="M443.339 243.065L436.502 241.612L435.758 245.114L442.595 246.567L443.339 243.065Z" fill="#EF8A62"/>
<path d="M451.869 244.878L445.031 243.425L444.287 246.927L451.124 248.38L451.869 244.878Z" fill="#A3D2F4"/>
<path d="M477.254 250.264L453.563 245.228L452.819 248.73L476.509 253.765L477.254 250.264Z" fill="white"/>
<path d="M441.659 250.969L434.822 249.515L434.078 253.017L440.915 254.47L441.659 250.969Z" fill="#A3D2F4"/>
<path d="M481.296 259.383L469.822 256.945L469.078 260.446L480.552 262.885L481.296 259.383Z" fill="#F4CA60"/>
<path d="M468.646 256.705L447.235 252.154L446.49 255.656L467.902 260.207L468.646 256.705Z" fill="white"/>
<path d="M399.172 123.408L393.367 136.384L395.783 136.898L401.451 123.892" fill="white"/>
<path d="M405.648 124.784L399.843 137.761L402.259 138.274L407.927 125.269" fill="white"/>
<path d="M412.974 127.977L410.303 127.409L409.736 130.08L412.406 130.647L412.974 127.977Z" fill="white"/>
<path d="M411.279 135.949L408.609 135.381L408.041 138.052L410.712 138.619L411.279 135.949Z" fill="white"/>
<path d="M519.941 128.845C520.413 126.625 518.997 124.433 516.767 123.959C514.537 123.485 512.355 124.902 511.881 127.132C511.407 129.362 512.824 131.545 515.054 132.019C517.284 132.493 519.467 131.076 519.941 128.845Z" fill="#F4CA60"/>
<path d="M507.772 126.259C508.244 124.039 506.829 121.847 504.599 121.372C502.369 120.898 500.187 122.316 499.712 124.546C499.238 126.776 500.656 128.958 502.886 129.432C505.116 129.906 507.298 128.489 507.772 126.259Z" fill="#EF8A62"/>
<path d="M495.614 123.675C496.086 121.454 494.671 119.262 492.441 118.788C490.211 118.314 488.028 119.731 487.554 121.962C487.08 124.192 488.497 126.374 490.728 126.848C492.958 127.322 495.14 125.905 495.614 123.675Z" fill="#CCED98"/>
<path d="M420.302 33.001H379.923C377.204 33.001 375 35.2052 375 37.9243V59.8332C375 62.5523 377.204 64.7566 379.923 64.7566H420.302C423.021 64.7566 425.225 62.5523 425.225 59.8332V37.9243C425.225 35.2052 423.021 33.001 420.302 33.001Z" fill="white" stroke="#011635" stroke-width="1.0257" stroke-linecap="round" stroke-linejoin="round"/>
<path d="M381.38 42.7929L385.264 38.9021" stroke="#011635" stroke-width="1.0257" stroke-linecap="round" stroke-linejoin="round"/>
<path d="M381.38 38.9021L385.264 42.7929" stroke="#011635" stroke-width="1.0257" stroke-linecap="round" stroke-linejoin="round"/>
<path d="M390.711 43.8468H391.976V51.3123C391.976 51.9786 391.853 52.5446 391.608 53.0103C391.364 53.4761 391.019 53.8296 390.573 54.071C390.128 54.3124 389.603 54.4331 388.998 54.4331C388.427 54.4331 387.918 54.3294 387.473 54.122C387.028 53.9112 386.677 53.6121 386.422 53.2245C386.167 52.837 386.04 52.3763 386.04 51.8426H387.284C387.284 52.1384 387.357 52.3967 387.504 52.6177C387.653 52.8353 387.857 53.0052 388.115 53.1276C388.374 53.25 388.668 53.3112 388.998 53.3112C389.361 53.3112 389.671 53.2347 389.926 53.0817C390.181 52.9288 390.374 52.7044 390.507 52.4086C390.643 52.1095 390.711 51.744 390.711 51.3123V43.8468ZM394.938 54.2903H393.613L397.447 43.8468H398.753L402.587 54.2903H401.262L398.141 45.499H398.059L394.938 54.2903ZM395.428 50.2108H400.772V51.3327H395.428V50.2108ZM403.661 43.8468L406.761 52.6381H406.884L409.984 43.8468H411.31L407.475 54.2903H406.17L402.335 43.8468H403.661ZM412.467 54.2903H411.142L414.976 43.8468H416.282L420.116 54.2903H418.791L415.67 45.499H415.588L412.467 54.2903ZM412.957 50.2108H418.301V51.3327H412.957V50.2108Z" fill="#011635"/>
<path d="M72.9289 277.821L40.2165 275.077C37.8604 274.879 35.7902 276.629 35.5925 278.985L31.5876 326.724C31.3899 329.08 33.1397 331.15 35.4957 331.348L68.2082 334.092C70.5643 334.29 72.6345 332.54 72.8321 330.184L76.8371 282.445C77.0348 280.089 75.285 278.019 72.9289 277.821Z" fill="#1C1D19" stroke="#B9F500" stroke-width="0.891886" stroke-linecap="round" stroke-linejoin="round"/>
<path d="M40.4128 283.593L44.0371 280.482" stroke="#B9F500" stroke-width="0.891886" stroke-linecap="round" stroke-linejoin="round"/>
<path d="M40.6696 280.225L43.7803 283.85" stroke="#B9F500" stroke-width="0.891886" stroke-linecap="round" stroke-linejoin="round"/>
<path d="M39.7026 304.412L39.7951 303.199L49.9363 298.971L49.7884 300.912L42.025 303.949L42.0949 303.832L42.0717 304.135L42.0204 304.009L49.2337 308.188L49.0857 310.128L39.7026 304.412ZM59.5666 295.071L53.1474 313.274L51.5103 313.149L57.9295 294.946L59.5666 295.071ZM71.1416 306.809L61.0004 311.037L61.1483 309.096L68.9117 306.059L68.8419 306.176L68.865 305.873L68.9164 305.999L61.7031 301.82L61.851 299.88L71.2341 305.596L71.1416 306.809Z" fill="#B9F500"/>
</svg>
