<svg width="450" height="394" viewBox="0 0 450 394" fill="none" xmlns="http://www.w3.org/2000/svg">
<g clip-path="url(#clip0_1113_7346)">
<mask id="mask0_1113_7346" style="mask-type:luminance" maskUnits="userSpaceOnUse" x="0" y="0" width="450" height="394">
<path d="M0 0.629883H450V393.989H0V0.629883Z" fill="white"/>
</mask>
<g mask="url(#mask0_1113_7346)">
<path d="M262.256 274.676C256.417 278.799 249.187 280.453 242.136 279.277C235.106 278.103 228.83 274.184 224.689 268.383L217.688 258.575C217.502 258.316 217.369 258.022 217.298 257.71C217.226 257.399 217.217 257.077 217.27 256.762C217.378 256.125 217.733 255.556 218.258 255.18L258.399 226.412C258.924 226.036 259.576 225.883 260.213 225.988C260.848 226.092 261.416 226.445 261.789 226.968L268.651 236.578C277.343 248.757 274.541 266.008 262.256 274.676ZM203.951 250.486C203.573 249.957 203.303 249.358 203.157 248.724C203.01 248.088 202.99 247.429 203.098 246.786C203.206 246.143 203.44 245.527 203.786 244.974C204.133 244.42 204.584 243.939 205.114 243.558L251.304 210.456C252.374 209.687 253.705 209.374 255.005 209.584C255.647 209.689 256.262 209.92 256.814 210.263C257.367 210.606 257.846 211.055 258.224 211.584C258.968 212.629 259.499 213.81 259.786 215.06C260.072 216.31 260.11 217.604 259.896 218.868C259.463 221.429 258.035 223.716 255.923 225.228L217.581 252.711C216.536 253.461 215.355 253.998 214.103 254.292C212.853 254.586 211.558 254.631 210.291 254.424C209.027 254.218 207.816 253.764 206.728 253.088C205.64 252.412 204.696 251.528 203.951 250.486ZM223.191 194.804L223.554 194.544C224.479 193.88 225.629 193.61 226.753 193.793C227.307 193.884 227.838 194.083 228.316 194.38C228.793 194.677 229.207 195.065 229.534 195.522L242.578 213.798L235.222 219.07L222.178 200.794C221.851 200.336 221.618 199.818 221.492 199.269C221.366 198.721 221.35 198.153 221.444 197.598C221.633 196.475 222.26 195.471 223.186 194.807L223.191 194.804ZM218.812 230.834L211.462 236.101L198.416 217.825C198.09 217.367 197.857 216.848 197.731 216.3C197.605 215.751 197.589 215.183 197.682 214.628C197.872 213.505 198.499 212.501 199.425 211.837L199.788 211.578C200.713 210.915 201.864 210.644 202.987 210.826C203.542 210.917 204.074 211.116 204.551 211.413C205.029 211.71 205.443 212.098 205.769 212.556L218.812 230.834ZM450.217 395.228L444.334 401.476C438.016 392.861 433.501 382.729 430.453 370.65C429.886 368.394 429.334 366.135 428.795 363.872C424.126 344.482 419.296 324.431 400.877 315.583C382.458 306.736 364.49 311.127 345.445 315.761C338.695 317.403 331.715 319.102 324.64 320.206C310.221 322.465 298.441 320.842 289.626 315.382C288.542 314.708 287.497 313.973 286.496 313.18C284.395 311.489 282.481 309.578 280.785 307.48C279.945 306.452 279.139 305.397 278.367 304.317C276.66 301.86 274.973 299.384 273.234 296.947L272.03 295.262L269.335 297.192L267.5 294.635L270.193 292.703L268.798 290.751L266.103 292.681L264.268 290.124L266.962 288.19L265.045 285.507L262.228 287.528L256.925 280.097C261.765 278.406 266.034 275.39 269.245 271.392L274.497 278.749L271.929 280.6L271.951 280.62L272.511 281.405L273.158 282.308L273.853 283.282L276.419 281.433L278.255 283.991L275.69 285.84L276.295 286.691C276.56 287.057 276.83 287.436 277.083 287.794L279.648 285.945L281.486 288.504L278.918 290.355L279.547 291.237L280.26 292.232L280.41 292.448C281.422 293.865 282.403 295.311 283.394 296.749C284.385 298.188 285.354 299.606 286.41 300.99C286.836 301.545 287.273 302.092 287.718 302.635C288.163 303.179 288.63 303.681 289.11 304.183C289.59 304.685 290.097 305.174 290.621 305.643C291.154 306.119 291.706 306.573 292.277 307.003C292.848 307.433 293.477 307.86 294.103 308.25C301.168 312.627 311.024 313.864 323.402 311.922C330.135 310.867 336.941 309.208 343.538 307.615C363.172 302.833 383.474 297.888 404.584 308.025C426.572 318.585 432.112 341.588 437 361.884C437.532 364.096 438.082 366.379 438.636 368.571C441.26 379.086 445.075 387.851 450.217 395.228ZM165.305 138.574C159.515 142.786 155.615 149.108 154.449 156.173C153.284 163.217 154.957 170.436 159.103 176.248L166.102 186.059C166.287 186.318 166.522 186.537 166.793 186.705C167.064 186.873 167.365 186.986 167.679 187.037C168.316 187.14 168.968 186.986 169.492 186.61L209.636 157.829C210.162 157.453 210.517 156.885 210.625 156.248C210.679 155.934 210.669 155.612 210.598 155.301C210.527 154.99 210.395 154.696 210.21 154.436L203.348 144.826C194.656 132.646 177.46 129.729 165.305 138.574ZM169.304 201.684C169.682 202.213 170.161 202.662 170.714 203.005C171.266 203.349 171.881 203.579 172.523 203.683C173.167 203.788 173.825 203.765 174.46 203.616C175.095 203.466 175.695 203.193 176.224 202.812L222.412 169.707C223.484 168.939 224.208 167.778 224.428 166.478C224.535 165.834 224.516 165.177 224.369 164.543C224.223 163.908 223.953 163.309 223.575 162.78C222.831 161.737 221.887 160.852 220.799 160.176C219.711 159.499 218.5 159.045 217.236 158.839C215.969 158.632 214.674 158.677 213.424 158.97C212.172 159.265 210.99 159.802 209.945 160.551L171.603 188.038C169.49 189.549 168.061 191.836 167.629 194.399C167.415 195.665 167.453 196.96 167.741 198.211C168.028 199.461 168.559 200.641 169.304 201.684ZM164.075 136.503C161.957 138.016 160.069 139.826 158.467 141.877L153.164 134.447L155.98 132.428L154.065 129.742L151.37 131.676L149.532 129.117L152.225 127.186L150.833 125.232L148.14 127.163L146.302 124.604L148.997 122.675L148.61 122.128L146.974 119.837C145.945 118.399 144.977 116.922 143.971 115.468C142.133 112.814 140.262 110.183 138.357 107.576C136.863 105.529 135.325 103.519 133.709 101.566C132.13 99.6461 130.452 97.8093 128.683 96.0628C126.981 94.374 125.148 92.8227 123.201 91.4237C121.312 90.0736 119.279 88.9376 117.139 88.0365C114.989 87.1413 112.727 86.5447 110.415 86.2633C102.45 85.3205 94.7273 88.123 86.5515 91.0961C82.0094 92.7453 77.3135 94.4527 72.502 95.5088C65.7646 97.0532 58.7661 97.0639 52.024 95.5401C45.2946 94.0193 38.995 90.9997 33.5946 86.7064C19.1411 75.4337 14.0701 58.944 9.17371 42.9915C4.95305 29.3158 0.969628 16.3594 -8.5018 6.67087L-2.71073 0.520996C8.35789 11.6973 12.8464 26.309 17.2025 40.4638C21.9321 55.8492 26.4015 70.3812 38.7842 80.0392C48.0926 87.2995 59.149 89.7982 70.7548 87.2666C75.0191 86.3375 79.2559 84.807 83.7237 83.1746C92.4689 79.9956 101.509 76.7132 111.458 77.8956C129.496 80.0407 140.824 96.2434 149.927 109.257C151.902 112.09 153.876 114.923 155.881 117.734L158.447 115.883L160.283 118.44L157.715 120.291L159.11 122.243L161.675 120.394L163.513 122.953L160.948 124.801L162.865 127.489L165.432 125.638L170.684 132.996C168.33 133.856 166.106 135.036 164.075 136.503ZM101.283 190.983C100.934 190.494 100.738 189.911 100.721 189.31C100.708 188.86 100.795 188.412 100.975 187.999C101.155 187.585 101.424 187.217 101.763 186.92C102.102 186.623 102.503 186.404 102.936 186.28C103.369 186.155 103.825 186.128 104.27 186.2L130.219 190.443C130.614 190.507 130.991 190.648 131.331 190.859C131.67 191.07 131.965 191.346 132.197 191.671C132.429 191.996 132.595 192.364 132.684 192.754C132.773 193.143 132.784 193.547 132.717 193.94C132.582 194.739 132.137 195.451 131.48 195.923C130.823 196.394 130.006 196.586 129.207 196.457L103.258 192.214C102.864 192.15 102.486 192.008 102.147 191.797C101.808 191.585 101.514 191.309 101.283 190.983ZM91.3347 237.525C91.0441 237.117 90.8586 236.644 90.7948 236.147C90.731 235.65 90.7908 235.146 90.9689 234.678C91.1471 234.208 91.4381 233.79 91.8162 233.459C92.1943 233.128 92.6479 232.896 93.137 232.782L106.748 229.589C107.529 229.414 108.347 229.555 109.023 229.982C109.7 230.409 110.18 231.086 110.359 231.866C110.537 232.647 110.402 233.467 109.982 234.149C109.562 234.833 108.89 235.324 108.112 235.519L94.4984 238.714C93.9127 238.852 93.2989 238.813 92.7353 238.602C92.1718 238.39 91.6842 238.015 91.3347 237.525ZM117.298 231.43C117.011 231.022 116.828 230.549 116.766 230.054C116.704 229.558 116.764 229.055 116.943 228.588C117.121 228.12 117.411 227.703 117.787 227.372C118.164 227.042 118.616 226.809 119.103 226.694L154.687 218.342C155.075 218.25 155.478 218.236 155.873 218.3C156.267 218.365 156.644 218.506 156.984 218.717C157.323 218.928 157.617 219.204 157.849 219.529C158.081 219.854 158.246 220.222 158.336 220.611C158.515 221.4 158.375 222.228 157.946 222.914C157.518 223.6 156.836 224.089 156.048 224.274L120.465 232.626C119.878 232.763 119.263 232.722 118.698 232.509C118.135 232.297 117.647 231.921 117.298 231.43ZM127.303 270.036C127.07 269.711 126.904 269.343 126.813 268.953C126.723 268.563 126.711 268.159 126.778 267.764C126.912 266.965 127.356 266.251 128.014 265.778L163.329 240.468C163.986 239.997 164.803 239.806 165.602 239.936C165.995 240.001 166.372 240.142 166.711 240.353C167.05 240.564 167.344 240.839 167.576 241.164C167.808 241.49 167.974 241.858 168.063 242.247C168.153 242.637 168.164 243.041 168.097 243.435C167.963 244.233 167.517 244.945 166.859 245.416L131.551 270.732C130.893 271.203 130.076 271.394 129.279 271.264C128.885 271.199 128.507 271.058 128.168 270.847C127.829 270.636 127.535 270.361 127.303 270.036ZM152.34 305.115C151.987 304.625 151.789 304.042 151.771 303.439C151.752 302.834 151.913 302.238 152.233 301.725L170.122 273.094C170.55 272.407 171.232 271.917 172.02 271.731C172.606 271.592 173.22 271.631 173.783 271.842C174.347 272.053 174.836 272.427 175.186 272.916C175.418 273.241 175.583 273.609 175.674 273.998C175.854 274.786 175.715 275.614 175.287 276.3L157.4 304.929C157.135 305.355 156.769 305.709 156.335 305.96C155.9 306.212 155.411 306.353 154.909 306.371C154.41 306.388 153.914 306.282 153.465 306.061C153.016 305.841 152.629 305.513 152.338 305.106L152.34 305.115ZM195.063 311.282C194.83 310.958 194.663 310.59 194.574 310.2C194.484 309.811 194.473 309.407 194.541 309.013L199.919 277.094C199.982 276.695 200.123 276.312 200.333 275.968C200.544 275.623 200.821 275.323 201.148 275.086C201.474 274.849 201.845 274.679 202.237 274.585C202.63 274.492 203.037 274.477 203.435 274.541C204.033 274.639 204.589 274.914 205.028 275.331C205.468 275.748 205.773 276.288 205.903 276.88C205.989 277.274 205.997 277.681 205.924 278.078L200.547 309.994C200.446 310.589 200.172 311.14 199.759 311.58C199.346 312.019 198.812 312.327 198.225 312.465C197.638 312.602 197.025 312.564 196.462 312.354C195.9 312.143 195.413 311.77 195.063 311.282ZM261.918 173.545C261.684 173.22 261.518 172.852 261.427 172.462C261.337 172.072 261.325 171.668 261.391 171.274C261.523 170.475 261.968 169.761 262.626 169.289L302.8 140.522C303.457 140.051 304.274 139.86 305.072 139.989C305.466 140.053 305.843 140.195 306.182 140.406C306.521 140.616 306.815 140.892 307.047 141.216C307.397 141.707 307.593 142.29 307.61 142.893C307.628 143.495 307.467 144.089 307.146 144.599C306.934 144.939 306.657 145.234 306.331 145.468L266.173 174.249C265.514 174.722 264.695 174.913 263.894 174.782C263.499 174.717 263.121 174.574 262.782 174.362C262.442 174.149 262.149 173.872 261.918 173.545ZM249.872 148.936C249.519 148.447 249.32 147.863 249.302 147.26C249.283 146.655 249.445 146.059 249.766 145.546L262.604 125.002C263.032 124.315 263.715 123.825 264.503 123.639C264.892 123.547 265.295 123.532 265.689 123.596C266.084 123.66 266.462 123.801 266.801 124.012C267.141 124.223 267.435 124.498 267.667 124.824C267.9 125.149 268.065 125.517 268.155 125.906C268.336 126.694 268.197 127.522 267.769 128.208L254.936 148.756C254.67 149.181 254.304 149.534 253.87 149.785C253.435 150.036 252.946 150.177 252.445 150.195C251.946 150.212 251.45 150.106 251.002 149.886C250.553 149.665 250.166 149.338 249.875 148.931L249.872 148.936ZM224.103 138.918C223.635 138.26 223.447 137.444 223.58 136.648L230.003 98.5424C230.147 97.753 230.595 97.0516 231.25 96.5886C231.904 96.1254 232.715 95.9382 233.506 96.0674C234.294 96.1963 235 96.6321 235.469 97.2796C235.937 97.9271 236.131 98.7337 236.007 99.5258L229.587 137.629C229.486 138.223 229.212 138.775 228.799 139.214C228.386 139.654 227.852 139.962 227.265 140.1C226.68 140.238 226.066 140.199 225.503 139.988C224.94 139.778 224.453 139.405 224.103 138.918ZM297.246 223.04C296.897 222.55 296.702 221.967 296.685 221.366C296.672 220.915 296.758 220.468 296.939 220.054C297.119 219.641 297.388 219.273 297.727 218.976C298.066 218.679 298.466 218.46 298.9 218.336C299.333 218.211 299.788 218.184 300.233 218.256L328.854 222.938C329.249 223.002 329.626 223.144 329.966 223.355C330.305 223.565 330.599 223.841 330.831 224.167C331.063 224.492 331.229 224.86 331.318 225.249C331.408 225.638 331.419 226.042 331.352 226.435C331.217 227.233 330.772 227.945 330.115 228.416C329.458 228.888 328.64 229.08 327.842 228.952L299.219 224.267C298.826 224.203 298.449 224.062 298.11 223.851C297.771 223.64 297.478 223.365 297.246 223.04ZM272.359 218.971C272.01 218.481 271.813 217.898 271.795 217.296C271.778 216.693 271.939 216.097 272.259 215.585C272.579 215.073 273.043 214.667 273.594 214.418C274.143 214.169 274.754 214.087 275.349 214.185L285.403 215.828C285.798 215.892 286.176 216.034 286.515 216.245C286.854 216.456 287.149 216.731 287.381 217.057C287.613 217.382 287.778 217.75 287.868 218.139C287.957 218.529 287.968 218.932 287.901 219.326C287.766 220.123 287.322 220.836 286.665 221.307C286.007 221.778 285.19 221.971 284.392 221.842L274.335 220.197C273.941 220.133 273.563 219.992 273.224 219.782C272.885 219.571 272.591 219.296 272.359 218.971ZM283.495 192.423C283.206 192.015 283.021 191.542 282.958 191.045C282.894 190.549 282.954 190.044 283.132 189.577C283.31 189.107 283.6 188.689 283.977 188.358C284.354 188.027 284.807 187.794 285.295 187.678L312.376 181.325C313.157 181.151 313.975 181.293 314.652 181.719C315.328 182.145 315.808 182.822 315.986 183.601C316.165 184.382 316.03 185.202 315.61 185.885C315.189 186.568 314.518 187.06 313.74 187.254L286.647 193.621C286.061 193.756 285.449 193.714 284.887 193.5C284.326 193.288 283.842 192.912 283.495 192.423Z" fill="white" fill-opacity="0.1"/>
</g>
</g>
<defs>
<clipPath id="clip0_1113_7346">
<rect width="450" height="393.359" fill="white" transform="translate(0 0.629883)"/>
</clipPath>
</defs>
</svg>
