<svg width="32" height="32" viewBox="0 0 32 32" fill="none" xmlns="http://www.w3.org/2000/svg">
<path fill-rule="evenodd" clip-rule="evenodd" d="M28 16C28 22.6274 22.6274 28 16 28C9.37258 28 4 22.6274 4 16C4 9.37258 9.37258 4 16 4C22.6274 4 28 9.37258 28 16ZM16.1868 13.5266C16.5632 13.2443 16.6534 12.7172 16.3925 12.3258C16.0822 11.8604 15.4238 11.7952 15.0282 12.1907L14.2761 12.9428C13.7554 13.4635 12.9112 13.4635 12.3905 12.9428C11.8698 12.4221 11.8698 11.5779 12.3905 11.0572L13.1426 10.3051C14.7281 8.71966 17.3676 8.98103 18.6113 10.8466C19.6573 12.4156 19.2954 14.5285 17.7868 15.6599L17.7221 15.7084C17.4774 15.892 17.3333 16.18 17.3333 16.4859L17.3333 16.6667C17.3333 17.403 16.7364 18 16 18C15.2636 18 14.6667 17.403 14.6667 16.6667L14.6667 16.4859C14.6667 15.3407 15.2059 14.2623 16.1221 13.5751L16.1868 13.5266ZM14.6667 20.6667C14.6667 21.403 15.2636 22 16 22C16.7364 22 17.3333 21.403 17.3333 20.6667C17.3333 19.9303 16.7364 19.3333 16 19.3333C15.2636 19.3333 14.6667 19.9303 14.6667 20.6667Z" fill="#B9F500"/>
</svg>
