<svg width="571" height="155" viewBox="0 0 571 155" fill="none" xmlns="http://www.w3.org/2000/svg">
<g clip-path="url(#clip0_855_8721)">
<rect width="617" height="155" transform="translate(-23)" fill="#F8FEE6"/>
<g opacity="0.04">
<rect x="-11" y="-6" width="82.9839" height="82.9839" rx="16.236" fill="#B9F500"/>
<path d="M55.7511 38.4301C52.9817 31.2505 49.8727 27.1591 40.7056 21.8018L36.0769 24.4751M55.7511 38.4301C55.1598 44.139 54.3249 47.3368 51.8448 53.0129L53.6469 54.8154L50.5958 54.8154C52.5401 42.2365 44.2317 42.6398 42.4689 43.166C40.7061 43.6922 39.5893 45.0378 38.8123 46.218C35.8331 50.7434 32.1841 55.3741 30.5067 57.1415C30.5054 55.8701 30.5035 54.5064 30.5008 53.0129C30.4931 48.7707 30.4923 43.2398 30.4938 38.4301M55.7511 38.4301C49.3378 31.5195 45.7837 27.5973 36.0769 24.4751M55.7511 38.4301H43.0207M36.0769 24.4751L33.2888 26.0852M33.2888 26.0852L30.5008 27.6954C30.5008 27.6954 30.4956 32.5179 30.4938 38.4301M33.2888 26.0852C38.7224 30.1739 40.8921 32.8582 43.0207 38.4301M43.0207 38.4301H30.4938M30.5008 25.9063L38.2862 21.41L36.3614 14.8559L34.6038 13.8408V17.9079C34.4986 20.539 33.0094 21.7965 30.4938 21.831M31.9736 57.1415C39.1123 57.1759 42.5654 56.6752 49.5437 54.8154C50.9114 42.3241 43.2312 43.9431 42.0738 44.7122C40.9164 45.4813 40.7059 45.7971 39.8643 46.9547C39.0227 48.1124 33.651 55.3741 31.9736 57.1415Z" stroke="black" stroke-width="2.74578"/>
<path d="M5.23282 38.4263C8.0026 31.2478 11.1121 27.157 20.2806 21.8006L24.9101 24.4734M5.23282 38.4263C5.82414 44.1344 6.65919 47.3316 9.13966 53.0068L7.33734 54.8092L10.3889 54.8092C8.44427 42.2321 16.7539 42.6354 18.517 43.1615C20.2801 43.6876 21.3971 45.0331 22.1742 46.2131C25.1539 50.7378 28.8034 55.3677 30.4811 57.1348C30.4824 55.8637 30.4843 54.5001 30.487 53.0068C30.4947 48.7653 30.4955 43.2353 30.494 38.4263M5.23282 38.4263C11.647 31.5168 15.2017 27.5952 24.9101 24.4734M5.23282 38.4263H17.9651M24.9101 24.4734L27.6985 26.0834M27.6985 26.0834L30.487 27.6933C30.487 27.6933 30.4922 32.5151 30.494 38.4263M27.6985 26.0834C22.2641 30.1714 20.0941 32.8553 17.9651 38.4263M17.9651 38.4263H30.494M30.487 25.9044L22.7004 21.4088L24.6255 14.8557L26.3833 13.8408V17.9073C26.4885 20.5379 27.9779 21.7953 30.494 21.8297M29.014 57.1348C21.8741 57.1692 18.4205 56.6686 11.4411 54.8092C10.0733 42.3197 17.7546 43.9384 18.9122 44.7075C20.0697 45.4765 20.2803 45.7922 21.122 46.9496C21.9637 48.1071 27.3363 55.3677 29.014 57.1348Z" stroke="black" stroke-width="2.74578"/>
</g>
<g opacity="0.04">
<rect x="71.9839" y="-6" width="82.9839" height="82.9839" rx="16.236" fill="#B9F500"/>
<path d="M138.735 38.4301C135.966 31.2505 132.857 27.1591 123.689 21.8018L119.061 24.4751M138.735 38.4301C138.144 44.139 137.309 47.3368 134.829 53.0129L136.631 54.8154L133.58 54.8154C135.524 42.2365 127.216 42.6398 125.453 43.166C123.69 43.6922 122.573 45.0378 121.796 46.218C118.817 50.7434 115.168 55.3741 113.491 57.1415C113.489 55.8701 113.487 54.5064 113.485 53.0129C113.477 48.7707 113.476 43.2398 113.478 38.4301M138.735 38.4301C132.322 31.5195 128.768 27.5973 119.061 24.4751M138.735 38.4301H126.005M119.061 24.4751L116.273 26.0852M116.273 26.0852L113.485 27.6954C113.485 27.6954 113.479 32.5179 113.478 38.4301M116.273 26.0852C121.706 30.1739 123.876 32.8582 126.005 38.4301M126.005 38.4301H113.478M113.485 25.9063L121.27 21.41L119.345 14.8559L117.588 13.8408V17.9079C117.482 20.539 115.993 21.7965 113.478 21.831M114.957 57.1415C122.096 57.1759 125.549 56.6752 132.528 54.8154C133.895 42.3241 126.215 43.9431 125.058 44.7122C123.9 45.4813 123.69 45.7971 122.848 46.9547C122.007 48.1124 116.635 55.3741 114.957 57.1415Z" stroke="black" stroke-width="2.74578"/>
<path d="M88.2167 38.4263C90.9865 31.2478 94.096 27.157 103.264 21.8006L107.894 24.4734M88.2167 38.4263C88.808 44.1344 89.6431 47.3316 92.1235 53.0068L90.3212 54.8092L93.3727 54.8092C91.4281 42.2321 99.7378 42.6354 101.501 43.1615C103.264 43.6876 104.381 45.0331 105.158 46.2131C108.138 50.7378 111.787 55.3677 113.465 57.1348C113.466 55.8637 113.468 54.5001 113.471 53.0068C113.479 48.7653 113.479 43.2353 113.478 38.4263M88.2167 38.4263C94.6309 31.5168 98.1856 27.5952 107.894 24.4734M88.2167 38.4263H100.949M107.894 24.4734L110.682 26.0834M110.682 26.0834L113.471 27.6933C113.471 27.6933 113.476 32.5151 113.478 38.4263M110.682 26.0834C105.248 30.1714 103.078 32.8553 100.949 38.4263M100.949 38.4263H113.478M113.471 25.9044L105.684 21.4088L107.609 14.8557L109.367 13.8408V17.9073C109.472 20.5379 110.962 21.7953 113.478 21.8297M111.998 57.1348C104.858 57.1692 101.404 56.6686 94.425 54.8092C93.0571 42.3197 100.738 43.9384 101.896 44.7075C103.054 45.4765 103.264 45.7922 104.106 46.9496C104.948 48.1071 110.32 55.3677 111.998 57.1348Z" stroke="black" stroke-width="2.74578"/>
</g>
<g opacity="0.04">
<rect x="154.968" y="-6" width="82.9839" height="82.9839" rx="16.236" fill="#B9F500"/>
<path d="M221.719 38.4301C218.949 31.2505 215.84 27.1591 206.673 21.8018L202.045 24.4751M221.719 38.4301C221.128 44.139 220.293 47.3368 217.813 53.0129L219.615 54.8154L216.564 54.8154C218.508 42.2365 210.199 42.6398 208.437 43.166C206.674 43.6922 205.557 45.0378 204.78 46.218C201.801 50.7434 198.152 55.3741 196.474 57.1415C196.473 55.8701 196.471 54.5064 196.469 53.0129C196.461 48.7707 196.46 43.2398 196.461 38.4301M221.719 38.4301C215.306 31.5195 211.751 27.5973 202.045 24.4751M221.719 38.4301H208.988M202.045 24.4751L199.257 26.0852M199.257 26.0852L196.469 27.6954C196.469 27.6954 196.463 32.5179 196.461 38.4301M199.257 26.0852C204.69 30.1739 206.86 32.8582 208.988 38.4301M208.988 38.4301H196.461M196.469 25.9063L204.254 21.41L202.329 14.8559L200.572 13.8408V17.9079C200.466 20.539 198.977 21.7965 196.461 21.831M197.941 57.1415C205.08 57.1759 208.533 56.6752 215.511 54.8154C216.879 42.3241 209.199 43.9431 208.042 44.7122C206.884 45.4813 206.674 45.7971 205.832 46.9547C204.99 48.1124 199.619 55.3741 197.941 57.1415Z" stroke="black" stroke-width="2.74578"/>
<path d="M171.201 38.4263C173.97 31.2478 177.08 27.157 186.248 21.8006L190.878 24.4734M171.201 38.4263C171.792 44.1344 172.627 47.3316 175.107 53.0068L173.305 54.8092L176.357 54.8092C174.412 42.2321 182.722 42.6354 184.485 43.1615C186.248 43.6876 187.365 45.0331 188.142 46.2131C191.122 50.7378 194.771 55.3677 196.449 57.1348C196.45 55.8637 196.452 54.5001 196.455 53.0068C196.462 48.7653 196.463 43.2353 196.462 38.4263M171.201 38.4263C177.615 31.5168 181.169 27.5952 190.878 24.4734M171.201 38.4263H183.933M190.878 24.4734L193.666 26.0834M193.666 26.0834L196.455 27.6933C196.455 27.6933 196.46 32.5151 196.462 38.4263M193.666 26.0834C188.232 30.1714 186.062 32.8553 183.933 38.4263M183.933 38.4263H196.462M196.455 25.9044L188.668 21.4088L190.593 14.8557L192.351 13.8408V17.9073C192.456 20.5379 193.946 21.7953 196.462 21.8297M194.982 57.1348C187.842 57.1692 184.388 56.6686 177.409 54.8092C176.041 42.3197 183.722 43.9384 184.88 44.7075C186.037 45.4765 186.248 45.7922 187.09 46.9496C187.931 48.1071 193.304 55.3677 194.982 57.1348Z" stroke="black" stroke-width="2.74578"/>
</g>
<g opacity="0.04">
<rect x="237.952" y="-6" width="82.9839" height="82.9839" rx="16.236" fill="#B9F500"/>
<path d="M304.703 38.4301C301.933 31.2505 298.824 27.1591 289.657 21.8018L285.028 24.4751M304.703 38.4301C304.111 44.139 303.277 47.3368 300.796 53.0129L302.598 54.8154L299.547 54.8154C301.492 42.2365 293.183 42.6398 291.421 43.166C289.658 43.6922 288.541 45.0378 287.764 46.218C284.785 50.7434 281.136 55.3741 279.458 57.1415C279.457 55.8701 279.455 54.5064 279.452 53.0129C279.445 48.7707 279.444 43.2398 279.445 38.4301M304.703 38.4301C298.289 31.5195 294.735 27.5973 285.028 24.4751M304.703 38.4301H291.972M285.028 24.4751L282.24 26.0852M282.24 26.0852L279.452 27.6954C279.452 27.6954 279.447 32.5179 279.445 38.4301M282.24 26.0852C287.674 30.1739 289.844 32.8582 291.972 38.4301M291.972 38.4301H279.445M279.452 25.9063L287.238 21.41L285.313 14.8559L283.555 13.8408V17.9079C283.45 20.539 281.961 21.7965 279.445 21.831M280.925 57.1415C288.064 57.1759 291.517 56.6752 298.495 54.8154C299.863 42.3241 292.183 43.9431 291.025 44.7122C289.868 45.4813 289.658 45.7971 288.816 46.9547C287.974 48.1124 282.603 55.3741 280.925 57.1415Z" stroke="black" stroke-width="2.74578"/>
<path d="M254.184 38.4263C256.954 31.2478 260.064 27.157 269.232 21.8006L273.862 24.4734M254.184 38.4263C254.776 44.1344 255.611 47.3316 258.091 53.0068L256.289 54.8092L259.34 54.8092C257.396 42.2321 265.706 42.6354 267.469 43.1615C269.232 43.6876 270.349 45.0331 271.126 46.2131C274.105 50.7378 277.755 55.3677 279.433 57.1348C279.434 55.8637 279.436 54.5001 279.439 53.0068C279.446 48.7653 279.447 43.2353 279.446 38.4263M254.184 38.4263C260.599 31.5168 264.153 27.5952 273.862 24.4734M254.184 38.4263H266.917M273.862 24.4734L276.65 26.0834M276.65 26.0834L279.439 27.6933C279.439 27.6933 279.444 32.5151 279.446 38.4263M276.65 26.0834C271.216 30.1714 269.046 32.8553 266.917 38.4263M266.917 38.4263H279.446M279.439 25.9044L271.652 21.4088L273.577 14.8557L275.335 13.8408V17.9073C275.44 20.5379 276.93 21.7953 279.446 21.8297M277.966 57.1348C270.826 57.1692 267.372 56.6686 260.393 54.8092C259.025 42.3197 266.706 43.9384 267.864 44.7075C269.021 45.4765 269.232 45.7922 270.074 46.9496C270.915 48.1071 276.288 55.3677 277.966 57.1348Z" stroke="black" stroke-width="2.74578"/>
</g>
<g opacity="0.04">
<rect x="320.935" y="-6" width="82.9839" height="82.9839" rx="16.236" fill="#B9F500"/>
<path d="M387.687 38.4301C384.917 31.2505 381.808 27.1591 372.641 21.8018L368.012 24.4751M387.687 38.4301C387.095 44.139 386.26 47.3368 383.78 53.0129L385.582 54.8154L382.531 54.8154C384.476 42.2365 376.167 42.6398 374.404 43.166C372.642 43.6922 371.525 45.0378 370.748 46.218C367.769 50.7434 364.12 55.3741 362.442 57.1415C362.441 55.8701 362.439 54.5064 362.436 53.0129C362.429 48.7707 362.428 43.2398 362.429 38.4301M387.687 38.4301C381.273 31.5195 377.719 27.5973 368.012 24.4751M387.687 38.4301H374.956M368.012 24.4751L365.224 26.0852M365.224 26.0852L362.436 27.6954C362.436 27.6954 362.431 32.5179 362.429 38.4301M365.224 26.0852C370.658 30.1739 372.828 32.8582 374.956 38.4301M374.956 38.4301H362.429M362.436 25.9063L370.222 21.41L368.297 14.8559L366.539 13.8408V17.9079C366.434 20.539 364.945 21.7965 362.429 21.831M363.909 57.1415C371.048 57.1759 374.501 56.6752 381.479 54.8154C382.847 42.3241 375.167 43.9431 374.009 44.7122C372.852 45.4813 372.641 45.7971 371.8 46.9547C370.958 48.1124 365.586 55.3741 363.909 57.1415Z" stroke="black" stroke-width="2.74578"/>
<path d="M337.168 38.4263C339.938 31.2478 343.048 27.157 352.216 21.8006L356.846 24.4734M337.168 38.4263C337.76 44.1344 338.595 47.3316 341.075 53.0068L339.273 54.8092L342.324 54.8092C340.38 42.2321 348.689 42.6354 350.453 43.1615C352.216 43.6876 353.333 45.0331 354.11 46.2131C357.089 50.7378 360.739 55.3677 362.417 57.1348C362.418 55.8637 362.42 54.5001 362.422 53.0068C362.43 48.7653 362.431 43.2353 362.43 38.4263M337.168 38.4263C343.583 31.5168 347.137 27.5952 356.846 24.4734M337.168 38.4263H349.901M356.846 24.4734L359.634 26.0834M359.634 26.0834L362.422 27.6933C362.422 27.6933 362.428 32.5151 362.43 38.4263M359.634 26.0834C354.2 30.1714 352.03 32.8553 349.901 38.4263M349.901 38.4263H362.43M362.422 25.9044L354.636 21.4088L356.561 14.8557L358.319 13.8408V17.9073C358.424 20.5379 359.913 21.7953 362.43 21.8297M360.949 57.1348C353.81 57.1692 350.356 56.6686 343.377 54.8092C342.009 42.3197 349.69 43.9384 350.848 44.7075C352.005 45.4765 352.216 45.7922 353.057 46.9496C353.899 48.1071 359.272 55.3677 360.949 57.1348Z" stroke="black" stroke-width="2.74578"/>
</g>
<g opacity="0.04">
<rect x="403.919" y="-6" width="82.9839" height="82.9839" rx="16.236" fill="#B9F500"/>
<path d="M470.67 38.4301C467.901 31.2505 464.792 27.1591 455.625 21.8018L450.996 24.4751M470.67 38.4301C470.079 44.139 469.244 47.3368 466.764 53.0129L468.566 54.8154L465.515 54.8154C467.46 42.2365 459.151 42.6398 457.388 43.166C455.625 43.6922 454.509 45.0378 453.732 46.218C450.752 50.7434 447.103 55.3741 445.426 57.1415C445.425 55.8701 445.423 54.5064 445.42 53.0129C445.412 48.7707 445.412 43.2398 445.413 38.4301M470.67 38.4301C464.257 31.5195 460.703 27.5973 450.996 24.4751M470.67 38.4301H457.94M450.996 24.4751L448.208 26.0852M448.208 26.0852L445.42 27.6954C445.42 27.6954 445.415 32.5179 445.413 38.4301M448.208 26.0852C453.642 30.1739 455.811 32.8582 457.94 38.4301M457.94 38.4301H445.413M445.42 25.9063L453.206 21.41L451.281 14.8559L449.523 13.8408V17.9079C449.418 20.539 447.929 21.7965 445.413 21.831M446.893 57.1415C454.032 57.1759 457.485 56.6752 464.463 54.8154C465.831 42.3241 458.151 43.9431 456.993 44.7122C455.836 45.4813 455.625 45.7971 454.784 46.9547C453.942 48.1124 448.57 55.3741 446.893 57.1415Z" stroke="black" stroke-width="2.74578"/>
<path d="M420.152 38.4263C422.922 31.2478 426.031 27.157 435.2 21.8006L439.829 24.4734M420.152 38.4263C420.744 44.1344 421.579 47.3316 424.059 53.0068L422.257 54.8092L425.308 54.8092C423.364 42.2321 431.673 42.6354 433.436 43.1615C435.199 43.6876 436.316 45.0331 437.094 46.2131C440.073 50.7378 443.723 55.3677 445.4 57.1348C445.402 55.8637 445.404 54.5001 445.406 53.0068C445.414 48.7653 445.415 43.2353 445.413 38.4263M420.152 38.4263C426.566 31.5168 430.121 27.5952 439.829 24.4734M420.152 38.4263H432.885M439.829 24.4734L442.618 26.0834M442.618 26.0834L445.406 27.6933C445.406 27.6933 445.412 32.5151 445.413 38.4263M442.618 26.0834C437.183 30.1714 435.014 32.8553 432.885 38.4263M432.885 38.4263H445.413M445.406 25.9044L437.62 21.4088L439.545 14.8557L441.303 13.8408V17.9073C441.408 20.5379 442.897 21.7953 445.413 21.8297M443.933 57.1348C436.793 57.1692 433.34 56.6686 426.361 54.8092C424.993 42.3197 432.674 43.9384 433.832 44.7075C434.989 45.4765 435.2 45.7922 436.041 46.9496C436.883 48.1071 442.256 55.3677 443.933 57.1348Z" stroke="black" stroke-width="2.74578"/>
</g>
<g opacity="0.04">
<rect x="486.903" y="-6" width="82.9839" height="82.9839" rx="16.236" fill="#B9F500"/>
<path d="M553.654 38.4301C550.885 31.2505 547.776 27.1591 538.609 21.8018L533.98 24.4751M553.654 38.4301C553.063 44.139 552.228 47.3368 549.748 53.0129L551.55 54.8154L548.499 54.8154C550.443 42.2365 542.135 42.6398 540.372 43.166C538.609 43.6922 537.493 45.0378 536.716 46.218C533.736 50.7434 530.087 55.3741 528.41 57.1415C528.409 55.8701 528.407 54.5064 528.404 53.0129C528.396 48.7707 528.396 43.2398 528.397 38.4301M553.654 38.4301C547.241 31.5195 543.687 27.5973 533.98 24.4751M553.654 38.4301H540.924M533.98 24.4751L531.192 26.0852M531.192 26.0852L528.404 27.6954C528.404 27.6954 528.399 32.5179 528.397 38.4301M531.192 26.0852C536.626 30.1739 538.795 32.8582 540.924 38.4301M540.924 38.4301H528.397M528.404 25.9063L536.189 21.41L534.265 14.8559L532.507 13.8408V17.9079C532.402 20.539 530.913 21.7965 528.397 21.831M529.877 57.1415C537.016 57.1759 540.469 56.6752 547.447 54.8154C548.815 42.3241 541.134 43.9431 539.977 44.7122C538.82 45.4813 538.609 45.7971 537.768 46.9547C536.926 48.1124 531.554 55.3741 529.877 57.1415Z" stroke="black" stroke-width="2.74578"/>
<path d="M503.136 38.4263C505.906 31.2478 509.015 27.157 518.184 21.8006L522.813 24.4734M503.136 38.4263C503.727 44.1344 504.562 47.3316 507.043 53.0068L505.241 54.8092L508.292 54.8092C506.348 42.2321 514.657 42.6354 516.42 43.1615C518.183 43.6876 519.3 45.0331 520.077 46.2131C523.057 50.7378 526.707 55.3677 528.384 57.1348C528.386 55.8637 528.388 54.5001 528.39 53.0068C528.398 48.7653 528.399 43.2353 528.397 38.4263M503.136 38.4263C509.55 31.5168 513.105 27.5952 522.813 24.4734M503.136 38.4263H515.868M522.813 24.4734L525.602 26.0834M525.602 26.0834L528.39 27.6933C528.39 27.6933 528.395 32.5151 528.397 38.4263M525.602 26.0834C520.167 30.1714 517.997 32.8553 515.868 38.4263M515.868 38.4263H528.397M528.39 25.9044L520.604 21.4088L522.529 14.8557L524.287 13.8408V17.9073C524.392 20.5379 525.881 21.7953 528.397 21.8297M526.917 57.1348C519.777 57.1692 516.324 56.6686 509.344 54.8092C507.977 42.3197 515.658 43.9384 516.815 44.7075C517.973 45.4765 518.184 45.7922 519.025 46.9496C519.867 48.1071 525.24 55.3677 526.917 57.1348Z" stroke="black" stroke-width="2.74578"/>
</g>
<g opacity="0.04">
<rect x="569.887" y="-6" width="82.9839" height="82.9839" rx="16.236" fill="#B9F500"/>
</g>
<g opacity="0.04">
<rect x="-11" y="77" width="82.9839" height="82.9839" rx="16.236" fill="#B9F500"/>
<path d="M55.7511 121.43C52.9817 114.25 49.8727 110.159 40.7056 104.802L36.0769 107.475M55.7511 121.43C55.1598 127.139 54.3249 130.337 51.8448 136.013L53.6469 137.815H50.5958C52.5401 125.236 44.2317 125.64 42.4689 126.166C40.7061 126.692 39.5893 128.038 38.8123 129.218C35.8331 133.743 32.1841 138.374 30.5067 140.141C30.5054 138.87 30.5035 137.506 30.5008 136.013C30.4931 131.771 30.4923 126.24 30.4938 121.43M55.7511 121.43C49.3378 114.519 45.7837 110.597 36.0769 107.475M55.7511 121.43H43.0207M36.0769 107.475L33.2888 109.085M33.2888 109.085L30.5008 110.695C30.5008 110.695 30.4956 115.518 30.4938 121.43M33.2888 109.085C38.7224 113.174 40.8921 115.858 43.0207 121.43M43.0207 121.43H30.4938M30.5008 108.906L38.2862 104.41L36.3614 97.8559L34.6038 96.8408V100.908C34.4986 103.539 33.0094 104.797 30.4938 104.831M31.9736 140.141C39.1123 140.176 42.5654 139.675 49.5437 137.815C50.9114 125.324 43.2312 126.943 42.0738 127.712C40.9164 128.481 40.7059 128.797 39.8643 129.955C39.0227 131.112 33.651 138.374 31.9736 140.141Z" stroke="black" stroke-width="2.74578"/>
<path d="M5.23282 121.426C8.0026 114.248 11.1121 110.157 20.2806 104.801L24.9101 107.473M5.23282 121.426C5.82414 127.134 6.65919 130.332 9.13966 136.007L7.33734 137.809H10.3889C8.44427 125.232 16.7539 125.635 18.517 126.162C20.2801 126.688 21.3971 128.033 22.1742 129.213C25.1539 133.738 28.8034 138.368 30.4811 140.135C30.4824 138.864 30.4843 137.5 30.487 136.007C30.4947 131.765 30.4955 126.235 30.494 121.426M5.23282 121.426C11.647 114.517 15.2017 110.595 24.9101 107.473M5.23282 121.426H17.9651M24.9101 107.473L27.6985 109.083M27.6985 109.083L30.487 110.693C30.487 110.693 30.4922 115.515 30.494 121.426M27.6985 109.083C22.2641 113.171 20.0941 115.855 17.9651 121.426M17.9651 121.426H30.494M30.487 108.904L22.7004 104.409L24.6255 97.8557L26.3833 96.8408V100.907C26.4885 103.538 27.9779 104.795 30.494 104.83M29.014 140.135C21.8741 140.169 18.4205 139.669 11.4411 137.809C10.0733 125.32 17.7546 126.938 18.9122 127.707C20.0697 128.476 20.2803 128.792 21.122 129.95C21.9637 131.107 27.3363 138.368 29.014 140.135Z" stroke="black" stroke-width="2.74578"/>
</g>
<g opacity="0.04">
<rect x="71.9839" y="77" width="82.9839" height="82.9839" rx="16.236" fill="#B9F500"/>
<path d="M138.735 121.43C135.966 114.25 132.857 110.159 123.689 104.802L119.061 107.475M138.735 121.43C138.144 127.139 137.309 130.337 134.829 136.013L136.631 137.815H133.58C135.524 125.236 127.216 125.64 125.453 126.166C123.69 126.692 122.573 128.038 121.796 129.218C118.817 133.743 115.168 138.374 113.491 140.141C113.489 138.87 113.487 137.506 113.485 136.013C113.477 131.771 113.476 126.24 113.478 121.43M138.735 121.43C132.322 114.519 128.768 110.597 119.061 107.475M138.735 121.43H126.005M119.061 107.475L116.273 109.085M116.273 109.085L113.485 110.695C113.485 110.695 113.479 115.518 113.478 121.43M116.273 109.085C121.706 113.174 123.876 115.858 126.005 121.43M126.005 121.43H113.478M113.485 108.906L121.27 104.41L119.345 97.8559L117.588 96.8408V100.908C117.482 103.539 115.993 104.797 113.478 104.831M114.957 140.141C122.096 140.176 125.549 139.675 132.528 137.815C133.895 125.324 126.215 126.943 125.058 127.712C123.9 128.481 123.69 128.797 122.848 129.955C122.007 131.112 116.635 138.374 114.957 140.141Z" stroke="black" stroke-width="2.74578"/>
<path d="M88.2167 121.426C90.9865 114.248 94.096 110.157 103.264 104.801L107.894 107.473M88.2167 121.426C88.808 127.134 89.6431 130.332 92.1235 136.007L90.3212 137.809H93.3727C91.4281 125.232 99.7378 125.635 101.501 126.162C103.264 126.688 104.381 128.033 105.158 129.213C108.138 133.738 111.787 138.368 113.465 140.135C113.466 138.864 113.468 137.5 113.471 136.007C113.479 131.765 113.479 126.235 113.478 121.426M88.2167 121.426C94.6309 114.517 98.1856 110.595 107.894 107.473M88.2167 121.426H100.949M107.894 107.473L110.682 109.083M110.682 109.083L113.471 110.693C113.471 110.693 113.476 115.515 113.478 121.426M110.682 109.083C105.248 113.171 103.078 115.855 100.949 121.426M100.949 121.426H113.478M113.471 108.904L105.684 104.409L107.609 97.8557L109.367 96.8408V100.907C109.472 103.538 110.962 104.795 113.478 104.83M111.998 140.135C104.858 140.169 101.404 139.669 94.425 137.809C93.0571 125.32 100.738 126.938 101.896 127.707C103.054 128.476 103.264 128.792 104.106 129.95C104.948 131.107 110.32 138.368 111.998 140.135Z" stroke="black" stroke-width="2.74578"/>
</g>
<g opacity="0.04">
<rect x="154.968" y="77" width="82.9839" height="82.9839" rx="16.236" fill="#B9F500"/>
<path d="M221.719 121.43C218.949 114.25 215.84 110.159 206.673 104.802L202.045 107.475M221.719 121.43C221.128 127.139 220.293 130.337 217.813 136.013L219.615 137.815H216.564C218.508 125.236 210.199 125.64 208.437 126.166C206.674 126.692 205.557 128.038 204.78 129.218C201.801 133.743 198.152 138.374 196.474 140.141C196.473 138.87 196.471 137.506 196.469 136.013C196.461 131.771 196.46 126.24 196.461 121.43M221.719 121.43C215.306 114.519 211.751 110.597 202.045 107.475M221.719 121.43H208.988M202.045 107.475L199.257 109.085M199.257 109.085L196.469 110.695C196.469 110.695 196.463 115.518 196.461 121.43M199.257 109.085C204.69 113.174 206.86 115.858 208.988 121.43M208.988 121.43H196.461M196.469 108.906L204.254 104.41L202.329 97.8559L200.572 96.8408V100.908C200.466 103.539 198.977 104.797 196.461 104.831M197.941 140.141C205.08 140.176 208.533 139.675 215.511 137.815C216.879 125.324 209.199 126.943 208.042 127.712C206.884 128.481 206.674 128.797 205.832 129.955C204.99 131.112 199.619 138.374 197.941 140.141Z" stroke="black" stroke-width="2.74578"/>
<path d="M171.201 121.426C173.97 114.248 177.08 110.157 186.248 104.801L190.878 107.473M171.201 121.426C171.792 127.134 172.627 130.332 175.107 136.007L173.305 137.809H176.357C174.412 125.232 182.722 125.635 184.485 126.162C186.248 126.688 187.365 128.033 188.142 129.213C191.122 133.738 194.771 138.368 196.449 140.135C196.45 138.864 196.452 137.5 196.455 136.007C196.462 131.765 196.463 126.235 196.462 121.426M171.201 121.426C177.615 114.517 181.169 110.595 190.878 107.473M171.201 121.426H183.933M190.878 107.473L193.666 109.083M193.666 109.083L196.455 110.693C196.455 110.693 196.46 115.515 196.462 121.426M193.666 109.083C188.232 113.171 186.062 115.855 183.933 121.426M183.933 121.426H196.462M196.455 108.904L188.668 104.409L190.593 97.8557L192.351 96.8408V100.907C192.456 103.538 193.946 104.795 196.462 104.83M194.982 140.135C187.842 140.169 184.388 139.669 177.409 137.809C176.041 125.32 183.722 126.938 184.88 127.707C186.037 128.476 186.248 128.792 187.09 129.95C187.931 131.107 193.304 138.368 194.982 140.135Z" stroke="black" stroke-width="2.74578"/>
</g>
<g opacity="0.04">
<rect x="237.952" y="77" width="82.9839" height="82.9839" rx="16.236" fill="#B9F500"/>
<path d="M304.703 121.43C301.933 114.25 298.824 110.159 289.657 104.802L285.028 107.475M304.703 121.43C304.111 127.139 303.277 130.337 300.796 136.013L302.598 137.815H299.547C301.492 125.236 293.183 125.64 291.421 126.166C289.658 126.692 288.541 128.038 287.764 129.218C284.785 133.743 281.136 138.374 279.458 140.141C279.457 138.87 279.455 137.506 279.452 136.013C279.445 131.771 279.444 126.24 279.445 121.43M304.703 121.43C298.289 114.519 294.735 110.597 285.028 107.475M304.703 121.43H291.972M285.028 107.475L282.24 109.085M282.24 109.085L279.452 110.695C279.452 110.695 279.447 115.518 279.445 121.43M282.24 109.085C287.674 113.174 289.844 115.858 291.972 121.43M291.972 121.43H279.445M279.452 108.906L287.238 104.41L285.313 97.8559L283.555 96.8408V100.908C283.45 103.539 281.961 104.797 279.445 104.831M280.925 140.141C288.064 140.176 291.517 139.675 298.495 137.815C299.863 125.324 292.183 126.943 291.025 127.712C289.868 128.481 289.658 128.797 288.816 129.955C287.974 131.112 282.603 138.374 280.925 140.141Z" stroke="black" stroke-width="2.74578"/>
<path d="M254.184 121.426C256.954 114.248 260.064 110.157 269.232 104.801L273.862 107.473M254.184 121.426C254.776 127.134 255.611 130.332 258.091 136.007L256.289 137.809H259.34C257.396 125.232 265.706 125.635 267.469 126.162C269.232 126.688 270.349 128.033 271.126 129.213C274.105 133.738 277.755 138.368 279.433 140.135C279.434 138.864 279.436 137.5 279.439 136.007C279.446 131.765 279.447 126.235 279.446 121.426M254.184 121.426C260.599 114.517 264.153 110.595 273.862 107.473M254.184 121.426H266.917M273.862 107.473L276.65 109.083M276.65 109.083L279.439 110.693C279.439 110.693 279.444 115.515 279.446 121.426M276.65 109.083C271.216 113.171 269.046 115.855 266.917 121.426M266.917 121.426H279.446M279.439 108.904L271.652 104.409L273.577 97.8557L275.335 96.8408V100.907C275.44 103.538 276.93 104.795 279.446 104.83M277.966 140.135C270.826 140.169 267.372 139.669 260.393 137.809C259.025 125.32 266.706 126.938 267.864 127.707C269.021 128.476 269.232 128.792 270.074 129.95C270.915 131.107 276.288 138.368 277.966 140.135Z" stroke="black" stroke-width="2.74578"/>
</g>
<g opacity="0.04">
<rect x="320.935" y="77" width="82.9839" height="82.9839" rx="16.236" fill="#B9F500"/>
<path d="M387.687 121.43C384.917 114.25 381.808 110.159 372.641 104.802L368.012 107.475M387.687 121.43C387.095 127.139 386.26 130.337 383.78 136.013L385.582 137.815H382.531C384.476 125.236 376.167 125.64 374.404 126.166C372.642 126.692 371.525 128.038 370.748 129.218C367.769 133.743 364.12 138.374 362.442 140.141C362.441 138.87 362.439 137.506 362.436 136.013C362.429 131.771 362.428 126.24 362.429 121.43M387.687 121.43C381.273 114.519 377.719 110.597 368.012 107.475M387.687 121.43H374.956M368.012 107.475L365.224 109.085M365.224 109.085L362.436 110.695C362.436 110.695 362.431 115.518 362.429 121.43M365.224 109.085C370.658 113.174 372.828 115.858 374.956 121.43M374.956 121.43H362.429M362.436 108.906L370.222 104.41L368.297 97.8559L366.539 96.8408V100.908C366.434 103.539 364.945 104.797 362.429 104.831M363.909 140.141C371.048 140.176 374.501 139.675 381.479 137.815C382.847 125.324 375.167 126.943 374.009 127.712C372.852 128.481 372.641 128.797 371.8 129.955C370.958 131.112 365.586 138.374 363.909 140.141Z" stroke="black" stroke-width="2.74578"/>
<path d="M337.168 121.426C339.938 114.248 343.048 110.157 352.216 104.801L356.846 107.473M337.168 121.426C337.76 127.134 338.595 130.332 341.075 136.007L339.273 137.809H342.324C340.38 125.232 348.689 125.635 350.453 126.162C352.216 126.688 353.333 128.033 354.11 129.213C357.089 133.738 360.739 138.368 362.417 140.135C362.418 138.864 362.42 137.5 362.422 136.007C362.43 131.765 362.431 126.235 362.43 121.426M337.168 121.426C343.583 114.517 347.137 110.595 356.846 107.473M337.168 121.426H349.901M356.846 107.473L359.634 109.083M359.634 109.083L362.422 110.693C362.422 110.693 362.428 115.515 362.43 121.426M359.634 109.083C354.2 113.171 352.03 115.855 349.901 121.426M349.901 121.426H362.43M362.422 108.904L354.636 104.409L356.561 97.8557L358.319 96.8408V100.907C358.424 103.538 359.913 104.795 362.43 104.83M360.949 140.135C353.81 140.169 350.356 139.669 343.377 137.809C342.009 125.32 349.69 126.938 350.848 127.707C352.005 128.476 352.216 128.792 353.057 129.95C353.899 131.107 359.272 138.368 360.949 140.135Z" stroke="black" stroke-width="2.74578"/>
</g>
<g opacity="0.04">
<rect x="403.919" y="77" width="82.9839" height="82.9839" rx="16.236" fill="#B9F500"/>
<path d="M470.67 121.43C467.901 114.25 464.792 110.159 455.625 104.802L450.996 107.475M470.67 121.43C470.079 127.139 469.244 130.337 466.764 136.013L468.566 137.815H465.515C467.46 125.236 459.151 125.64 457.388 126.166C455.625 126.692 454.509 128.038 453.732 129.218C450.752 133.743 447.103 138.374 445.426 140.141C445.425 138.87 445.423 137.506 445.42 136.013C445.412 131.771 445.412 126.24 445.413 121.43M470.67 121.43C464.257 114.519 460.703 110.597 450.996 107.475M470.67 121.43H457.94M450.996 107.475L448.208 109.085M448.208 109.085L445.42 110.695C445.42 110.695 445.415 115.518 445.413 121.43M448.208 109.085C453.642 113.174 455.811 115.858 457.94 121.43M457.94 121.43H445.413M445.42 108.906L453.206 104.41L451.281 97.8559L449.523 96.8408V100.908C449.418 103.539 447.929 104.797 445.413 104.831M446.893 140.141C454.032 140.176 457.485 139.675 464.463 137.815C465.831 125.324 458.151 126.943 456.993 127.712C455.836 128.481 455.625 128.797 454.784 129.955C453.942 131.112 448.57 138.374 446.893 140.141Z" stroke="black" stroke-width="2.74578"/>
<path d="M420.152 121.426C422.922 114.248 426.031 110.157 435.2 104.801L439.829 107.473M420.152 121.426C420.744 127.134 421.579 130.332 424.059 136.007L422.257 137.809H425.308C423.364 125.232 431.673 125.635 433.436 126.162C435.199 126.688 436.316 128.033 437.094 129.213C440.073 133.738 443.723 138.368 445.4 140.135C445.402 138.864 445.404 137.5 445.406 136.007C445.414 131.765 445.415 126.235 445.413 121.426M420.152 121.426C426.566 114.517 430.121 110.595 439.829 107.473M420.152 121.426H432.885M439.829 107.473L442.618 109.083M442.618 109.083L445.406 110.693C445.406 110.693 445.412 115.515 445.413 121.426M442.618 109.083C437.183 113.171 435.014 115.855 432.885 121.426M432.885 121.426H445.413M445.406 108.904L437.62 104.409L439.545 97.8557L441.303 96.8408V100.907C441.408 103.538 442.897 104.795 445.413 104.83M443.933 140.135C436.793 140.169 433.34 139.669 426.361 137.809C424.993 125.32 432.674 126.938 433.832 127.707C434.989 128.476 435.2 128.792 436.041 129.95C436.883 131.107 442.256 138.368 443.933 140.135Z" stroke="black" stroke-width="2.74578"/>
</g>
<g opacity="0.04">
<rect x="486.903" y="77" width="82.9839" height="82.9839" rx="16.236" fill="#B9F500"/>
<path d="M553.654 121.43C550.885 114.25 547.776 110.159 538.609 104.802L533.98 107.475M553.654 121.43C553.063 127.139 552.228 130.337 549.748 136.013L551.55 137.815H548.499C550.443 125.236 542.135 125.64 540.372 126.166C538.609 126.692 537.493 128.038 536.716 129.218C533.736 133.743 530.087 138.374 528.41 140.141C528.409 138.87 528.407 137.506 528.404 136.013C528.396 131.771 528.396 126.24 528.397 121.43M553.654 121.43C547.241 114.519 543.687 110.597 533.98 107.475M553.654 121.43H540.924M533.98 107.475L531.192 109.085M531.192 109.085L528.404 110.695C528.404 110.695 528.399 115.518 528.397 121.43M531.192 109.085C536.626 113.174 538.795 115.858 540.924 121.43M540.924 121.43H528.397M528.404 108.906L536.189 104.41L534.265 97.8559L532.507 96.8408V100.908C532.402 103.539 530.913 104.797 528.397 104.831M529.877 140.141C537.016 140.176 540.469 139.675 547.447 137.815C548.815 125.324 541.134 126.943 539.977 127.712C538.82 128.481 538.609 128.797 537.768 129.955C536.926 131.112 531.554 138.374 529.877 140.141Z" stroke="black" stroke-width="2.74578"/>
<path d="M503.136 121.426C505.906 114.248 509.015 110.157 518.184 104.801L522.813 107.473M503.136 121.426C503.727 127.134 504.562 130.332 507.043 136.007L505.241 137.809H508.292C506.348 125.232 514.657 125.635 516.42 126.162C518.183 126.688 519.3 128.033 520.077 129.213C523.057 133.738 526.707 138.368 528.384 140.135C528.386 138.864 528.388 137.5 528.39 136.007C528.398 131.765 528.399 126.235 528.397 121.426M503.136 121.426C509.55 114.517 513.105 110.595 522.813 107.473M503.136 121.426H515.868M522.813 107.473L525.602 109.083M525.602 109.083L528.39 110.693C528.39 110.693 528.395 115.515 528.397 121.426M525.602 109.083C520.167 113.171 517.997 115.855 515.868 121.426M515.868 121.426H528.397M528.39 108.904L520.604 104.409L522.529 97.8557L524.287 96.8408V100.907C524.392 103.538 525.881 104.795 528.397 104.83M526.917 140.135C519.777 140.169 516.324 139.669 509.344 137.809C507.977 125.32 515.658 126.938 516.815 127.707C517.973 128.476 518.184 128.792 519.025 129.95C519.867 131.107 525.24 138.368 526.917 140.135Z" stroke="black" stroke-width="2.74578"/>
</g>
<g opacity="0.04">
<rect x="569.887" y="77" width="82.9839" height="82.9839" rx="16.236" fill="#B9F500"/>
</g>
<rect x="169.065" y="59.8389" width="82.9839" height="82.9839" rx="16.236" transform="rotate(-9.82142 169.065 59.8389)" fill="#B9F500"/>
<path d="M242.416 92.232C238.463 85.63 234.701 82.1289 224.755 78.4139L220.65 81.8375M242.416 92.232C242.807 97.9581 242.53 101.251 241.055 107.267L243.138 108.736L240.131 109.257C239.902 96.5303 231.784 98.3449 230.137 99.1641C228.489 99.9833 227.618 101.5 227.054 102.795C224.891 107.762 222.085 112.948 220.734 114.975C220.515 113.723 220.281 112.379 220.023 110.908C219.292 106.729 218.348 101.28 217.529 96.5403M242.416 92.232C234.918 86.5166 230.747 83.2582 220.65 81.8375M242.416 92.232L229.872 94.4035M220.65 81.8375L218.177 83.8996M218.177 83.8996L215.705 85.9618C215.705 85.9618 216.522 90.7145 217.529 96.5403M218.177 83.8996C224.229 87.0015 226.825 89.2764 229.872 94.4035M229.872 94.4035L217.529 96.5403M215.4 84.1989L222.304 78.4405L219.289 72.3107L217.385 71.6103L218.078 75.6178C218.423 78.2283 217.171 79.7214 214.698 80.1845M222.179 114.725C229.219 113.541 232.536 112.459 239.095 109.436C238.312 96.8944 231.02 99.7998 230.011 100.755C229.002 101.71 228.848 102.057 228.216 103.342C227.585 104.626 223.53 112.697 222.179 114.725Z" stroke="black" stroke-width="2.74578"/>
<path d="M192.638 100.846C194.142 93.3 196.508 88.7388 204.629 81.897L209.646 83.7409M192.638 100.846C194.194 106.369 195.562 109.377 198.974 114.546L197.506 116.63L200.513 116.109C196.451 104.048 204.708 103.028 206.535 103.246C208.362 103.463 209.692 104.598 210.659 105.629C214.367 109.579 218.753 113.518 220.707 114.973C220.492 113.721 220.261 112.377 220.009 110.905C219.293 106.724 218.35 101.275 217.529 96.5368M192.638 100.846C197.779 92.9434 200.613 88.473 209.646 83.7409M192.638 100.846L205.183 98.674M209.646 83.7409L212.669 84.8516M212.669 84.8516L215.691 85.9623C215.691 85.9623 216.519 90.7125 217.529 96.5368M212.669 84.8516C208.011 89.8067 206.331 92.8214 205.183 98.674M205.183 98.674L217.529 96.5368M215.386 84.1996L206.946 81.0981L207.725 74.3127L209.284 73.0128L209.978 77.0197C210.53 79.5938 212.213 80.5787 214.698 80.1835M219.262 115.224C212.232 116.475 208.744 116.571 201.55 115.93C198.071 103.856 205.916 104.141 207.188 104.701C208.46 105.262 208.721 105.537 209.748 106.534C210.775 107.531 217.307 113.769 219.262 115.224Z" stroke="black" stroke-width="2.74578"/>
<path d="M276.036 106.665L270.482 74.5866L284.259 72.2015C286.502 71.8133 288.452 71.8376 290.109 72.2744C291.762 72.6806 293.096 73.4409 294.111 74.5552C295.152 75.6337 295.818 77.013 296.109 78.6933C296.389 80.3125 296.271 81.7331 295.755 82.9553C295.239 84.1774 294.447 85.1797 293.381 85.9622C292.345 86.7395 291.146 87.3088 289.785 87.6703L290.427 86.9928C291.943 86.7933 293.332 86.9618 294.596 87.4983C295.859 88.0347 296.917 88.8428 297.768 89.9226C298.645 90.9666 299.205 92.1912 299.448 93.5965C299.75 95.3379 299.599 96.9372 298.997 98.3945C298.395 99.8517 297.359 101.085 295.889 102.095C294.418 103.105 292.547 103.806 290.273 104.2L276.036 106.665ZM281.979 99.8774L288.154 98.8085C289.69 98.5426 290.814 98.0018 291.527 97.1861C292.265 96.3346 292.521 95.252 292.294 93.9383C292.066 92.6246 291.444 91.6783 290.426 91.0993C289.439 90.515 288.177 90.3557 286.641 90.6216L280.559 91.6746L281.979 99.8774ZM279.679 86.5879L285.346 85.6068C286.821 85.3515 287.884 84.8214 288.535 84.0163C289.218 83.2059 289.453 82.1897 289.241 80.9677C289.03 79.7457 288.467 78.8678 287.552 78.3339C286.662 77.7642 285.465 77.6096 283.959 77.8702L278.338 78.8433L279.679 86.5879Z" fill="#1C1D19"/>
<path d="M303.149 101.971L299.151 78.8747L306.062 77.6782L310.061 100.774L303.149 101.971ZM302.146 75.6185C300.918 75.8312 299.859 75.6527 298.969 75.083C298.079 74.5133 297.542 73.6938 297.357 72.6245C297.167 71.5247 297.394 70.557 298.041 69.7214C298.687 68.8858 299.625 68.3616 300.853 68.1489C302.113 67.9309 303.187 68.1067 304.077 68.6764C304.997 69.2408 305.553 70.073 305.743 71.1728C305.928 72.242 305.682 73.1971 305.005 74.0381C304.359 74.8737 303.406 75.4005 302.146 75.6185Z" fill="#1C1D19"/>
<path d="M313.386 100.199L307.675 67.204L314.586 66.0075L320.298 99.0021L313.386 100.199Z" fill="#1C1D19"/>
<path d="M333.953 97.2047C331.894 97.561 329.931 97.366 328.061 96.6198C326.223 95.8682 324.656 94.6763 323.361 93.044C322.091 91.3758 321.256 89.3808 320.854 87.0589C320.446 84.7066 320.578 82.544 321.249 80.5714C321.915 78.5682 323.003 76.901 324.512 75.5698C326.047 74.2027 327.859 73.3384 329.948 72.9768C331.545 72.7003 332.993 72.7485 334.292 73.1216C335.585 73.4641 336.708 74.1035 337.661 75.0399L335.472 62.3919L342.383 61.1954L348.095 94.19L341.967 95.2509L340.668 92.4078C340.318 93.1292 339.853 93.8233 339.272 94.4902C338.717 95.1212 338.005 95.6692 337.137 96.1343C336.273 96.6299 335.212 96.9867 333.953 97.2047ZM334.71 90.8904C335.847 90.6937 336.8 90.2612 337.57 89.5929C338.371 88.9193 338.923 88.0844 339.225 87.0881C339.558 86.0865 339.621 84.99 339.415 83.7985C339.209 82.6071 338.78 81.5956 338.13 80.7642C337.511 79.9274 336.711 79.3265 335.73 78.9613C334.78 78.5909 333.737 78.504 332.6 78.7008C331.494 78.8922 330.541 79.3247 329.74 79.9983C328.97 80.6666 328.418 81.5015 328.085 82.5031C327.753 83.5047 327.687 84.5859 327.888 85.7469C328.094 86.9383 328.525 87.9651 329.18 88.827C329.83 89.6585 330.63 90.2594 331.58 90.6299C332.561 90.995 333.604 91.0819 334.71 90.8904Z" fill="#1C1D19"/>
<path d="M359.345 92.8089C357.41 93.1439 355.744 93.1176 354.348 92.7299C352.983 92.3369 351.903 91.6743 351.109 90.7419C350.34 89.7737 349.845 88.648 349.623 87.3649C349.385 85.9901 349.514 84.7249 350.01 83.5692C350.531 82.3776 351.476 81.3487 352.845 80.4824C354.208 79.5856 356.011 78.9431 358.254 78.5549L363.875 77.5817C363.695 76.543 363.409 75.7115 363.016 75.0873C362.654 74.4577 362.152 74.0254 361.51 73.7904C360.868 73.5554 360.041 73.5256 359.027 73.7011C357.952 73.8872 357.083 74.2579 356.42 74.8133C355.756 75.3686 355.412 76.1205 355.386 77.0689L348.751 78.2175C348.619 76.5412 348.908 75.0123 349.618 73.6307C350.359 72.2439 351.452 71.0635 352.897 70.0896C354.342 69.1158 356.078 68.4533 358.105 68.1024C360.317 67.7195 362.3 67.7537 364.055 68.2051C365.805 68.6259 367.244 69.4466 368.373 70.6672C369.533 71.8824 370.29 73.5135 370.644 75.5604L373.119 89.858L367.359 90.8551L365.951 87.6534C365.713 88.2923 365.407 88.8961 365.031 89.4647C364.649 90.0027 364.183 90.5082 363.632 90.9812C363.076 91.4236 362.445 91.8002 361.74 92.1112C361.034 92.4221 360.236 92.6547 359.345 92.8089ZM360.145 87.2896C360.883 87.162 361.507 86.9281 362.017 86.588C362.528 86.2479 362.946 85.8294 363.271 85.3325C363.596 84.8357 363.834 84.2911 363.985 83.6986C364.161 83.0703 364.252 82.4094 364.259 81.7161L364.251 81.6702L359.781 82.444C359.013 82.5769 358.387 82.7955 357.902 83.0998C357.442 83.3682 357.121 83.7069 356.938 84.1161C356.756 84.5252 356.707 84.9742 356.792 85.463C356.882 85.9824 357.081 86.4041 357.391 86.7281C357.725 87.0163 358.123 87.2149 358.585 87.3237C359.072 87.3967 359.593 87.3853 360.145 87.2896Z" fill="#1C1D19"/>
<path d="M376.098 89.3423L372.1 66.2461L378.228 65.1852L379.603 69.2895C380.048 68.2055 380.625 67.2404 381.332 66.3942C382.04 65.5479 382.897 64.8331 383.904 64.2499C384.941 63.6613 386.089 63.258 387.348 63.0399L388.61 70.3262L386.306 70.7251C385.384 70.8846 384.558 71.1378 383.827 71.4846C383.122 71.7955 382.532 72.2279 382.059 72.7819C381.616 73.3306 381.309 74.0287 381.14 74.8762C380.995 75.6878 381.024 76.674 381.225 77.835L383.01 88.1458L376.098 89.3423Z" fill="#1C1D19"/>
<path d="M404.025 85.0742C401.629 85.4889 399.44 85.3644 397.458 84.7005C395.471 84.0061 393.802 82.8633 392.451 81.2722C391.125 79.6452 390.262 77.6708 389.86 75.349C389.447 72.966 389.586 70.755 390.278 68.7159C390.969 66.6769 392.128 64.9658 393.755 63.5828C395.382 62.1998 397.394 61.3009 399.79 60.8861C402.125 60.482 404.255 60.6324 406.18 61.3375C408.105 62.0425 409.71 63.1807 410.995 64.7519C412.305 66.2872 413.155 68.1853 413.547 70.446C413.6 70.7515 413.645 71.1055 413.683 71.508C413.747 71.8746 413.782 72.2618 413.789 72.6696L395.036 75.9161L394.346 71.9292L406.188 69.8792C405.904 68.6067 405.251 67.6657 404.228 67.0562C403.23 66.4107 402.086 66.1997 400.796 66.4231C399.813 66.5932 398.962 66.9766 398.242 67.5731C397.523 68.1696 396.997 68.9687 396.664 69.9703C396.362 70.9666 396.333 72.1674 396.576 73.5727L396.814 74.9475C396.999 76.0167 397.363 76.9292 397.905 77.685C398.478 78.4354 399.188 78.9732 400.035 79.2986C400.913 79.6185 401.89 79.6855 402.965 79.4994C403.978 79.3239 404.773 78.9817 405.35 78.4729C405.952 77.9282 406.381 77.3032 406.639 76.5978L413.689 75.3774C413.512 76.9182 413.005 78.3748 412.167 79.7471C411.324 81.0888 410.21 82.2413 408.827 83.2045C407.438 84.1372 405.837 84.7604 404.025 85.0742Z" fill="#1C1D19"/>
</g>
<defs>
<clipPath id="clip0_855_8721">
<rect width="617" height="155" fill="white" transform="translate(-23)"/>
</clipPath>
</defs>
</svg>
