<svg width="57" height="56" viewBox="0 0 57 56" fill="none" xmlns="http://www.w3.org/2000/svg">
<path d="M14.8485 18.3547C14.3496 16.858 13.1751 15.6836 11.6784 15.1847C10.1552 14.6769 10.1552 12.5224 11.6784 12.0146C13.1751 11.5157 14.3496 10.3413 14.8485 8.84457C15.3562 7.32134 17.5108 7.32134 18.0186 8.84457C18.5175 10.3413 19.6919 11.5157 21.1886 12.0146C22.7119 12.5224 22.7119 14.6769 21.1886 15.1847C19.6919 15.6836 18.5175 16.858 18.0186 18.3547C17.5108 19.878 15.3562 19.878 14.8485 18.3547Z" fill="#B9F500"/>
<path d="M15.1958 48.3762C14.198 45.3828 11.849 43.0338 8.85565 42.036C5.80918 41.0206 5.80918 36.7114 8.85565 35.6959C11.849 34.6981 14.198 32.3492 15.1958 29.3558C16.2113 26.3094 20.5204 26.3094 21.5359 29.3558C22.5337 32.3492 24.8826 34.6981 27.876 35.6959C30.9225 36.7114 30.9225 41.0206 27.876 42.036C24.8826 43.0338 22.5337 45.3828 21.5359 48.3762C20.5204 51.4226 16.2113 51.4226 15.1958 48.3762Z" fill="#B9F500"/>
<path d="M33.6004 26.277C35.8454 27.0254 37.6071 28.7871 38.3555 31.0321C39.1171 33.317 42.3489 33.317 43.1106 31.0321C43.8589 28.7871 45.6206 27.0254 47.8656 26.277C50.1505 25.5154 50.1505 22.2836 47.8656 21.5219C45.6206 20.7736 43.8589 19.0119 43.1106 16.7669C42.3489 14.482 39.1171 14.482 38.3555 16.7669C37.6071 19.0119 35.8454 20.7736 33.6004 21.5219C31.3155 22.2836 31.3155 25.5154 33.6004 26.277Z" fill="#B9F500"/>
</svg>
