<svg width="287" height="207" viewBox="0 0 287 207" fill="none" xmlns="http://www.w3.org/2000/svg">
<g opacity="0.11">
<path d="M279.376 104.057C264.498 65.4987 247.796 43.5258 198.547 14.7547L173.68 29.1113M279.376 104.057C276.2 134.717 271.714 151.89 258.39 182.374L268.072 192.055H251.68C262.126 124.499 217.491 126.665 208.02 129.491C198.55 132.317 192.55 139.544 188.376 145.882C172.371 170.186 152.767 195.055 143.756 204.546C143.749 197.719 143.739 190.395 143.724 182.374C143.683 159.591 143.678 129.888 143.686 104.057M279.376 104.057C244.922 66.9433 225.828 45.8794 173.68 29.1113M279.376 104.057H210.985M173.68 29.1113L158.702 37.7587M158.702 37.7587L143.724 46.4062C143.724 46.4062 143.696 72.3056 143.686 104.057M158.702 37.7587C187.893 59.7171 199.549 74.133 210.985 104.057M210.985 104.057H143.686M143.724 36.7977L185.55 12.6503L175.209 -22.5487L165.767 -28V-6.15768C165.202 7.97241 157.201 14.7263 143.686 14.9111M151.636 204.546C189.988 204.731 208.539 202.042 246.028 192.055C253.376 124.97 212.116 133.664 205.898 137.795C199.68 141.926 198.549 143.621 194.028 149.838C189.506 156.056 160.648 195.055 151.636 204.546Z" stroke="#719500" stroke-width="14.7487"/>
<path d="M8 104.059C22.8776 65.4999 39.5799 43.5266 88.8277 14.7553L113.694 29.112M8 104.059C11.1762 134.719 15.6616 151.892 28.9852 182.376L19.3042 192.057H35.6952C25.2499 124.501 69.8844 126.667 79.3547 129.493C88.825 132.319 94.8248 139.546 98.9988 145.884C115.004 170.188 134.607 195.058 143.618 204.549C143.625 197.721 143.636 190.397 143.65 182.376C143.692 159.593 143.696 129.89 143.688 104.059M8 104.059C42.4533 66.9445 61.5468 45.8804 113.694 29.112M8 104.059H76.3904M113.694 29.112L128.672 37.7595M128.672 37.7595L143.65 46.4071C143.65 46.4071 143.678 72.3068 143.688 104.059M128.672 37.7595C99.4817 59.7182 87.8259 74.1342 76.3904 104.059M76.3904 104.059H143.688M143.65 36.7985L101.825 12.6508L112.166 -22.5486L121.608 -28V-6.15741C122.173 7.97286 130.173 14.7268 143.688 14.9117M135.738 204.549C97.387 204.734 78.8365 202.045 41.3473 192.057C34 124.971 75.2595 133.666 81.4773 137.797C87.695 141.928 88.8258 143.623 93.3471 149.841C97.8684 156.058 126.727 195.058 135.738 204.549Z" stroke="#719500" stroke-width="14.7487"/>
</g>
</svg>
