<svg width="213" height="150" viewBox="0 0 213 150" fill="none" xmlns="http://www.w3.org/2000/svg">
<path d="M188.195 33.8614C187.209 30.2158 185.284 26.8922 182.614 24.2216C179.943 21.551 176.62 19.6266 172.974 18.6399C159.628 15 105.913 15 105.913 15C105.913 15 52.1953 15.1102 38.8489 18.7501C35.2033 19.7368 31.8797 21.6614 29.2092 24.3321C26.5387 27.0028 24.6145 30.3265 23.6281 33.9723C19.5911 57.6863 18.0251 93.8209 23.7389 116.586C24.7254 120.232 26.6497 123.555 29.3202 126.226C31.9907 128.897 35.3142 130.821 38.9598 131.808C52.3062 135.448 106.022 135.448 106.022 135.448C106.022 135.448 159.738 135.448 173.084 131.808C176.729 130.821 180.053 128.897 182.724 126.226C185.394 123.556 187.319 120.232 188.305 116.586C192.563 92.8387 193.875 56.7262 188.195 33.8614Z" fill="#FF0000"/>
<path d="M88.8152 101.033L133.376 75.2227L88.8152 49.4126V101.033Z" fill="white"/>
</svg>
